<?xml version="1.0" encoding="us-ascii" standalone="no"?><svg xmlns="http://www.w3.org/2000/svg" xmlns:xlink="http://www.w3.org/1999/xlink" contentStyleType="text/css" height="319px" preserveAspectRatio="none" style="width:790px;height:319px;background:#FFFFFF;" version="1.1" viewBox="0 0 790 319" width="790px" zoomAndPan="magnify"><defs/><g><line style="stroke:#181818;stroke-width:0.5;stroke-dasharray:5.0,5.0;" x1="22" x2="22" y1="82.6094" y2="237.0156"/><line style="stroke:#181818;stroke-width:0.5;stroke-dasharray:5.0,5.0;" x1="179.5" x2="179.5" y1="82.6094" y2="237.0156"/><line style="stroke:#181818;stroke-width:0.5;stroke-dasharray:5.0,5.0;" x1="413.5" x2="413.5" y1="82.6094" y2="237.0156"/><line style="stroke:#181818;stroke-width:0.5;stroke-dasharray:5.0,5.0;" x1="693.5" x2="693.5" y1="82.6094" y2="237.0156"/><text fill="#000000" font-family="sans-serif" font-size="14" lengthAdjust="spacing" textLength="29" x="5" y="79.5332">User</text><ellipse cx="22.5" cy="13.5" fill="#E2E2F0" rx="8" ry="8" style="stroke:#181818;stroke-width:0.5;"/><path d="M22.5,21.5 L22.5,48.5 M9.5,29.5 L35.5,29.5 M22.5,48.5 L9.5,63.5 M22.5,48.5 L35.5,63.5 " fill="none" style="stroke:#181818;stroke-width:0.5;"/><text fill="#000000" font-family="sans-serif" font-size="14" lengthAdjust="spacing" textLength="29" x="5" y="250.5488">User</text><ellipse cx="22.5" cy="262.125" fill="#E2E2F0" rx="8" ry="8" style="stroke:#181818;stroke-width:0.5;"/><path d="M22.5,270.125 L22.5,297.125 M9.5,278.125 L35.5,278.125 M22.5,297.125 L9.5,312.125 M22.5,297.125 L35.5,312.125 " fill="none" style="stroke:#181818;stroke-width:0.5;"/><rect fill="#E2E2F0" height="31.6094" rx="2.5" ry="2.5" style="stroke:#181818;stroke-width:0.5;" width="164" x="97.5" y="50"/><text fill="#000000" font-family="sans-serif" font-size="14" lengthAdjust="spacing" textLength="150" x="104.5" y="71.5332">&#1054;&#1089;&#1085;&#1086;&#1074;&#1085;&#1086;&#1077; &#1087;&#1088;&#1080;&#1083;&#1086;&#1078;&#1077;&#1085;&#1080;&#1077;</text><rect fill="#E2E2F0" height="31.6094" rx="2.5" ry="2.5" style="stroke:#181818;stroke-width:0.5;" width="164" x="97.5" y="236.0156"/><text fill="#000000" font-family="sans-serif" font-size="14" lengthAdjust="spacing" textLength="150" x="104.5" y="257.5488">&#1054;&#1089;&#1085;&#1086;&#1074;&#1085;&#1086;&#1077; &#1087;&#1088;&#1080;&#1083;&#1086;&#1078;&#1077;&#1085;&#1080;&#1077;</text><rect fill="#E2E2F0" height="31.6094" rx="2.5" ry="2.5" style="stroke:#181818;stroke-width:0.5;" width="150" x="338.5" y="50"/><text fill="#000000" font-family="sans-serif" font-size="14" lengthAdjust="spacing" textLength="136" x="345.5" y="71.5332">&#1057;&#1077;&#1088;&#1074;&#1080;&#1089; &#1083;&#1086;&#1075;&#1080;&#1088;&#1086;&#1074;&#1072;&#1085;&#1080;&#1103;</text><rect fill="#E2E2F0" height="31.6094" rx="2.5" ry="2.5" style="stroke:#181818;stroke-width:0.5;" width="150" x="338.5" y="236.0156"/><text fill="#000000" font-family="sans-serif" font-size="14" lengthAdjust="spacing" textLength="136" x="345.5" y="257.5488">&#1057;&#1077;&#1088;&#1074;&#1080;&#1089; &#1083;&#1086;&#1075;&#1080;&#1088;&#1086;&#1074;&#1072;&#1085;&#1080;&#1103;</text><rect fill="#E2E2F0" height="31.6094" rx="2.5" ry="2.5" style="stroke:#181818;stroke-width:0.5;" width="182" x="602.5" y="50"/><text fill="#000000" font-family="sans-serif" font-size="14" lengthAdjust="spacing" textLength="168" x="609.5" y="71.5332">&#1057;&#1077;&#1088;&#1074;&#1080;&#1089; &#1093;&#1088;&#1072;&#1085;&#1077;&#1085;&#1080;&#1103; &#1092;&#1072;&#1081;&#1083;&#1086;&#1074;</text><rect fill="#E2E2F0" height="31.6094" rx="2.5" ry="2.5" style="stroke:#181818;stroke-width:0.5;" width="182" x="602.5" y="236.0156"/><text fill="#000000" font-family="sans-serif" font-size="14" lengthAdjust="spacing" textLength="168" x="609.5" y="257.5488">&#1057;&#1077;&#1088;&#1074;&#1080;&#1089; &#1093;&#1088;&#1072;&#1085;&#1077;&#1085;&#1080;&#1103; &#1092;&#1072;&#1081;&#1083;&#1086;&#1074;</text><polygon fill="#181818" points="167.5,110.9609,177.5,114.9609,167.5,118.9609,171.5,114.9609" style="stroke:#181818;stroke-width:1.0;"/><line style="stroke:#181818;stroke-width:1.0;" x1="22.5" x2="173.5" y1="114.9609" y2="114.9609"/><text fill="#000000" font-family="sans-serif" font-size="13" lengthAdjust="spacing" textLength="133" x="29.5" y="110.1045">&#1042;&#1099;&#1087;&#1086;&#1083;&#1085;&#1077;&#1085;&#1080;&#1077; &#1076;&#1077;&#1081;&#1089;&#1090;&#1074;&#1080;&#1103;</text><polygon fill="#181818" points="401.5,141.3125,411.5,145.3125,401.5,149.3125,405.5,145.3125" style="stroke:#181818;stroke-width:1.0;"/><line style="stroke:#181818;stroke-width:1.0;" x1="179.5" x2="407.5" y1="145.3125" y2="145.3125"/><text fill="#000000" font-family="sans-serif" font-size="13" lengthAdjust="spacing" textLength="210" x="186.5" y="140.4561">&#1054;&#1090;&#1087;&#1088;&#1072;&#1074;&#1082;&#1072; &#1076;&#1072;&#1085;&#1085;&#1099;&#1093; &#1076;&#1083;&#1103; &#1083;&#1086;&#1075;&#1080;&#1088;&#1086;&#1074;&#1072;&#1085;&#1080;&#1103;</text><line style="stroke:#181818;stroke-width:1.0;" x1="413.5" x2="455.5" y1="175.6641" y2="175.6641"/><line style="stroke:#181818;stroke-width:1.0;" x1="455.5" x2="455.5" y1="175.6641" y2="188.6641"/><line style="stroke:#181818;stroke-width:1.0;" x1="414.5" x2="455.5" y1="188.6641" y2="188.6641"/><polygon fill="#181818" points="424.5,184.6641,414.5,188.6641,424.5,192.6641,420.5,188.6641" style="stroke:#181818;stroke-width:1.0;"/><text fill="#000000" font-family="sans-serif" font-size="13" lengthAdjust="spacing" textLength="130" x="420.5" y="170.8076">&#1047;&#1072;&#1087;&#1080;&#1089;&#1100; &#1089;&#1086;&#1073;&#1099;&#1090;&#1080;&#1103; &#1074; &#1083;&#1086;&#1075;</text><polygon fill="#181818" points="681.5,215.0156,691.5,219.0156,681.5,223.0156,685.5,219.0156" style="stroke:#181818;stroke-width:1.0;"/><line style="stroke:#181818;stroke-width:1.0;" x1="413.5" x2="687.5" y1="219.0156" y2="219.0156"/><text fill="#000000" font-family="sans-serif" font-size="13" lengthAdjust="spacing" textLength="256" x="420.5" y="214.1592">&#1057;&#1086;&#1093;&#1088;&#1072;&#1085;&#1077;&#1085;&#1080;&#1077; &#1083;&#1086;&#1075;&#1086;&#1074; &#1074; &#1092;&#1072;&#1081;&#1083;&#1086;&#1074;&#1086;&#1084; &#1093;&#1088;&#1072;&#1085;&#1080;&#1083;&#1080;&#1097;&#1077;</text><!--SRC=[VP51IiDG48RtxnH3zrx0XU36bJln08yIGa3QaEO0JR4BgL1muwxG6zIdJr9ZaolySoDdfYqsKboyC9Cttp_pp_F3SbpG_IGfNEwBCXjckH-LDC2AA-pG8jWt4ZgUeaOZoIUY_AmH1-GdT9tdVz0rejG6r5oH0UyIJarheo0l3RmTfsasIl-1UIwX8d6F4JzAkZNDO1etsKDo9mvycZYdBkZYIYUYIy8BBz19PNCKK1SV4cwvufcrM3gj5UGmYs8hkUkiRy0NDehe23jUy5oJHkOuxyeTLVg2htBVgHz-9bbgYpUHcfaVX8FKANhYIV4rsluUrCQ-Vwjyw6r5plVltlIzQdv2T3y0]--></g></svg>