<?xml version="1.0" encoding="us-ascii" standalone="no"?><svg xmlns="http://www.w3.org/2000/svg" xmlns:xlink="http://www.w3.org/1999/xlink" contentStyleType="text/css" height="445px" preserveAspectRatio="none" style="width:712px;height:445px;background:#FFFFFF;" version="1.1" viewBox="0 0 712 445" width="712px" zoomAndPan="magnify"><defs/><g><rect fill="none" height="155.5938" style="stroke:#000000;stroke-width:1.5;" width="507.5" x="197.5" y="160.3125"/><line style="stroke:#181818;stroke-width:0.5;stroke-dasharray:5.0,5.0;" x1="54" x2="54" y1="82.6094" y2="363.2578"/><line style="stroke:#181818;stroke-width:0.5;stroke-dasharray:5.0,5.0;" x1="289.5" x2="289.5" y1="82.6094" y2="363.2578"/><line style="stroke:#181818;stroke-width:0.5;stroke-dasharray:5.0,5.0;" x1="480" x2="480" y1="82.6094" y2="363.2578"/><line style="stroke:#181818;stroke-width:0.5;stroke-dasharray:5.0,5.0;" x1="631" x2="631" y1="82.6094" y2="363.2578"/><text fill="#000000" font-family="sans-serif" font-size="14" lengthAdjust="spacing" textLength="93" x="5" y="79.5332">&#1055;&#1086;&#1083;&#1100;&#1079;&#1086;&#1074;&#1072;&#1090;&#1077;&#1083;&#1100;</text><ellipse cx="54.5" cy="13.5" fill="#E2E2F0" rx="8" ry="8" style="stroke:#181818;stroke-width:0.5;"/><path d="M54.5,21.5 L54.5,48.5 M41.5,29.5 L67.5,29.5 M54.5,48.5 L41.5,63.5 M54.5,48.5 L67.5,63.5 " fill="none" style="stroke:#181818;stroke-width:0.5;"/><text fill="#000000" font-family="sans-serif" font-size="14" lengthAdjust="spacing" textLength="93" x="5" y="376.791">&#1055;&#1086;&#1083;&#1100;&#1079;&#1086;&#1074;&#1072;&#1090;&#1077;&#1083;&#1100;</text><ellipse cx="54.5" cy="388.3672" fill="#E2E2F0" rx="8" ry="8" style="stroke:#181818;stroke-width:0.5;"/><path d="M54.5,396.3672 L54.5,423.3672 M41.5,404.3672 L67.5,404.3672 M54.5,423.3672 L41.5,438.3672 M54.5,423.3672 L67.5,438.3672 " fill="none" style="stroke:#181818;stroke-width:0.5;"/><rect fill="#E2E2F0" height="31.6094" rx="2.5" ry="2.5" style="stroke:#181818;stroke-width:0.5;" width="164" x="207.5" y="50"/><text fill="#000000" font-family="sans-serif" font-size="14" lengthAdjust="spacing" textLength="150" x="214.5" y="71.5332">&#1054;&#1089;&#1085;&#1086;&#1074;&#1085;&#1086;&#1077; &#1087;&#1088;&#1080;&#1083;&#1086;&#1078;&#1077;&#1085;&#1080;&#1077;</text><rect fill="#E2E2F0" height="31.6094" rx="2.5" ry="2.5" style="stroke:#181818;stroke-width:0.5;" width="164" x="207.5" y="362.2578"/><text fill="#000000" font-family="sans-serif" font-size="14" lengthAdjust="spacing" textLength="150" x="214.5" y="383.791">&#1054;&#1089;&#1085;&#1086;&#1074;&#1085;&#1086;&#1077; &#1087;&#1088;&#1080;&#1083;&#1086;&#1078;&#1077;&#1085;&#1080;&#1077;</text><rect fill="#E2E2F0" height="31.6094" rx="2.5" ry="2.5" style="stroke:#181818;stroke-width:0.5;" width="153" x="404" y="50"/><text fill="#000000" font-family="sans-serif" font-size="14" lengthAdjust="spacing" textLength="139" x="411" y="71.5332">&#1057;&#1077;&#1088;&#1074;&#1080;&#1089; &#1082;&#1101;&#1096;&#1080;&#1088;&#1086;&#1074;&#1072;&#1085;&#1080;&#1103;</text><rect fill="#E2E2F0" height="31.6094" rx="2.5" ry="2.5" style="stroke:#181818;stroke-width:0.5;" width="153" x="404" y="362.2578"/><text fill="#000000" font-family="sans-serif" font-size="14" lengthAdjust="spacing" textLength="139" x="411" y="383.791">&#1057;&#1077;&#1088;&#1074;&#1080;&#1089; &#1082;&#1101;&#1096;&#1080;&#1088;&#1086;&#1074;&#1072;&#1085;&#1080;&#1103;</text><rect fill="#E2E2F0" height="31.6094" rx="2.5" ry="2.5" style="stroke:#181818;stroke-width:0.5;" width="128" x="567" y="50"/><text fill="#000000" font-family="sans-serif" font-size="14" lengthAdjust="spacing" textLength="114" x="574" y="71.5332">SQL &#1073;&#1072;&#1079;&#1072; &#1076;&#1072;&#1085;&#1085;&#1099;&#1093;</text><rect fill="#E2E2F0" height="31.6094" rx="2.5" ry="2.5" style="stroke:#181818;stroke-width:0.5;" width="128" x="567" y="362.2578"/><text fill="#000000" font-family="sans-serif" font-size="14" lengthAdjust="spacing" textLength="114" x="574" y="383.791">SQL &#1073;&#1072;&#1079;&#1072; &#1076;&#1072;&#1085;&#1085;&#1099;&#1093;</text><polygon fill="#181818" points="277.5,110.9609,287.5,114.9609,277.5,118.9609,281.5,114.9609" style="stroke:#181818;stroke-width:1.0;"/><line style="stroke:#181818;stroke-width:1.0;" x1="54.5" x2="283.5" y1="114.9609" y2="114.9609"/><text fill="#000000" font-family="sans-serif" font-size="13" lengthAdjust="spacing" textLength="110" x="61.5" y="110.1045">&#1047;&#1072;&#1087;&#1088;&#1086;&#1089; &#1085;&#1072; &#1076;&#1072;&#1085;&#1085;&#1099;&#1077;</text><polygon fill="#181818" points="468.5,141.3125,478.5,145.3125,468.5,149.3125,472.5,145.3125" style="stroke:#181818;stroke-width:1.0;"/><line style="stroke:#181818;stroke-width:1.0;" x1="289.5" x2="474.5" y1="145.3125" y2="145.3125"/><text fill="#000000" font-family="sans-serif" font-size="13" lengthAdjust="spacing" textLength="152" x="296.5" y="140.4561">&#1055;&#1088;&#1086;&#1074;&#1077;&#1088;&#1082;&#1072; &#1076;&#1072;&#1085;&#1085;&#1099;&#1093; &#1074; &#1082;&#1101;&#1096;&#1077;</text><path d="M197.5,160.3125 L258.5,160.3125 L258.5,168.6641 L248.5,178.6641 L197.5,178.6641 L197.5,160.3125 " fill="#EEEEEE" style="stroke:#000000;stroke-width:1.5;"/><rect fill="none" height="155.5938" style="stroke:#000000;stroke-width:1.5;" width="507.5" x="197.5" y="160.3125"/><text fill="#000000" font-family="sans-serif" font-size="13" font-weight="bold" lengthAdjust="spacing" textLength="16" x="212.5" y="174.8076">alt</text><text fill="#000000" font-family="sans-serif" font-size="11" font-weight="bold" lengthAdjust="spacing" textLength="146" x="273.5" y="173.7314">[&#1044;&#1072;&#1085;&#1085;&#1099;&#1077; &#1085;&#1072;&#1081;&#1076;&#1077;&#1085;&#1099; &#1074; &#1082;&#1101;&#1096;&#1077;]</text><polygon fill="#181818" points="300.5,197.0156,290.5,201.0156,300.5,205.0156,296.5,201.0156" style="stroke:#181818;stroke-width:1.0;"/><line style="stroke:#181818;stroke-width:1.0;" x1="294.5" x2="479.5" y1="201.0156" y2="201.0156"/><text fill="#000000" font-family="sans-serif" font-size="13" lengthAdjust="spacing" textLength="98" x="306.5" y="196.1592">&#1044;&#1072;&#1085;&#1085;&#1099;&#1077; &#1080;&#1079; &#1082;&#1101;&#1096;&#1072;</text><line style="stroke:#000000;stroke-width:1.0;stroke-dasharray:2.0,2.0;" x1="197.5" x2="705" y1="210.0156" y2="210.0156"/><text fill="#000000" font-family="sans-serif" font-size="11" font-weight="bold" lengthAdjust="spacing" textLength="163" x="202.5" y="221.4346">[&#1044;&#1072;&#1085;&#1085;&#1099;&#1077; &#1085;&#1077; &#1085;&#1072;&#1081;&#1076;&#1077;&#1085;&#1099; &#1074; &#1082;&#1101;&#1096;&#1077;]</text><polygon fill="#181818" points="619,243.2031,629,247.2031,619,251.2031,623,247.2031" style="stroke:#181818;stroke-width:1.0;"/><line style="stroke:#181818;stroke-width:1.0;" x1="289.5" x2="625" y1="247.2031" y2="247.2031"/><text fill="#000000" font-family="sans-serif" font-size="13" lengthAdjust="spacing" textLength="92" x="296.5" y="242.3467">&#1047;&#1072;&#1087;&#1088;&#1086;&#1089; &#1076;&#1072;&#1085;&#1085;&#1099;&#1093;</text><polygon fill="#181818" points="300.5,273.5547,290.5,277.5547,300.5,281.5547,296.5,277.5547" style="stroke:#181818;stroke-width:1.0;"/><line style="stroke:#181818;stroke-width:1.0;" x1="294.5" x2="630" y1="277.5547" y2="277.5547"/><text fill="#000000" font-family="sans-serif" font-size="13" lengthAdjust="spacing" textLength="123" x="306.5" y="272.6982">&#1042;&#1086;&#1079;&#1074;&#1088;&#1072;&#1097;&#1072;&#1077;&#1090; &#1076;&#1072;&#1085;&#1085;&#1099;&#1077;</text><polygon fill="#181818" points="468.5,303.9063,478.5,307.9063,468.5,311.9063,472.5,307.9063" style="stroke:#181818;stroke-width:1.0;"/><line style="stroke:#181818;stroke-width:1.0;" x1="289.5" x2="474.5" y1="307.9063" y2="307.9063"/><text fill="#000000" font-family="sans-serif" font-size="13" lengthAdjust="spacing" textLength="167" x="296.5" y="303.0498">&#1057;&#1086;&#1093;&#1088;&#1072;&#1085;&#1077;&#1085;&#1080;&#1077; &#1076;&#1072;&#1085;&#1085;&#1099;&#1093; &#1074; &#1082;&#1101;&#1096;&#1077;</text><polygon fill="#181818" points="65.5,341.2578,55.5,345.2578,65.5,349.2578,61.5,345.2578" style="stroke:#181818;stroke-width:1.0;"/><line style="stroke:#181818;stroke-width:1.0;" x1="59.5" x2="288.5" y1="345.2578" y2="345.2578"/><text fill="#000000" font-family="sans-serif" font-size="13" lengthAdjust="spacing" textLength="211" x="71.5" y="340.4014">&#1042;&#1086;&#1079;&#1074;&#1088;&#1072;&#1097;&#1072;&#1077;&#1090; &#1076;&#1072;&#1085;&#1085;&#1099;&#1077; &#1087;&#1086;&#1083;&#1100;&#1079;&#1086;&#1074;&#1072;&#1090;&#1077;&#1083;&#1102;</text><!--SRC=[ZP9DIiDG58NdRnMNpjs00y6VeHCH5_280GkbXZGBQ0i5nJyGmPcbEuZ1Ps9BwXREtP7tlZIcQHND87al-Suzvzuy6oINCM6A9HPyYroU6L8Um-cUx83E1c5i8XidtQ0RsNv27Rpm2AKdzUu8dpn4WOLitaLOojfrLBiVHHlI6Pom6GeU4UPynrUo75QkAkG7BpoqmKNObfwU71DUXSgH4juyNl8DJxn0lXuT6ADXQMTFZMcNy2oKPbkgMzdImHc5XFLUIazNGJJXVCE4aDLvdR6zXF3KLFAryI6yqnSjbkIg79fOBMc1lAPJ4_O6uLRfF-kl6l4ps6fxhGaFLrGJvb5wpf49dlAri8x7xJ6jENoFQYQr9ohHUDKF_trSOV-ydhN_F_ymbIFruucyDry0]--></g></svg>