<?xml version="1.0" encoding="us-ascii" standalone="no"?><svg xmlns="http://www.w3.org/2000/svg" xmlns:xlink="http://www.w3.org/1999/xlink" contentStyleType="text/css" height="381px" preserveAspectRatio="none" style="width:883px;height:381px;background:#FFFFFF;" version="1.1" viewBox="0 0 883 381" width="883px" zoomAndPan="magnify"><defs/><g><rect fill="none" height="48.7031" style="stroke:#000000;stroke-width:1.5;" width="558" x="104" y="203.6641"/><line style="stroke:#181818;stroke-width:0.5;stroke-dasharray:5.0,5.0;" x1="54" x2="54" y1="82.6094" y2="299.7188"/><line style="stroke:#181818;stroke-width:0.5;stroke-dasharray:5.0,5.0;" x1="169" x2="169" y1="82.6094" y2="299.7188"/><line style="stroke:#181818;stroke-width:0.5;stroke-dasharray:5.0,5.0;" x1="316" x2="316" y1="82.6094" y2="299.7188"/><line style="stroke:#181818;stroke-width:0.5;stroke-dasharray:5.0,5.0;" x1="576" x2="576" y1="82.6094" y2="299.7188"/><line style="stroke:#181818;stroke-width:0.5;stroke-dasharray:5.0,5.0;" x1="786" x2="786" y1="82.6094" y2="299.7188"/><text fill="#000000" font-family="sans-serif" font-size="14" lengthAdjust="spacing" textLength="93" x="5" y="79.5332">&#1055;&#1086;&#1083;&#1100;&#1079;&#1086;&#1074;&#1072;&#1090;&#1077;&#1083;&#1100;</text><ellipse cx="54.5" cy="13.5" fill="#E2E2F0" rx="8" ry="8" style="stroke:#181818;stroke-width:0.5;"/><path d="M54.5,21.5 L54.5,48.5 M41.5,29.5 L67.5,29.5 M54.5,48.5 L41.5,63.5 M54.5,48.5 L67.5,63.5 " fill="none" style="stroke:#181818;stroke-width:0.5;"/><text fill="#000000" font-family="sans-serif" font-size="14" lengthAdjust="spacing" textLength="93" x="5" y="313.252">&#1055;&#1086;&#1083;&#1100;&#1079;&#1086;&#1074;&#1072;&#1090;&#1077;&#1083;&#1100;</text><ellipse cx="54.5" cy="324.8281" fill="#E2E2F0" rx="8" ry="8" style="stroke:#181818;stroke-width:0.5;"/><path d="M54.5,332.8281 L54.5,359.8281 M41.5,340.8281 L67.5,340.8281 M54.5,359.8281 L41.5,374.8281 M54.5,359.8281 L67.5,374.8281 " fill="none" style="stroke:#181818;stroke-width:0.5;"/><text fill="#000000" font-family="sans-serif" font-size="14" lengthAdjust="spacing" textLength="104" x="114" y="79.5332">&#1040;&#1076;&#1084;&#1080;&#1085;&#1080;&#1089;&#1090;&#1088;&#1072;&#1090;&#1086;&#1088;</text><ellipse cx="169" cy="13.5" fill="#E2E2F0" rx="8" ry="8" style="stroke:#181818;stroke-width:0.5;"/><path d="M169,21.5 L169,48.5 M156,29.5 L182,29.5 M169,48.5 L156,63.5 M169,48.5 L182,63.5 " fill="none" style="stroke:#181818;stroke-width:0.5;"/><text fill="#000000" font-family="sans-serif" font-size="14" lengthAdjust="spacing" textLength="104" x="114" y="313.252">&#1040;&#1076;&#1084;&#1080;&#1085;&#1080;&#1089;&#1090;&#1088;&#1072;&#1090;&#1086;&#1088;</text><ellipse cx="169" cy="324.8281" fill="#E2E2F0" rx="8" ry="8" style="stroke:#181818;stroke-width:0.5;"/><path d="M169,332.8281 L169,359.8281 M156,340.8281 L182,340.8281 M169,359.8281 L156,374.8281 M169,359.8281 L182,374.8281 " fill="none" style="stroke:#181818;stroke-width:0.5;"/><rect fill="#E2E2F0" height="31.6094" rx="2.5" ry="2.5" style="stroke:#181818;stroke-width:0.5;" width="164" x="234" y="50"/><text fill="#000000" font-family="sans-serif" font-size="14" lengthAdjust="spacing" textLength="150" x="241" y="71.5332">&#1054;&#1089;&#1085;&#1086;&#1074;&#1085;&#1086;&#1077; &#1087;&#1088;&#1080;&#1083;&#1086;&#1078;&#1077;&#1085;&#1080;&#1077;</text><rect fill="#E2E2F0" height="31.6094" rx="2.5" ry="2.5" style="stroke:#181818;stroke-width:0.5;" width="164" x="234" y="298.7188"/><text fill="#000000" font-family="sans-serif" font-size="14" lengthAdjust="spacing" textLength="150" x="241" y="320.252">&#1054;&#1089;&#1085;&#1086;&#1074;&#1085;&#1086;&#1077; &#1087;&#1088;&#1080;&#1083;&#1086;&#1078;&#1077;&#1085;&#1080;&#1077;</text><rect fill="#E2E2F0" height="31.6094" rx="2.5" ry="2.5" style="stroke:#181818;stroke-width:0.5;" width="152" x="500" y="50"/><text fill="#000000" font-family="sans-serif" font-size="14" lengthAdjust="spacing" textLength="138" x="507" y="71.5332">&#1057;&#1077;&#1088;&#1074;&#1080;&#1089; &#1084;&#1086;&#1085;&#1080;&#1090;&#1086;&#1088;&#1080;&#1085;&#1075;&#1072;</text><rect fill="#E2E2F0" height="31.6094" rx="2.5" ry="2.5" style="stroke:#181818;stroke-width:0.5;" width="152" x="500" y="298.7188"/><text fill="#000000" font-family="sans-serif" font-size="14" lengthAdjust="spacing" textLength="138" x="507" y="320.252">&#1057;&#1077;&#1088;&#1074;&#1080;&#1089; &#1084;&#1086;&#1085;&#1080;&#1090;&#1086;&#1088;&#1080;&#1085;&#1075;&#1072;</text><rect fill="#E2E2F0" height="31.6094" rx="2.5" ry="2.5" style="stroke:#181818;stroke-width:0.5;" width="182" x="695" y="50"/><text fill="#000000" font-family="sans-serif" font-size="14" lengthAdjust="spacing" textLength="168" x="702" y="71.5332">&#1057;&#1077;&#1088;&#1074;&#1080;&#1089; &#1093;&#1088;&#1072;&#1085;&#1077;&#1085;&#1080;&#1103; &#1092;&#1072;&#1081;&#1083;&#1086;&#1074;</text><rect fill="#E2E2F0" height="31.6094" rx="2.5" ry="2.5" style="stroke:#181818;stroke-width:0.5;" width="182" x="695" y="298.7188"/><text fill="#000000" font-family="sans-serif" font-size="14" lengthAdjust="spacing" textLength="168" x="702" y="320.252">&#1057;&#1077;&#1088;&#1074;&#1080;&#1089; &#1093;&#1088;&#1072;&#1085;&#1077;&#1085;&#1080;&#1103; &#1092;&#1072;&#1081;&#1083;&#1086;&#1074;</text><polygon fill="#181818" points="304,110.9609,314,114.9609,304,118.9609,308,114.9609" style="stroke:#181818;stroke-width:1.0;"/><line style="stroke:#181818;stroke-width:1.0;" x1="54.5" x2="310" y1="114.9609" y2="114.9609"/><text fill="#000000" font-family="sans-serif" font-size="13" lengthAdjust="spacing" textLength="133" x="61.5" y="110.1045">&#1042;&#1099;&#1087;&#1086;&#1083;&#1085;&#1077;&#1085;&#1080;&#1077; &#1076;&#1077;&#1081;&#1089;&#1090;&#1074;&#1080;&#1103;</text><polygon fill="#181818" points="564,141.3125,574,145.3125,564,149.3125,568,145.3125" style="stroke:#181818;stroke-width:1.0;"/><line style="stroke:#181818;stroke-width:1.0;" x1="316" x2="570" y1="145.3125" y2="145.3125"/><text fill="#000000" font-family="sans-serif" font-size="13" lengthAdjust="spacing" textLength="236" x="323" y="140.4561">&#1054;&#1090;&#1087;&#1088;&#1072;&#1074;&#1082;&#1072; &#1076;&#1072;&#1085;&#1085;&#1099;&#1093; &#1086; &#1089;&#1086;&#1089;&#1090;&#1086;&#1103;&#1085;&#1080;&#1080; &#1089;&#1080;&#1089;&#1090;&#1077;&#1084;&#1099;</text><line style="stroke:#181818;stroke-width:1.0;" x1="576" x2="618" y1="175.6641" y2="175.6641"/><line style="stroke:#181818;stroke-width:1.0;" x1="618" x2="618" y1="175.6641" y2="188.6641"/><line style="stroke:#181818;stroke-width:1.0;" x1="577" x2="618" y1="188.6641" y2="188.6641"/><polygon fill="#181818" points="587,184.6641,577,188.6641,587,192.6641,583,188.6641" style="stroke:#181818;stroke-width:1.0;"/><text fill="#000000" font-family="sans-serif" font-size="13" lengthAdjust="spacing" textLength="92" x="583" y="170.8076">&#1040;&#1085;&#1072;&#1083;&#1080;&#1079; &#1076;&#1072;&#1085;&#1085;&#1099;&#1093;</text><path d="M104,203.6641 L165,203.6641 L165,212.0156 L155,222.0156 L104,222.0156 L104,203.6641 " fill="#EEEEEE" style="stroke:#000000;stroke-width:1.5;"/><rect fill="none" height="48.7031" style="stroke:#000000;stroke-width:1.5;" width="558" x="104" y="203.6641"/><text fill="#000000" font-family="sans-serif" font-size="13" font-weight="bold" lengthAdjust="spacing" textLength="16" x="119" y="218.1592">alt</text><text fill="#000000" font-family="sans-serif" font-size="11" font-weight="bold" lengthAdjust="spacing" textLength="105" x="180" y="217.083">[&#1055;&#1086;&#1088;&#1086;&#1075; &#1087;&#1088;&#1077;&#1074;&#1099;&#1096;&#1077;&#1085;]</text><polygon fill="#181818" points="180,240.3672,170,244.3672,180,248.3672,176,244.3672" style="stroke:#181818;stroke-width:1.0;"/><line style="stroke:#181818;stroke-width:1.0;" x1="174" x2="575" y1="244.3672" y2="244.3672"/><text fill="#000000" font-family="sans-serif" font-size="13" lengthAdjust="spacing" textLength="140" x="186" y="239.5107">&#1054;&#1090;&#1087;&#1088;&#1072;&#1074;&#1082;&#1072; &#1091;&#1074;&#1077;&#1076;&#1086;&#1084;&#1083;&#1077;&#1085;&#1080;&#1103;</text><polygon fill="#181818" points="774,277.7188,784,281.7188,774,285.7188,778,281.7188" style="stroke:#181818;stroke-width:1.0;"/><line style="stroke:#181818;stroke-width:1.0;" x1="576" x2="780" y1="281.7188" y2="281.7188"/><text fill="#000000" font-family="sans-serif" font-size="13" lengthAdjust="spacing" textLength="186" x="583" y="276.8623">&#1057;&#1086;&#1093;&#1088;&#1072;&#1085;&#1077;&#1085;&#1080;&#1077; &#1076;&#1072;&#1085;&#1085;&#1099;&#1093; &#1089;&#1086;&#1089;&#1090;&#1086;&#1103;&#1085;&#1080;&#1103;</text><!--SRC=[VP5DQW9148NtVOh2VIwGHI2RxB8AEK2ZWmoOST0vW9e8WW4b1p1uWs5quXYrlKBLZVAgHFn9Y0kTTkfzxzLhNy_Q7U9F3hoHTrxXj-1S1bpgcNoNdhjHn_d3s9INlEMATrn9NmRIiz4WFHsyRxp4YKjz9ulhSUgJZ6eyapw6bQdV9V4UceetE7p10XmkQoPEqolfd4lC5kf4C0rcQcOMOC6v2H_RIOniSTByHoz3ZGgLMSg4v0t7jUKe3FCGjw8dS7mpSavNffix3KMtn1yovhqMT0Je8aiyhhK4ivWudONa54ULCxpUctN1tvohIbFiP2n3ua1e9nWZoCJ0bVvbtGA_bR4xu_sYJo79aQhYrGNP-LPcLmhdm8j3wIKNU3VI1HpXSmcsk_ihiRpYeGGzu0usn_vSb3IkefqLg9mvt2zAFtHsslvwTK1_0000]--></g></svg>