<?xml version="1.0" encoding="us-ascii" standalone="no"?><svg xmlns="http://www.w3.org/2000/svg" xmlns:xlink="http://www.w3.org/1999/xlink" contentStyleType="text/css" height="349px" preserveAspectRatio="none" style="width:609px;height:349px;background:#FFFFFF;" version="1.1" viewBox="0 0 609 349" width="609px" zoomAndPan="magnify"><defs/><g><line style="stroke:#181818;stroke-width:0.5;stroke-dasharray:5.0,5.0;" x1="54" x2="54" y1="82.6094" y2="267.3672"/><line style="stroke:#181818;stroke-width:0.5;stroke-dasharray:5.0,5.0;" x1="258.5" x2="258.5" y1="82.6094" y2="267.3672"/><line style="stroke:#181818;stroke-width:0.5;stroke-dasharray:5.0,5.0;" x1="482.5" x2="482.5" y1="82.6094" y2="267.3672"/><text fill="#000000" font-family="sans-serif" font-size="14" lengthAdjust="spacing" textLength="93" x="5" y="79.5332">&#1055;&#1086;&#1083;&#1100;&#1079;&#1086;&#1074;&#1072;&#1090;&#1077;&#1083;&#1100;</text><ellipse cx="54.5" cy="13.5" fill="#E2E2F0" rx="8" ry="8" style="stroke:#181818;stroke-width:0.5;"/><path d="M54.5,21.5 L54.5,48.5 M41.5,29.5 L67.5,29.5 M54.5,48.5 L41.5,63.5 M54.5,48.5 L67.5,63.5 " fill="none" style="stroke:#181818;stroke-width:0.5;"/><text fill="#000000" font-family="sans-serif" font-size="14" lengthAdjust="spacing" textLength="93" x="5" y="280.9004">&#1055;&#1086;&#1083;&#1100;&#1079;&#1086;&#1074;&#1072;&#1090;&#1077;&#1083;&#1100;</text><ellipse cx="54.5" cy="292.4766" fill="#E2E2F0" rx="8" ry="8" style="stroke:#181818;stroke-width:0.5;"/><path d="M54.5,300.4766 L54.5,327.4766 M41.5,308.4766 L67.5,308.4766 M54.5,327.4766 L41.5,342.4766 M54.5,327.4766 L67.5,342.4766 " fill="none" style="stroke:#181818;stroke-width:0.5;"/><rect fill="#E2E2F0" height="31.6094" rx="2.5" ry="2.5" style="stroke:#181818;stroke-width:0.5;" width="164" x="176.5" y="50"/><text fill="#000000" font-family="sans-serif" font-size="14" lengthAdjust="spacing" textLength="150" x="183.5" y="71.5332">&#1054;&#1089;&#1085;&#1086;&#1074;&#1085;&#1086;&#1077; &#1087;&#1088;&#1080;&#1083;&#1086;&#1078;&#1077;&#1085;&#1080;&#1077;</text><rect fill="#E2E2F0" height="31.6094" rx="2.5" ry="2.5" style="stroke:#181818;stroke-width:0.5;" width="164" x="176.5" y="266.3672"/><text fill="#000000" font-family="sans-serif" font-size="14" lengthAdjust="spacing" textLength="150" x="183.5" y="287.9004">&#1054;&#1089;&#1085;&#1086;&#1074;&#1085;&#1086;&#1077; &#1087;&#1088;&#1080;&#1083;&#1086;&#1078;&#1077;&#1085;&#1080;&#1077;</text><rect fill="#E2E2F0" height="31.6094" rx="2.5" ry="2.5" style="stroke:#181818;stroke-width:0.5;" width="182" x="391.5" y="50"/><text fill="#000000" font-family="sans-serif" font-size="14" lengthAdjust="spacing" textLength="168" x="398.5" y="71.5332">&#1057;&#1077;&#1088;&#1074;&#1080;&#1089; &#1093;&#1088;&#1072;&#1085;&#1077;&#1085;&#1080;&#1103; &#1092;&#1072;&#1081;&#1083;&#1086;&#1074;</text><rect fill="#E2E2F0" height="31.6094" rx="2.5" ry="2.5" style="stroke:#181818;stroke-width:0.5;" width="182" x="391.5" y="266.3672"/><text fill="#000000" font-family="sans-serif" font-size="14" lengthAdjust="spacing" textLength="168" x="398.5" y="287.9004">&#1057;&#1077;&#1088;&#1074;&#1080;&#1089; &#1093;&#1088;&#1072;&#1085;&#1077;&#1085;&#1080;&#1103; &#1092;&#1072;&#1081;&#1083;&#1086;&#1074;</text><polygon fill="#181818" points="246.5,110.9609,256.5,114.9609,246.5,118.9609,250.5,114.9609" style="stroke:#181818;stroke-width:1.0;"/><line style="stroke:#181818;stroke-width:1.0;" x1="54.5" x2="252.5" y1="114.9609" y2="114.9609"/><text fill="#000000" font-family="sans-serif" font-size="13" lengthAdjust="spacing" textLength="94" x="61.5" y="110.1045">&#1047;&#1072;&#1075;&#1088;&#1091;&#1079;&#1082;&#1072; &#1092;&#1072;&#1081;&#1083;&#1072;</text><polygon fill="#181818" points="470.5,141.3125,480.5,145.3125,470.5,149.3125,474.5,145.3125" style="stroke:#181818;stroke-width:1.0;"/><line style="stroke:#181818;stroke-width:1.0;" x1="258.5" x2="476.5" y1="145.3125" y2="145.3125"/><text fill="#000000" font-family="sans-serif" font-size="13" lengthAdjust="spacing" textLength="200" x="265.5" y="140.4561">&#1055;&#1077;&#1088;&#1077;&#1076;&#1072;&#1095;&#1072; &#1092;&#1072;&#1081;&#1083;&#1072; &#1076;&#1083;&#1103; &#1089;&#1086;&#1093;&#1088;&#1072;&#1085;&#1077;&#1085;&#1080;&#1103;</text><line style="stroke:#181818;stroke-width:1.0;" x1="482.5" x2="524.5" y1="175.6641" y2="175.6641"/><line style="stroke:#181818;stroke-width:1.0;" x1="524.5" x2="524.5" y1="175.6641" y2="188.6641"/><line style="stroke:#181818;stroke-width:1.0;" x1="483.5" x2="524.5" y1="188.6641" y2="188.6641"/><polygon fill="#181818" points="493.5,184.6641,483.5,188.6641,493.5,192.6641,489.5,188.6641" style="stroke:#181818;stroke-width:1.0;"/><text fill="#000000" font-family="sans-serif" font-size="13" lengthAdjust="spacing" textLength="113" x="489.5" y="170.8076">&#1057;&#1086;&#1093;&#1088;&#1072;&#1085;&#1077;&#1085;&#1080;&#1077; &#1092;&#1072;&#1081;&#1083;&#1072;</text><polygon fill="#181818" points="269.5,215.0156,259.5,219.0156,269.5,223.0156,265.5,219.0156" style="stroke:#181818;stroke-width:1.0;"/><line style="stroke:#181818;stroke-width:1.0;" x1="263.5" x2="481.5" y1="219.0156" y2="219.0156"/><text fill="#000000" font-family="sans-serif" font-size="13" lengthAdjust="spacing" textLength="182" x="275.5" y="214.1592">&#1042;&#1086;&#1079;&#1074;&#1088;&#1072;&#1097;&#1077;&#1085;&#1080;&#1077; &#1089;&#1089;&#1099;&#1083;&#1082;&#1080; &#1085;&#1072; &#1092;&#1072;&#1081;&#1083;</text><polygon fill="#181818" points="65.5,245.3672,55.5,249.3672,65.5,253.3672,61.5,249.3672" style="stroke:#181818;stroke-width:1.0;"/><line style="stroke:#181818;stroke-width:1.0;" x1="59.5" x2="257.5" y1="249.3672" y2="249.3672"/><text fill="#000000" font-family="sans-serif" font-size="13" lengthAdjust="spacing" textLength="180" x="71.5" y="244.5107">&#1057;&#1089;&#1099;&#1083;&#1082;&#1072; &#1085;&#1072; &#1089;&#1086;&#1093;&#1088;&#1072;&#1085;&#1105;&#1085;&#1085;&#1099;&#1081; &#1092;&#1072;&#1081;&#1083;</text><!--SRC=[PP1DIiH048NtVOfYzbx0XU362uW724EGW6Z8v00JVn1nG7JZpc5kq4JRoKp8U8LND_9LCveOQUZkgdvVrQjEfkLL8LXYXrONMFEiuVKQmM99Pd8sImkN9qMPJRCykInbWZUjq4MbxK7mfNCqQ1by4knu3nDZZ_DyXAuGgAtHQ2LwnwkdF2Bw97hBS1Fhr94_oIxIKnfCpbFdp8WS75bHEHIyKlkkSxsXwIry3tjd2We7j07Bs3hWW_FT_m64kTRwLzYDJRbXbVz5LsE2tp5mCeBtrbyuu1grOVhGOnNN8x4j6c6kT_WpKFm1Q_ehz7lXmBW-CzNnVTFptm00]--></g></svg>