<?xml version="1.0" encoding="us-ascii" standalone="no"?><svg xmlns="http://www.w3.org/2000/svg" xmlns:xlink="http://www.w3.org/1999/xlink" contentStyleType="text/css" height="1059px" preserveAspectRatio="none" style="width:893px;height:1059px;background:#FFFFFF;" version="1.1" viewBox="0 0 893 1059" width="893px" zoomAndPan="magnify"><defs/><g><!--class User--><g id="elem_User"><rect codeLine="2" fill="#F1F1F1" height="188.875" id="User" rx="2.5" ry="2.5" style="stroke:#181818;stroke-width:0.5;" width="161" x="612.5" y="203"/><ellipse cx="674.25" cy="219" fill="#ADD1B2" rx="11" ry="11" style="stroke:#181818;stroke-width:1.0;"/><path d="M677.0156,214.875 Q677.1719,214.6563 677.3594,214.5469 Q677.5469,214.4375 677.7656,214.4375 Q678.1406,214.4375 678.375,214.6953 Q678.6094,214.9531 678.6094,215.5625 L678.6094,217.0156 Q678.6094,217.625 678.375,217.8906 Q678.1406,218.1563 677.7656,218.1563 Q677.4219,218.1563 677.2188,217.9531 Q677.0156,217.7656 676.9063,217.25 Q676.8594,216.8906 676.6719,216.7031 Q676.3438,216.3281 675.7344,216.1094 Q675.125,215.8906 674.5,215.8906 Q673.7344,215.8906 673.1016,216.2188 Q672.4688,216.5469 671.9766,217.2969 Q671.4844,218.0469 671.4844,219.0781 L671.4844,220.1719 Q671.4844,221.4063 672.375,222.2266 Q673.2656,223.0469 674.8594,223.0469 Q675.7969,223.0469 676.4531,222.7969 Q676.8438,222.6406 677.2656,222.2031 Q677.5313,221.9375 677.6797,221.8594 Q677.8281,221.7813 678.0313,221.7813 Q678.3594,221.7813 678.6172,222.0391 Q678.875,222.2969 678.875,222.6406 Q678.875,222.9844 678.5313,223.3906 Q678.0313,223.9688 677.2344,224.2969 Q676.1563,224.75 674.8594,224.75 Q673.3438,224.75 672.1406,224.125 Q671.1563,223.625 670.4688,222.5547 Q669.7813,221.4844 669.7813,220.2031 L669.7813,219.0469 Q669.7813,217.7188 670.3984,216.5703 Q671.0156,215.4219 672.1094,214.8047 Q673.2031,214.1875 674.4375,214.1875 Q675.1719,214.1875 675.8203,214.3516 Q676.4688,214.5156 677.0156,214.875 Z " fill="#000000"/><text fill="#000000" font-family="sans-serif" font-size="14" lengthAdjust="spacing" textLength="29" x="694.75" y="224.7285">User</text><line style="stroke:#181818;stroke-width:0.5;" x1="613.5" x2="772.5" y1="235" y2="235"/><rect fill="none" height="6" style="stroke:#C82930;stroke-width:1.0;" width="6" x="620.5" y="246.3047"/><text fill="#000000" font-family="sans-serif" font-size="14" lengthAdjust="spacing" textLength="34" x="632.5" y="253.5332">id: int</text><rect fill="none" height="6" style="stroke:#C82930;stroke-width:1.0;" width="6" x="620.5" y="263.9141"/><text fill="#000000" font-family="sans-serif" font-size="14" lengthAdjust="spacing" textLength="106" x="632.5" y="271.1426">username: string</text><rect fill="none" height="6" style="stroke:#C82930;stroke-width:1.0;" width="6" x="620.5" y="281.5234"/><text fill="#000000" font-family="sans-serif" font-size="14" lengthAdjust="spacing" textLength="76" x="632.5" y="288.752">email: string</text><rect fill="none" height="6" style="stroke:#C82930;stroke-width:1.0;" width="6" x="620.5" y="299.1328"/><text fill="#000000" font-family="sans-serif" font-size="14" lengthAdjust="spacing" textLength="135" x="632.5" y="306.3613">passwordHash: string</text><rect fill="none" height="6" style="stroke:#C82930;stroke-width:1.0;" width="6" x="620.5" y="316.7422"/><text fill="#000000" font-family="sans-serif" font-size="14" lengthAdjust="spacing" textLength="100" x="632.5" y="323.9707">isPremium: bool</text><line style="stroke:#181818;stroke-width:0.5;" x1="613.5" x2="772.5" y1="331.0469" y2="331.0469"/><ellipse cx="623.5" cy="345.3516" fill="#84BE84" rx="3" ry="3" style="stroke:#038048;stroke-width:1.0;"/><text fill="#000000" font-family="sans-serif" font-size="14" lengthAdjust="spacing" textLength="58" x="632.5" y="349.5801">register()</text><ellipse cx="623.5" cy="362.9609" fill="#84BE84" rx="3" ry="3" style="stroke:#038048;stroke-width:1.0;"/><text fill="#000000" font-family="sans-serif" font-size="14" lengthAdjust="spacing" textLength="40" x="632.5" y="367.1895">login()</text><ellipse cx="623.5" cy="380.5703" fill="#84BE84" rx="3" ry="3" style="stroke:#038048;stroke-width:1.0;"/><text fill="#000000" font-family="sans-serif" font-size="14" lengthAdjust="spacing" textLength="94" x="632.5" y="384.7988">updateProfile()</text></g><!--class Message--><g id="elem_Message"><rect codeLine="13" fill="#F1F1F1" height="153.6563" id="Message" rx="2.5" ry="2.5" style="stroke:#181818;stroke-width:0.5;" width="156" x="328" y="684"/><ellipse cx="373.25" cy="700" fill="#ADD1B2" rx="11" ry="11" style="stroke:#181818;stroke-width:1.0;"/><path d="M376.0156,695.875 Q376.1719,695.6563 376.3594,695.5469 Q376.5469,695.4375 376.7656,695.4375 Q377.1406,695.4375 377.375,695.6953 Q377.6094,695.9531 377.6094,696.5625 L377.6094,698.0156 Q377.6094,698.625 377.375,698.8906 Q377.1406,699.1563 376.7656,699.1563 Q376.4219,699.1563 376.2188,698.9531 Q376.0156,698.7656 375.9063,698.25 Q375.8594,697.8906 375.6719,697.7031 Q375.3438,697.3281 374.7344,697.1094 Q374.125,696.8906 373.5,696.8906 Q372.7344,696.8906 372.1016,697.2188 Q371.4688,697.5469 370.9766,698.2969 Q370.4844,699.0469 370.4844,700.0781 L370.4844,701.1719 Q370.4844,702.4063 371.375,703.2266 Q372.2656,704.0469 373.8594,704.0469 Q374.7969,704.0469 375.4531,703.7969 Q375.8438,703.6406 376.2656,703.2031 Q376.5313,702.9375 376.6797,702.8594 Q376.8281,702.7813 377.0313,702.7813 Q377.3594,702.7813 377.6172,703.0391 Q377.875,703.2969 377.875,703.6406 Q377.875,703.9844 377.5313,704.3906 Q377.0313,704.9688 376.2344,705.2969 Q375.1563,705.75 373.8594,705.75 Q372.3438,705.75 371.1406,705.125 Q370.1563,704.625 369.4688,703.5547 Q368.7813,702.4844 368.7813,701.2031 L368.7813,700.0469 Q368.7813,698.7188 369.3984,697.5703 Q370.0156,696.4219 371.1094,695.8047 Q372.2031,695.1875 373.4375,695.1875 Q374.1719,695.1875 374.8203,695.3516 Q375.4688,695.5156 376.0156,695.875 Z " fill="#000000"/><text fill="#000000" font-family="sans-serif" font-size="14" lengthAdjust="spacing" textLength="57" x="393.75" y="705.7285">Message</text><line style="stroke:#181818;stroke-width:0.5;" x1="329" x2="483" y1="716" y2="716"/><rect fill="none" height="6" style="stroke:#C82930;stroke-width:1.0;" width="6" x="336" y="727.3047"/><text fill="#000000" font-family="sans-serif" font-size="14" lengthAdjust="spacing" textLength="34" x="348" y="734.5332">id: int</text><rect fill="none" height="6" style="stroke:#C82930;stroke-width:1.0;" width="6" x="336" y="744.9141"/><text fill="#000000" font-family="sans-serif" font-size="14" lengthAdjust="spacing" textLength="90" x="348" y="752.1426">content: string</text><rect fill="none" height="6" style="stroke:#C82930;stroke-width:1.0;" width="6" x="336" y="762.5234"/><text fill="#000000" font-family="sans-serif" font-size="14" lengthAdjust="spacing" textLength="130" x="348" y="769.752">createdAt: DateTime</text><line style="stroke:#181818;stroke-width:0.5;" x1="329" x2="483" y1="776.8281" y2="776.8281"/><ellipse cx="339" cy="791.1328" fill="#84BE84" rx="3" ry="3" style="stroke:#038048;stroke-width:1.0;"/><text fill="#000000" font-family="sans-serif" font-size="14" lengthAdjust="spacing" textLength="41" x="348" y="795.3613">send()</text><ellipse cx="339" cy="808.7422" fill="#84BE84" rx="3" ry="3" style="stroke:#038048;stroke-width:1.0;"/><text fill="#000000" font-family="sans-serif" font-size="14" lengthAdjust="spacing" textLength="33" x="348" y="812.9707">edit()</text><ellipse cx="339" cy="826.3516" fill="#84BE84" rx="3" ry="3" style="stroke:#038048;stroke-width:1.0;"/><text fill="#000000" font-family="sans-serif" font-size="14" lengthAdjust="spacing" textLength="49" x="348" y="830.5801">delete()</text></g><!--class ChatRoom--><g id="elem_ChatRoom"><rect codeLine="22" fill="#F1F1F1" height="136.0469" id="ChatRoom" rx="2.5" ry="2.5" style="stroke:#181818;stroke-width:0.5;" width="177" x="409.5" y="470"/><ellipse cx="460.25" cy="486" fill="#ADD1B2" rx="11" ry="11" style="stroke:#181818;stroke-width:1.0;"/><path d="M463.0156,481.875 Q463.1719,481.6563 463.3594,481.5469 Q463.5469,481.4375 463.7656,481.4375 Q464.1406,481.4375 464.375,481.6953 Q464.6094,481.9531 464.6094,482.5625 L464.6094,484.0156 Q464.6094,484.625 464.375,484.8906 Q464.1406,485.1563 463.7656,485.1563 Q463.4219,485.1563 463.2188,484.9531 Q463.0156,484.7656 462.9063,484.25 Q462.8594,483.8906 462.6719,483.7031 Q462.3438,483.3281 461.7344,483.1094 Q461.125,482.8906 460.5,482.8906 Q459.7344,482.8906 459.1016,483.2188 Q458.4688,483.5469 457.9766,484.2969 Q457.4844,485.0469 457.4844,486.0781 L457.4844,487.1719 Q457.4844,488.4063 458.375,489.2266 Q459.2656,490.0469 460.8594,490.0469 Q461.7969,490.0469 462.4531,489.7969 Q462.8438,489.6406 463.2656,489.2031 Q463.5313,488.9375 463.6797,488.8594 Q463.8281,488.7813 464.0313,488.7813 Q464.3594,488.7813 464.6172,489.0391 Q464.875,489.2969 464.875,489.6406 Q464.875,489.9844 464.5313,490.3906 Q464.0313,490.9688 463.2344,491.2969 Q462.1563,491.75 460.8594,491.75 Q459.3438,491.75 458.1406,491.125 Q457.1563,490.625 456.4688,489.5547 Q455.7813,488.4844 455.7813,487.2031 L455.7813,486.0469 Q455.7813,484.7188 456.3984,483.5703 Q457.0156,482.4219 458.1094,481.8047 Q459.2031,481.1875 460.4375,481.1875 Q461.1719,481.1875 461.8203,481.3516 Q462.4688,481.5156 463.0156,481.875 Z " fill="#000000"/><text fill="#000000" font-family="sans-serif" font-size="14" lengthAdjust="spacing" textLength="67" x="480.75" y="491.7285">ChatRoom</text><line style="stroke:#181818;stroke-width:0.5;" x1="410.5" x2="585.5" y1="502" y2="502"/><rect fill="none" height="6" style="stroke:#C82930;stroke-width:1.0;" width="6" x="417.5" y="513.3047"/><text fill="#000000" font-family="sans-serif" font-size="14" lengthAdjust="spacing" textLength="34" x="429.5" y="520.5332">id: int</text><rect fill="none" height="6" style="stroke:#C82930;stroke-width:1.0;" width="6" x="417.5" y="530.9141"/><text fill="#000000" font-family="sans-serif" font-size="14" lengthAdjust="spacing" textLength="78" x="429.5" y="538.1426">name: string</text><rect fill="none" height="6" style="stroke:#C82930;stroke-width:1.0;" width="6" x="417.5" y="548.5234"/><text fill="#000000" font-family="sans-serif" font-size="14" lengthAdjust="spacing" textLength="130" x="429.5" y="555.752">createdAt: DateTime</text><line style="stroke:#181818;stroke-width:0.5;" x1="410.5" x2="585.5" y1="562.8281" y2="562.8281"/><ellipse cx="420.5" cy="577.1328" fill="#84BE84" rx="3" ry="3" style="stroke:#038048;stroke-width:1.0;"/><text fill="#000000" font-family="sans-serif" font-size="14" lengthAdjust="spacing" textLength="128" x="429.5" y="581.3613">addUser(user: User)</text><ellipse cx="420.5" cy="594.7422" fill="#84BE84" rx="3" ry="3" style="stroke:#038048;stroke-width:1.0;"/><text fill="#000000" font-family="sans-serif" font-size="14" lengthAdjust="spacing" textLength="151" x="429.5" y="598.9707">removeUser(user: User)</text></g><!--class Attachment--><g id="elem_Attachment"><rect codeLine="30" fill="#F1F1F1" height="136.0469" id="Attachment" rx="2.5" ry="2.5" style="stroke:#181818;stroke-width:0.5;" width="119" x="175.5" y="916"/><ellipse cx="197.7" cy="932" fill="#ADD1B2" rx="11" ry="11" style="stroke:#181818;stroke-width:1.0;"/><path d="M200.4656,927.875 Q200.6219,927.6563 200.8094,927.5469 Q200.9969,927.4375 201.2156,927.4375 Q201.5906,927.4375 201.825,927.6953 Q202.0594,927.9531 202.0594,928.5625 L202.0594,930.0156 Q202.0594,930.625 201.825,930.8906 Q201.5906,931.1563 201.2156,931.1563 Q200.8719,931.1563 200.6688,930.9531 Q200.4656,930.7656 200.3563,930.25 Q200.3094,929.8906 200.1219,929.7031 Q199.7938,929.3281 199.1844,929.1094 Q198.575,928.8906 197.95,928.8906 Q197.1844,928.8906 196.5516,929.2188 Q195.9188,929.5469 195.4266,930.2969 Q194.9344,931.0469 194.9344,932.0781 L194.9344,933.1719 Q194.9344,934.4063 195.825,935.2266 Q196.7156,936.0469 198.3094,936.0469 Q199.2469,936.0469 199.9031,935.7969 Q200.2938,935.6406 200.7156,935.2031 Q200.9813,934.9375 201.1297,934.8594 Q201.2781,934.7813 201.4813,934.7813 Q201.8094,934.7813 202.0672,935.0391 Q202.325,935.2969 202.325,935.6406 Q202.325,935.9844 201.9813,936.3906 Q201.4813,936.9688 200.6844,937.2969 Q199.6063,937.75 198.3094,937.75 Q196.7938,937.75 195.5906,937.125 Q194.6063,936.625 193.9188,935.5547 Q193.2313,934.4844 193.2313,933.2031 L193.2313,932.0469 Q193.2313,930.7188 193.8484,929.5703 Q194.4656,928.4219 195.5594,927.8047 Q196.6531,927.1875 197.8875,927.1875 Q198.6219,927.1875 199.2703,927.3516 Q199.9188,927.5156 200.4656,927.875 Z " fill="#000000"/><text fill="#000000" font-family="sans-serif" font-size="14" lengthAdjust="spacing" textLength="71" x="213.3" y="937.7285">Attachment</text><line style="stroke:#181818;stroke-width:0.5;" x1="176.5" x2="293.5" y1="948" y2="948"/><rect fill="none" height="6" style="stroke:#C82930;stroke-width:1.0;" width="6" x="183.5" y="959.3047"/><text fill="#000000" font-family="sans-serif" font-size="14" lengthAdjust="spacing" textLength="34" x="195.5" y="966.5332">id: int</text><rect fill="none" height="6" style="stroke:#C82930;stroke-width:1.0;" width="6" x="183.5" y="976.9141"/><text fill="#000000" font-family="sans-serif" font-size="14" lengthAdjust="spacing" textLength="90" x="195.5" y="984.1426">filePath: string</text><rect fill="none" height="6" style="stroke:#C82930;stroke-width:1.0;" width="6" x="183.5" y="994.5234"/><text fill="#000000" font-family="sans-serif" font-size="14" lengthAdjust="spacing" textLength="93" x="195.5" y="1001.752">fileType: string</text><line style="stroke:#181818;stroke-width:0.5;" x1="176.5" x2="293.5" y1="1008.8281" y2="1008.8281"/><ellipse cx="186.5" cy="1023.1328" fill="#84BE84" rx="3" ry="3" style="stroke:#038048;stroke-width:1.0;"/><text fill="#000000" font-family="sans-serif" font-size="14" lengthAdjust="spacing" textLength="53" x="195.5" y="1027.3613">upload()</text><ellipse cx="186.5" cy="1040.7422" fill="#84BE84" rx="3" ry="3" style="stroke:#038048;stroke-width:1.0;"/><text fill="#000000" font-family="sans-serif" font-size="14" lengthAdjust="spacing" textLength="70" x="195.5" y="1044.9707">download()</text></g><!--class Notification--><g id="elem_Notification"><rect codeLine="38" fill="#F1F1F1" height="118.4375" id="Notification" rx="2.5" ry="2.5" style="stroke:#181818;stroke-width:0.5;" width="178" x="622" y="479"/><ellipse cx="672.25" cy="495" fill="#ADD1B2" rx="11" ry="11" style="stroke:#181818;stroke-width:1.0;"/><path d="M675.0156,490.875 Q675.1719,490.6563 675.3594,490.5469 Q675.5469,490.4375 675.7656,490.4375 Q676.1406,490.4375 676.375,490.6953 Q676.6094,490.9531 676.6094,491.5625 L676.6094,493.0156 Q676.6094,493.625 676.375,493.8906 Q676.1406,494.1563 675.7656,494.1563 Q675.4219,494.1563 675.2188,493.9531 Q675.0156,493.7656 674.9063,493.25 Q674.8594,492.8906 674.6719,492.7031 Q674.3438,492.3281 673.7344,492.1094 Q673.125,491.8906 672.5,491.8906 Q671.7344,491.8906 671.1016,492.2188 Q670.4688,492.5469 669.9766,493.2969 Q669.4844,494.0469 669.4844,495.0781 L669.4844,496.1719 Q669.4844,497.4063 670.375,498.2266 Q671.2656,499.0469 672.8594,499.0469 Q673.7969,499.0469 674.4531,498.7969 Q674.8438,498.6406 675.2656,498.2031 Q675.5313,497.9375 675.6797,497.8594 Q675.8281,497.7813 676.0313,497.7813 Q676.3594,497.7813 676.6172,498.0391 Q676.875,498.2969 676.875,498.6406 Q676.875,498.9844 676.5313,499.3906 Q676.0313,499.9688 675.2344,500.2969 Q674.1563,500.75 672.8594,500.75 Q671.3438,500.75 670.1406,500.125 Q669.1563,499.625 668.4688,498.5547 Q667.7813,497.4844 667.7813,496.2031 L667.7813,495.0469 Q667.7813,493.7188 668.3984,492.5703 Q669.0156,491.4219 670.1094,490.8047 Q671.2031,490.1875 672.4375,490.1875 Q673.1719,490.1875 673.8203,490.3516 Q674.4688,490.5156 675.0156,490.875 Z " fill="#000000"/><text fill="#000000" font-family="sans-serif" font-size="14" lengthAdjust="spacing" textLength="69" x="692.75" y="500.7285">Notification</text><line style="stroke:#181818;stroke-width:0.5;" x1="623" x2="799" y1="511" y2="511"/><rect fill="none" height="6" style="stroke:#C82930;stroke-width:1.0;" width="6" x="630" y="522.3047"/><text fill="#000000" font-family="sans-serif" font-size="14" lengthAdjust="spacing" textLength="34" x="642" y="529.5332">id: int</text><rect fill="none" height="6" style="stroke:#C82930;stroke-width:1.0;" width="6" x="630" y="539.9141"/><text fill="#000000" font-family="sans-serif" font-size="14" lengthAdjust="spacing" textLength="90" x="642" y="547.1426">content: string</text><rect fill="none" height="6" style="stroke:#C82930;stroke-width:1.0;" width="6" x="630" y="557.5234"/><text fill="#000000" font-family="sans-serif" font-size="14" lengthAdjust="spacing" textLength="109" x="642" y="564.752">sentAt: DateTime</text><line style="stroke:#181818;stroke-width:0.5;" x1="623" x2="799" y1="571.8281" y2="571.8281"/><ellipse cx="633" cy="586.1328" fill="#84BE84" rx="3" ry="3" style="stroke:#038048;stroke-width:1.0;"/><text fill="#000000" font-family="sans-serif" font-size="14" lengthAdjust="spacing" textLength="152" x="642" y="590.3613">sendToUser(user: User)</text></g><!--class AuthService--><g id="elem_AuthService"><rect codeLine="45" fill="#F1F1F1" height="118.4375" id="AuthService" rx="2.5" ry="2.5" style="stroke:#181818;stroke-width:0.5;" width="366" x="510" y="7"/><ellipse cx="650.75" cy="23" fill="#ADD1B2" rx="11" ry="11" style="stroke:#181818;stroke-width:1.0;"/><path d="M653.5156,18.875 Q653.6719,18.6563 653.8594,18.5469 Q654.0469,18.4375 654.2656,18.4375 Q654.6406,18.4375 654.875,18.6953 Q655.1094,18.9531 655.1094,19.5625 L655.1094,21.0156 Q655.1094,21.625 654.875,21.8906 Q654.6406,22.1563 654.2656,22.1563 Q653.9219,22.1563 653.7188,21.9531 Q653.5156,21.7656 653.4063,21.25 Q653.3594,20.8906 653.1719,20.7031 Q652.8438,20.3281 652.2344,20.1094 Q651.625,19.8906 651,19.8906 Q650.2344,19.8906 649.6016,20.2188 Q648.9688,20.5469 648.4766,21.2969 Q647.9844,22.0469 647.9844,23.0781 L647.9844,24.1719 Q647.9844,25.4063 648.875,26.2266 Q649.7656,27.0469 651.3594,27.0469 Q652.2969,27.0469 652.9531,26.7969 Q653.3438,26.6406 653.7656,26.2031 Q654.0313,25.9375 654.1797,25.8594 Q654.3281,25.7813 654.5313,25.7813 Q654.8594,25.7813 655.1172,26.0391 Q655.375,26.2969 655.375,26.6406 Q655.375,26.9844 655.0313,27.3906 Q654.5313,27.9688 653.7344,28.2969 Q652.6563,28.75 651.3594,28.75 Q649.8438,28.75 648.6406,28.125 Q647.6563,27.625 646.9688,26.5547 Q646.2813,25.4844 646.2813,24.2031 L646.2813,23.0469 Q646.2813,21.7188 646.8984,20.5703 Q647.5156,19.4219 648.6094,18.8047 Q649.7031,18.1875 650.9375,18.1875 Q651.6719,18.1875 652.3203,18.3516 Q652.9688,18.5156 653.5156,18.875 Z " fill="#000000"/><text fill="#000000" font-family="sans-serif" font-size="14" lengthAdjust="spacing" textLength="76" x="671.25" y="28.7285">AuthService</text><line style="stroke:#181818;stroke-width:0.5;" x1="511" x2="875" y1="39" y2="39"/><line style="stroke:#181818;stroke-width:0.5;" x1="511" x2="875" y1="47" y2="47"/><ellipse cx="521" cy="61.3047" fill="#84BE84" rx="3" ry="3" style="stroke:#038048;stroke-width:1.0;"/><text fill="#000000" font-family="sans-serif" font-size="14" lengthAdjust="spacing" textLength="340" x="530" y="65.5332">authenticate(username: string, password: string): bool</text><ellipse cx="521" cy="78.9141" fill="#84BE84" rx="3" ry="3" style="stroke:#038048;stroke-width:1.0;"/><text fill="#000000" font-family="sans-serif" font-size="14" lengthAdjust="spacing" textLength="215" x="530" y="83.1426">generateToken(user: User): string</text><ellipse cx="521" cy="96.5234" fill="#84BE84" rx="3" ry="3" style="stroke:#038048;stroke-width:1.0;"/><text fill="#000000" font-family="sans-serif" font-size="14" lengthAdjust="spacing" textLength="248" x="530" y="100.752">hashPassword(password: string): string</text><ellipse cx="521" cy="114.1328" fill="#84BE84" rx="3" ry="3" style="stroke:#038048;stroke-width:1.0;"/><text fill="#000000" font-family="sans-serif" font-size="14" lengthAdjust="spacing" textLength="325" x="530" y="118.3613">verifyPassword(password: string, hash: string): bool</text></g><!--class MessageService--><g id="elem_MessageService"><rect codeLine="52" fill="#F1F1F1" height="83.2188" id="MessageService" rx="2.5" ry="2.5" style="stroke:#181818;stroke-width:0.5;" width="296" x="7" y="496.5"/><ellipse cx="98.75" cy="512.5" fill="#ADD1B2" rx="11" ry="11" style="stroke:#181818;stroke-width:1.0;"/><path d="M101.5156,508.375 Q101.6719,508.1563 101.8594,508.0469 Q102.0469,507.9375 102.2656,507.9375 Q102.6406,507.9375 102.875,508.1953 Q103.1094,508.4531 103.1094,509.0625 L103.1094,510.5156 Q103.1094,511.125 102.875,511.3906 Q102.6406,511.6563 102.2656,511.6563 Q101.9219,511.6563 101.7188,511.4531 Q101.5156,511.2656 101.4063,510.75 Q101.3594,510.3906 101.1719,510.2031 Q100.8438,509.8281 100.2344,509.6094 Q99.625,509.3906 99,509.3906 Q98.2344,509.3906 97.6016,509.7188 Q96.9688,510.0469 96.4766,510.7969 Q95.9844,511.5469 95.9844,512.5781 L95.9844,513.6719 Q95.9844,514.9063 96.875,515.7266 Q97.7656,516.5469 99.3594,516.5469 Q100.2969,516.5469 100.9531,516.2969 Q101.3438,516.1406 101.7656,515.7031 Q102.0313,515.4375 102.1797,515.3594 Q102.3281,515.2813 102.5313,515.2813 Q102.8594,515.2813 103.1172,515.5391 Q103.375,515.7969 103.375,516.1406 Q103.375,516.4844 103.0313,516.8906 Q102.5313,517.4688 101.7344,517.7969 Q100.6563,518.25 99.3594,518.25 Q97.8438,518.25 96.6406,517.625 Q95.6563,517.125 94.9688,516.0547 Q94.2813,514.9844 94.2813,513.7031 L94.2813,512.5469 Q94.2813,511.2188 94.8984,510.0703 Q95.5156,508.9219 96.6094,508.3047 Q97.7031,507.6875 98.9375,507.6875 Q99.6719,507.6875 100.3203,507.8516 Q100.9688,508.0156 101.5156,508.375 Z " fill="#000000"/><text fill="#000000" font-family="sans-serif" font-size="14" lengthAdjust="spacing" textLength="104" x="119.25" y="518.2285">MessageService</text><line style="stroke:#181818;stroke-width:0.5;" x1="8" x2="302" y1="528.5" y2="528.5"/><line style="stroke:#181818;stroke-width:0.5;" x1="8" x2="302" y1="536.5" y2="536.5"/><ellipse cx="18" cy="550.8047" fill="#84BE84" rx="3" ry="3" style="stroke:#038048;stroke-width:1.0;"/><text fill="#000000" font-family="sans-serif" font-size="14" lengthAdjust="spacing" textLength="270" x="27" y="555.0332">createMessage(content: string, user: User)</text><ellipse cx="18" cy="568.4141" fill="#84BE84" rx="3" ry="3" style="stroke:#038048;stroke-width:1.0;"/><text fill="#000000" font-family="sans-serif" font-size="14" lengthAdjust="spacing" textLength="233" x="27" y="572.6426">getMessages(chatRoom: ChatRoom)</text></g><!--class StorageService--><g id="elem_StorageService"><rect codeLine="57" fill="#F1F1F1" height="83.2188" id="StorageService" rx="2.5" ry="2.5" style="stroke:#181818;stroke-width:0.5;" width="240" x="53" y="719.5"/><ellipse cx="120.25" cy="735.5" fill="#ADD1B2" rx="11" ry="11" style="stroke:#181818;stroke-width:1.0;"/><path d="M123.0156,731.375 Q123.1719,731.1563 123.3594,731.0469 Q123.5469,730.9375 123.7656,730.9375 Q124.1406,730.9375 124.375,731.1953 Q124.6094,731.4531 124.6094,732.0625 L124.6094,733.5156 Q124.6094,734.125 124.375,734.3906 Q124.1406,734.6563 123.7656,734.6563 Q123.4219,734.6563 123.2188,734.4531 Q123.0156,734.2656 122.9063,733.75 Q122.8594,733.3906 122.6719,733.2031 Q122.3438,732.8281 121.7344,732.6094 Q121.125,732.3906 120.5,732.3906 Q119.7344,732.3906 119.1016,732.7188 Q118.4688,733.0469 117.9766,733.7969 Q117.4844,734.5469 117.4844,735.5781 L117.4844,736.6719 Q117.4844,737.9063 118.375,738.7266 Q119.2656,739.5469 120.8594,739.5469 Q121.7969,739.5469 122.4531,739.2969 Q122.8438,739.1406 123.2656,738.7031 Q123.5313,738.4375 123.6797,738.3594 Q123.8281,738.2813 124.0313,738.2813 Q124.3594,738.2813 124.6172,738.5391 Q124.875,738.7969 124.875,739.1406 Q124.875,739.4844 124.5313,739.8906 Q124.0313,740.4688 123.2344,740.7969 Q122.1563,741.25 120.8594,741.25 Q119.3438,741.25 118.1406,740.625 Q117.1563,740.125 116.4688,739.0547 Q115.7813,737.9844 115.7813,736.7031 L115.7813,735.5469 Q115.7813,734.2188 116.3984,733.0703 Q117.0156,731.9219 118.1094,731.3047 Q119.2031,730.6875 120.4375,730.6875 Q121.1719,730.6875 121.8203,730.8516 Q122.4688,731.0156 123.0156,731.375 Z " fill="#000000"/><text fill="#000000" font-family="sans-serif" font-size="14" lengthAdjust="spacing" textLength="97" x="140.75" y="741.2285">StorageService</text><line style="stroke:#181818;stroke-width:0.5;" x1="54" x2="292" y1="751.5" y2="751.5"/><line style="stroke:#181818;stroke-width:0.5;" x1="54" x2="292" y1="759.5" y2="759.5"/><ellipse cx="64" cy="773.8047" fill="#84BE84" rx="3" ry="3" style="stroke:#038048;stroke-width:1.0;"/><text fill="#000000" font-family="sans-serif" font-size="14" lengthAdjust="spacing" textLength="214" x="73" y="778.0332">storeFile(attachment: Attachment)</text><ellipse cx="64" cy="791.4141" fill="#84BE84" rx="3" ry="3" style="stroke:#038048;stroke-width:1.0;"/><text fill="#000000" font-family="sans-serif" font-size="14" lengthAdjust="spacing" textLength="185" x="73" y="795.6426">retrieveFile(attachmentId: int)</text></g><!--class Database--><g id="elem_Database"><rect codeLine="62" fill="#F1F1F1" height="100.8281" id="Database" rx="2.5" ry="2.5" style="stroke:#181818;stroke-width:0.5;" width="133" x="324.5" y="15.5"/><ellipse cx="357.5" cy="31.5" fill="#ADD1B2" rx="11" ry="11" style="stroke:#181818;stroke-width:1.0;"/><path d="M360.2656,27.375 Q360.4219,27.1563 360.6094,27.0469 Q360.7969,26.9375 361.0156,26.9375 Q361.3906,26.9375 361.625,27.1953 Q361.8594,27.4531 361.8594,28.0625 L361.8594,29.5156 Q361.8594,30.125 361.625,30.3906 Q361.3906,30.6563 361.0156,30.6563 Q360.6719,30.6563 360.4688,30.4531 Q360.2656,30.2656 360.1563,29.75 Q360.1094,29.3906 359.9219,29.2031 Q359.5938,28.8281 358.9844,28.6094 Q358.375,28.3906 357.75,28.3906 Q356.9844,28.3906 356.3516,28.7188 Q355.7188,29.0469 355.2266,29.7969 Q354.7344,30.5469 354.7344,31.5781 L354.7344,32.6719 Q354.7344,33.9063 355.625,34.7266 Q356.5156,35.5469 358.1094,35.5469 Q359.0469,35.5469 359.7031,35.2969 Q360.0938,35.1406 360.5156,34.7031 Q360.7813,34.4375 360.9297,34.3594 Q361.0781,34.2813 361.2813,34.2813 Q361.6094,34.2813 361.8672,34.5391 Q362.125,34.7969 362.125,35.1406 Q362.125,35.4844 361.7813,35.8906 Q361.2813,36.4688 360.4844,36.7969 Q359.4063,37.25 358.1094,37.25 Q356.5938,37.25 355.3906,36.625 Q354.4063,36.125 353.7188,35.0547 Q353.0313,33.9844 353.0313,32.7031 L353.0313,31.5469 Q353.0313,30.2188 353.6484,29.0703 Q354.2656,27.9219 355.3594,27.3047 Q356.4531,26.6875 357.6875,26.6875 Q358.4219,26.6875 359.0703,26.8516 Q359.7188,27.0156 360.2656,27.375 Z " fill="#000000"/><text fill="#000000" font-family="sans-serif" font-size="14" lengthAdjust="spacing" textLength="61" x="375.5" y="37.2285">Database</text><line style="stroke:#181818;stroke-width:0.5;" x1="325.5" x2="456.5" y1="47.5" y2="47.5"/><line style="stroke:#181818;stroke-width:0.5;" x1="325.5" x2="456.5" y1="55.5" y2="55.5"/><ellipse cx="335.5" cy="69.8047" fill="#84BE84" rx="3" ry="3" style="stroke:#038048;stroke-width:1.0;"/><text fill="#000000" font-family="sans-serif" font-size="14" lengthAdjust="spacing" textLength="60" x="344.5" y="74.0332">connect()</text><ellipse cx="335.5" cy="87.4141" fill="#84BE84" rx="3" ry="3" style="stroke:#038048;stroke-width:1.0;"/><text fill="#000000" font-family="sans-serif" font-size="14" lengthAdjust="spacing" textLength="107" x="344.5" y="91.6426">query(sql: string)</text><ellipse cx="335.5" cy="105.0234" fill="#84BE84" rx="3" ry="3" style="stroke:#038048;stroke-width:1.0;"/><text fill="#000000" font-family="sans-serif" font-size="14" lengthAdjust="spacing" textLength="43" x="344.5" y="109.252">close()</text></g><!--link User to Message--><g id="link_User_Message"><path codeLine="68" d="M773.54,387.81 C821.39,452.12 864.48,539 818,606 C742.7,714.54 586.9917,746.1277 490.0717,755.5777 " fill="none" id="User-to-Message" style="stroke:#181818;stroke-width:1.0;"/><polygon fill="#181818" points="484.1,756.16,493.4457,759.2677,489.0764,755.6748,492.6694,751.3055,484.1,756.16" style="stroke:#181818;stroke-width:1.0;"/><text fill="#000000" font-family="sans-serif" font-size="13" lengthAdjust="spacing" textLength="47" x="838" y="543.4951">&#1089;&#1086;&#1079;&#1076;&#1072;&#1105;&#1090;</text></g><!--link Message to Attachment--><g id="link_Message_Attachment"><path codeLine="69" d="M347.15,838.06 C327.64,863.28 309.7314,886.4144 290.7614,910.9344 " fill="none" id="Message-to-Attachment" style="stroke:#181818;stroke-width:1.0;"/><polygon fill="#181818" points="287.09,915.68,295.7609,911.0093,290.1495,911.7253,289.4334,906.114,287.09,915.68" style="stroke:#181818;stroke-width:1.0;"/><text fill="#000000" font-family="sans-serif" font-size="13" lengthAdjust="spacing" textLength="57" x="322" y="882.4951">&#1089;&#1086;&#1076;&#1077;&#1088;&#1078;&#1080;&#1090;</text></g><!--link User to ChatRoom--><g id="link_User_ChatRoom"><path codeLine="70" d="M616.49,392.08 C595.26,418.05 576.428,441.0751 556.698,465.2051 " fill="none" id="User-to-ChatRoom" style="stroke:#181818;stroke-width:1.0;"/><polygon fill="#181818" points="552.9,469.85,561.6936,465.4146,556.065,465.9792,555.5003,460.3506,552.9,469.85" style="stroke:#181818;stroke-width:1.0;"/><text fill="#000000" font-family="sans-serif" font-size="13" lengthAdjust="spacing" textLength="70" x="591" y="436.4951">&#1091;&#1095;&#1072;&#1089;&#1090;&#1074;&#1091;&#1077;&#1090; &#1074;</text></g><!--link ChatRoom to Message--><g id="link_ChatRoom_Message"><path codeLine="71" d="M470.02,606.21 C459.82,630.72 450.5154,653.0606 440.0154,678.2906 " fill="none" id="ChatRoom-to-Message" style="stroke:#181818;stroke-width:1.0;"/><polygon fill="#181818" points="437.71,683.83,444.861,677.0577,439.6311,679.2138,437.4751,673.9839,437.71,683.83" style="stroke:#181818;stroke-width:1.0;"/><text fill="#000000" font-family="sans-serif" font-size="13" lengthAdjust="spacing" textLength="57" x="459" y="650.4951">&#1089;&#1086;&#1076;&#1077;&#1088;&#1078;&#1080;&#1090;</text></g><!--link User to Notification--><g id="link_User_Notification"><path codeLine="72" d="M700.06,392.08 C702.27,421.31 704.1879,446.7171 706.1579,472.7871 " fill="none" id="User-to-Notification" style="stroke:#181818;stroke-width:1.0;"/><polygon fill="#181818" points="706.61,478.77,709.9205,469.4942,706.2332,473.7842,701.9432,470.097,706.61,478.77" style="stroke:#181818;stroke-width:1.0;"/><text fill="#000000" font-family="sans-serif" font-size="13" lengthAdjust="spacing" textLength="54" x="704" y="436.4951">&#1087;&#1086;&#1083;&#1091;&#1095;&#1072;&#1077;&#1090;</text></g><!--link AuthService to User--><g id="link_AuthService_User"><path codeLine="73" d="M693,125.21 C693,148.71 693,170.44 693,196.66 " fill="none" id="AuthService-to-User" style="stroke:#181818;stroke-width:1.0;"/><polygon fill="#181818" points="693,202.66,697,193.66,693,197.66,689,193.66,693,202.66" style="stroke:#181818;stroke-width:1.0;"/><text fill="#000000" font-family="sans-serif" font-size="13" lengthAdjust="spacing" textLength="101" x="694" y="169.4951">&#1072;&#1091;&#1090;&#1077;&#1085;&#1090;&#1080;&#1092;&#1080;&#1094;&#1080;&#1088;&#1091;&#1077;&#1090;</text></g><!--link MessageService to Message--><g id="link_MessageService_Message"><path codeLine="74" d="M191.1,579.72 C212.24,602.61 240.02,631.09 267,654 C284.76,669.08 291.3,670.09 310,684 C315.88,688.38 317.1728,689.2936 323.2228,693.9436 " fill="none" id="MessageService-to-Message" style="stroke:#181818;stroke-width:1.0;"/><polygon fill="#181818" points="327.98,697.6,323.2818,688.944,324.0157,694.553,318.4066,695.2869,327.98,697.6" style="stroke:#181818;stroke-width:1.0;"/><text fill="#000000" font-family="sans-serif" font-size="13" lengthAdjust="spacing" textLength="61" x="268" y="650.4951">&#1091;&#1087;&#1088;&#1072;&#1074;&#1083;&#1103;&#1077;&#1090;</text></g><!--link StorageService to Attachment--><g id="link_StorageService_Attachment"><path codeLine="75" d="M184.37,802.53 C193.25,834.19 204.1596,873.073 214.5296,910.043 " fill="none" id="StorageService-to-Attachment" style="stroke:#181818;stroke-width:1.0;"/><polygon fill="#181818" points="216.15,915.82,217.5707,906.0741,214.7996,911.0058,209.868,908.2347,216.15,915.82" style="stroke:#181818;stroke-width:1.0;"/><text fill="#000000" font-family="sans-serif" font-size="13" lengthAdjust="spacing" textLength="82" x="209" y="882.4951">&#1086;&#1073;&#1088;&#1072;&#1073;&#1072;&#1090;&#1099;&#1074;&#1072;&#1077;&#1090;</text></g><!--link Database to User--><g id="link_Database_User"><path codeLine="76" d="M456.16,116.52 C501.93,151.3 558.6926,194.44 607.5726,231.58 " fill="none" id="Database-to-User" style="stroke:#181818;stroke-width:1.0;stroke-dasharray:7.0,7.0;"/><polygon fill="#181818" points="612.35,235.21,607.6039,226.5801,608.3688,232.185,602.7639,232.95,612.35,235.21" style="stroke:#181818;stroke-width:1.0;"/><text fill="#000000" font-family="sans-serif" font-size="13" lengthAdjust="spacing" textLength="40" x="525" y="169.4951">&#1093;&#1088;&#1072;&#1085;&#1080;&#1090;</text></g><!--link Database to Message--><g id="link_Database_Message"><path codeLine="77" d="M389.62,116.82 C387.3,211.96 383.67,426.06 392,606 C393.17,631.34 394.8279,652.9864 397.1579,677.7464 " fill="none" id="Database-to-Message" style="stroke:#181818;stroke-width:1.0;stroke-dasharray:7.0,7.0;"/><polygon fill="#181818" points="397.72,683.72,400.8592,674.3848,397.2516,678.742,392.8944,675.1343,397.72,683.72" style="stroke:#181818;stroke-width:1.0;"/><text fill="#000000" font-family="sans-serif" font-size="13" lengthAdjust="spacing" textLength="40" x="389" y="436.4951">&#1093;&#1088;&#1072;&#1085;&#1080;&#1090;</text></g><!--SRC=[bLJTRjCm5BxFKqIzIaMx1yW5qWH2S06gM7a0BpbDBHAxizrE5KBQMdukk42yILTjC0cDlOBpHXmdhfku3HALKiN7dy_v_9tl9Cc9bE4x2IBy48Ju6uOqZKFAb5tDSOkH0k9GAa5PPiDG49fxiHcckkGYVKdarDkYSYIWeFCY3iyvpwlear10HgK24VLj8ESPPMurdwL4mKZm2Sq1en-38AdelWOfIGOTZ1FE533bCKW4OBBq5EFFyMLC2x1b9B3KrOIKAhT88GVLglniIjHRpekEqaU4wgvBqjJe7Xc5uwe5VQTBmHTmiEbOd2f5acc1b-pWOGGR4ULtmOJ7orcRej4vvsGlGSelcGsuYc-ueXEQ44Kv-o_PKLpLeVcO_-E6SpKz0x6WoQxBg1V6C9jX0P5lou5ptoxIRraj0mR2SE3lWJLhUbfCqRiZcoawah85Ne2WasKdV51by_duBlQlMHl6RaQUgeFmq2qPA8kMKMBz6JkdDaGzKrmSAIWn32_CY17dgxZXiRqhaG8iVEYhsWMDEjXhSavauqgSCKZsStKn1x6Cv8NxWEmsafnBEs_L9sauVEg6FGvxvRN-et_fMxqfVvIhNh3RCh36JEoGj_gklD8_zRt1kdnkX0riNNx5PDVbIc_BDS9NeTxs0WSvLlzurjQ085G_8lHtdT_axGLDIviJrL63t21gfU_q0_xVbv_m-OBFLSt7NR9vj4bfhH-HpaPliTht-eJNvqDraDfDTUW6Yw_ARtZOadIjEpdPCom_L-27-iejI9D92_KN]--></g></svg>