<?xml version="1.0" encoding="us-ascii" standalone="no"?><svg xmlns="http://www.w3.org/2000/svg" xmlns:xlink="http://www.w3.org/1999/xlink" contentStyleType="text/css" height="882px" preserveAspectRatio="none" style="width:1553px;height:882px;background:#FFFFFF;" version="1.1" viewBox="0 0 1553 882" width="1553px" zoomAndPan="magnify"><defs/><g><!--class User--><g id="elem_User"><rect codeLine="2" fill="#F1F1F1" height="136.0469" id="User" rx="2.5" ry="2.5" style="stroke:#181818;stroke-width:0.5;" width="161" x="669.5" y="203"/><ellipse cx="731.25" cy="219" fill="#ADD1B2" rx="11" ry="11" style="stroke:#181818;stroke-width:1.0;"/><path d="M734.0156,214.875 Q734.1719,214.6563 734.3594,214.5469 Q734.5469,214.4375 734.7656,214.4375 Q735.1406,214.4375 735.375,214.6953 Q735.6094,214.9531 735.6094,215.5625 L735.6094,217.0156 Q735.6094,217.625 735.375,217.8906 Q735.1406,218.1563 734.7656,218.1563 Q734.4219,218.1563 734.2188,217.9531 Q734.0156,217.7656 733.9063,217.25 Q733.8594,216.8906 733.6719,216.7031 Q733.3438,216.3281 732.7344,216.1094 Q732.125,215.8906 731.5,215.8906 Q730.7344,215.8906 730.1016,216.2188 Q729.4688,216.5469 728.9766,217.2969 Q728.4844,218.0469 728.4844,219.0781 L728.4844,220.1719 Q728.4844,221.4063 729.375,222.2266 Q730.2656,223.0469 731.8594,223.0469 Q732.7969,223.0469 733.4531,222.7969 Q733.8438,222.6406 734.2656,222.2031 Q734.5313,221.9375 734.6797,221.8594 Q734.8281,221.7813 735.0313,221.7813 Q735.3594,221.7813 735.6172,222.0391 Q735.875,222.2969 735.875,222.6406 Q735.875,222.9844 735.5313,223.3906 Q735.0313,223.9688 734.2344,224.2969 Q733.1563,224.75 731.8594,224.75 Q730.3438,224.75 729.1406,224.125 Q728.1563,223.625 727.4688,222.5547 Q726.7813,221.4844 726.7813,220.2031 L726.7813,219.0469 Q726.7813,217.7188 727.3984,216.5703 Q728.0156,215.4219 729.1094,214.8047 Q730.2031,214.1875 731.4375,214.1875 Q732.1719,214.1875 732.8203,214.3516 Q733.4688,214.5156 734.0156,214.875 Z " fill="#000000"/><text fill="#000000" font-family="sans-serif" font-size="14" lengthAdjust="spacing" textLength="29" x="751.75" y="224.7285">User</text><line style="stroke:#181818;stroke-width:0.5;" x1="670.5" x2="829.5" y1="235" y2="235"/><rect fill="none" height="6" style="stroke:#C82930;stroke-width:1.0;" width="6" x="677.5" y="246.3047"/><text fill="#000000" font-family="sans-serif" font-size="14" lengthAdjust="spacing" textLength="34" x="689.5" y="253.5332">id: int</text><rect fill="none" height="6" style="stroke:#C82930;stroke-width:1.0;" width="6" x="677.5" y="263.9141"/><text fill="#000000" font-family="sans-serif" font-size="14" lengthAdjust="spacing" textLength="106" x="689.5" y="271.1426">username: string</text><rect fill="none" height="6" style="stroke:#C82930;stroke-width:1.0;" width="6" x="677.5" y="281.5234"/><text fill="#000000" font-family="sans-serif" font-size="14" lengthAdjust="spacing" textLength="76" x="689.5" y="288.752">email: string</text><rect fill="none" height="6" style="stroke:#C82930;stroke-width:1.0;" width="6" x="677.5" y="299.1328"/><text fill="#000000" font-family="sans-serif" font-size="14" lengthAdjust="spacing" textLength="135" x="689.5" y="306.3613">passwordHash: string</text><rect fill="none" height="6" style="stroke:#C82930;stroke-width:1.0;" width="6" x="677.5" y="316.7422"/><text fill="#000000" font-family="sans-serif" font-size="14" lengthAdjust="spacing" textLength="100" x="689.5" y="323.9707">isPremium: bool</text><line style="stroke:#181818;stroke-width:0.5;" x1="670.5" x2="829.5" y1="331.0469" y2="331.0469"/></g><!--class Message--><g id="elem_Message"><rect codeLine="10" fill="#F1F1F1" height="100.8281" id="Message" rx="2.5" ry="2.5" style="stroke:#181818;stroke-width:0.5;" width="156" x="422" y="613"/><ellipse cx="467.25" cy="629" fill="#ADD1B2" rx="11" ry="11" style="stroke:#181818;stroke-width:1.0;"/><path d="M470.0156,624.875 Q470.1719,624.6563 470.3594,624.5469 Q470.5469,624.4375 470.7656,624.4375 Q471.1406,624.4375 471.375,624.6953 Q471.6094,624.9531 471.6094,625.5625 L471.6094,627.0156 Q471.6094,627.625 471.375,627.8906 Q471.1406,628.1563 470.7656,628.1563 Q470.4219,628.1563 470.2188,627.9531 Q470.0156,627.7656 469.9063,627.25 Q469.8594,626.8906 469.6719,626.7031 Q469.3438,626.3281 468.7344,626.1094 Q468.125,625.8906 467.5,625.8906 Q466.7344,625.8906 466.1016,626.2188 Q465.4688,626.5469 464.9766,627.2969 Q464.4844,628.0469 464.4844,629.0781 L464.4844,630.1719 Q464.4844,631.4063 465.375,632.2266 Q466.2656,633.0469 467.8594,633.0469 Q468.7969,633.0469 469.4531,632.7969 Q469.8438,632.6406 470.2656,632.2031 Q470.5313,631.9375 470.6797,631.8594 Q470.8281,631.7813 471.0313,631.7813 Q471.3594,631.7813 471.6172,632.0391 Q471.875,632.2969 471.875,632.6406 Q471.875,632.9844 471.5313,633.3906 Q471.0313,633.9688 470.2344,634.2969 Q469.1563,634.75 467.8594,634.75 Q466.3438,634.75 465.1406,634.125 Q464.1563,633.625 463.4688,632.5547 Q462.7813,631.4844 462.7813,630.2031 L462.7813,629.0469 Q462.7813,627.7188 463.3984,626.5703 Q464.0156,625.4219 465.1094,624.8047 Q466.2031,624.1875 467.4375,624.1875 Q468.1719,624.1875 468.8203,624.3516 Q469.4688,624.5156 470.0156,624.875 Z " fill="#000000"/><text fill="#000000" font-family="sans-serif" font-size="14" lengthAdjust="spacing" textLength="57" x="487.75" y="634.7285">Message</text><line style="stroke:#181818;stroke-width:0.5;" x1="423" x2="577" y1="645" y2="645"/><rect fill="none" height="6" style="stroke:#C82930;stroke-width:1.0;" width="6" x="430" y="656.3047"/><text fill="#000000" font-family="sans-serif" font-size="14" lengthAdjust="spacing" textLength="34" x="442" y="663.5332">id: int</text><rect fill="none" height="6" style="stroke:#C82930;stroke-width:1.0;" width="6" x="430" y="673.9141"/><text fill="#000000" font-family="sans-serif" font-size="14" lengthAdjust="spacing" textLength="90" x="442" y="681.1426">content: string</text><rect fill="none" height="6" style="stroke:#C82930;stroke-width:1.0;" width="6" x="430" y="691.5234"/><text fill="#000000" font-family="sans-serif" font-size="14" lengthAdjust="spacing" textLength="130" x="442" y="698.752">createdAt: DateTime</text><line style="stroke:#181818;stroke-width:0.5;" x1="423" x2="577" y1="705.8281" y2="705.8281"/></g><!--class ChatRoom--><g id="elem_ChatRoom"><rect codeLine="16" fill="#F1F1F1" height="100.8281" id="ChatRoom" rx="2.5" ry="2.5" style="stroke:#181818;stroke-width:0.5;" width="156" x="672" y="425.5"/><ellipse cx="712.65" cy="441.5" fill="#ADD1B2" rx="11" ry="11" style="stroke:#181818;stroke-width:1.0;"/><path d="M715.4156,437.375 Q715.5719,437.1563 715.7594,437.0469 Q715.9469,436.9375 716.1656,436.9375 Q716.5406,436.9375 716.775,437.1953 Q717.0094,437.4531 717.0094,438.0625 L717.0094,439.5156 Q717.0094,440.125 716.775,440.3906 Q716.5406,440.6563 716.1656,440.6563 Q715.8219,440.6563 715.6188,440.4531 Q715.4156,440.2656 715.3063,439.75 Q715.2594,439.3906 715.0719,439.2031 Q714.7438,438.8281 714.1344,438.6094 Q713.525,438.3906 712.9,438.3906 Q712.1344,438.3906 711.5016,438.7188 Q710.8688,439.0469 710.3766,439.7969 Q709.8844,440.5469 709.8844,441.5781 L709.8844,442.6719 Q709.8844,443.9063 710.775,444.7266 Q711.6656,445.5469 713.2594,445.5469 Q714.1969,445.5469 714.8531,445.2969 Q715.2438,445.1406 715.6656,444.7031 Q715.9313,444.4375 716.0797,444.3594 Q716.2281,444.2813 716.4313,444.2813 Q716.7594,444.2813 717.0172,444.5391 Q717.275,444.7969 717.275,445.1406 Q717.275,445.4844 716.9313,445.8906 Q716.4313,446.4688 715.6344,446.7969 Q714.5563,447.25 713.2594,447.25 Q711.7438,447.25 710.5406,446.625 Q709.5563,446.125 708.8688,445.0547 Q708.1813,443.9844 708.1813,442.7031 L708.1813,441.5469 Q708.1813,440.2188 708.7984,439.0703 Q709.4156,437.9219 710.5094,437.3047 Q711.6031,436.6875 712.8375,436.6875 Q713.5719,436.6875 714.2203,436.8516 Q714.8688,437.0156 715.4156,437.375 Z " fill="#000000"/><text fill="#000000" font-family="sans-serif" font-size="14" lengthAdjust="spacing" textLength="67" x="732.35" y="447.2285">ChatRoom</text><line style="stroke:#181818;stroke-width:0.5;" x1="673" x2="827" y1="457.5" y2="457.5"/><rect fill="none" height="6" style="stroke:#C82930;stroke-width:1.0;" width="6" x="680" y="468.8047"/><text fill="#000000" font-family="sans-serif" font-size="14" lengthAdjust="spacing" textLength="34" x="692" y="476.0332">id: int</text><rect fill="none" height="6" style="stroke:#C82930;stroke-width:1.0;" width="6" x="680" y="486.4141"/><text fill="#000000" font-family="sans-serif" font-size="14" lengthAdjust="spacing" textLength="78" x="692" y="493.6426">name: string</text><rect fill="none" height="6" style="stroke:#C82930;stroke-width:1.0;" width="6" x="680" y="504.0234"/><text fill="#000000" font-family="sans-serif" font-size="14" lengthAdjust="spacing" textLength="130" x="692" y="511.252">createdAt: DateTime</text><line style="stroke:#181818;stroke-width:0.5;" x1="673" x2="827" y1="518.3281" y2="518.3281"/></g><!--class Attachment--><g id="elem_Attachment"><rect codeLine="22" fill="#F1F1F1" height="83.2188" id="Attachment" rx="2.5" ry="2.5" style="stroke:#181818;stroke-width:0.5;" width="119" x="131.5" y="792"/><ellipse cx="153.7" cy="808" fill="#ADD1B2" rx="11" ry="11" style="stroke:#181818;stroke-width:1.0;"/><path d="M156.4656,803.875 Q156.6219,803.6563 156.8094,803.5469 Q156.9969,803.4375 157.2156,803.4375 Q157.5906,803.4375 157.825,803.6953 Q158.0594,803.9531 158.0594,804.5625 L158.0594,806.0156 Q158.0594,806.625 157.825,806.8906 Q157.5906,807.1563 157.2156,807.1563 Q156.8719,807.1563 156.6688,806.9531 Q156.4656,806.7656 156.3563,806.25 Q156.3094,805.8906 156.1219,805.7031 Q155.7938,805.3281 155.1844,805.1094 Q154.575,804.8906 153.95,804.8906 Q153.1844,804.8906 152.5516,805.2188 Q151.9188,805.5469 151.4266,806.2969 Q150.9344,807.0469 150.9344,808.0781 L150.9344,809.1719 Q150.9344,810.4063 151.825,811.2266 Q152.7156,812.0469 154.3094,812.0469 Q155.2469,812.0469 155.9031,811.7969 Q156.2938,811.6406 156.7156,811.2031 Q156.9813,810.9375 157.1297,810.8594 Q157.2781,810.7813 157.4813,810.7813 Q157.8094,810.7813 158.0672,811.0391 Q158.325,811.2969 158.325,811.6406 Q158.325,811.9844 157.9813,812.3906 Q157.4813,812.9688 156.6844,813.2969 Q155.6063,813.75 154.3094,813.75 Q152.7938,813.75 151.5906,813.125 Q150.6063,812.625 149.9188,811.5547 Q149.2313,810.4844 149.2313,809.2031 L149.2313,808.0469 Q149.2313,806.7188 149.8484,805.5703 Q150.4656,804.4219 151.5594,803.8047 Q152.6531,803.1875 153.8875,803.1875 Q154.6219,803.1875 155.2703,803.3516 Q155.9188,803.5156 156.4656,803.875 Z " fill="#000000"/><text fill="#000000" font-family="sans-serif" font-size="14" lengthAdjust="spacing" textLength="71" x="169.3" y="813.7285">Attachment</text><line style="stroke:#181818;stroke-width:0.5;" x1="132.5" x2="249.5" y1="824" y2="824"/><rect fill="none" height="6" style="stroke:#C82930;stroke-width:1.0;" width="6" x="139.5" y="835.3047"/><text fill="#000000" font-family="sans-serif" font-size="14" lengthAdjust="spacing" textLength="34" x="151.5" y="842.5332">id: int</text><rect fill="none" height="6" style="stroke:#C82930;stroke-width:1.0;" width="6" x="139.5" y="852.9141"/><text fill="#000000" font-family="sans-serif" font-size="14" lengthAdjust="spacing" textLength="93" x="151.5" y="860.1426">fileType: string</text><line style="stroke:#181818;stroke-width:0.5;" x1="132.5" x2="249.5" y1="867.2188" y2="867.2188"/></g><!--class Notification--><g id="elem_Notification"><rect codeLine="27" fill="#F1F1F1" height="100.8281" id="Notification" rx="2.5" ry="2.5" style="stroke:#181818;stroke-width:0.5;" width="135" x="1150.5" y="425.5"/><ellipse cx="1180.8" cy="441.5" fill="#ADD1B2" rx="11" ry="11" style="stroke:#181818;stroke-width:1.0;"/><path d="M1183.5656,437.375 Q1183.7219,437.1563 1183.9094,437.0469 Q1184.0969,436.9375 1184.3156,436.9375 Q1184.6906,436.9375 1184.925,437.1953 Q1185.1594,437.4531 1185.1594,438.0625 L1185.1594,439.5156 Q1185.1594,440.125 1184.925,440.3906 Q1184.6906,440.6563 1184.3156,440.6563 Q1183.9719,440.6563 1183.7688,440.4531 Q1183.5656,440.2656 1183.4563,439.75 Q1183.4094,439.3906 1183.2219,439.2031 Q1182.8938,438.8281 1182.2844,438.6094 Q1181.675,438.3906 1181.05,438.3906 Q1180.2844,438.3906 1179.6516,438.7188 Q1179.0188,439.0469 1178.5266,439.7969 Q1178.0344,440.5469 1178.0344,441.5781 L1178.0344,442.6719 Q1178.0344,443.9063 1178.925,444.7266 Q1179.8156,445.5469 1181.4094,445.5469 Q1182.3469,445.5469 1183.0031,445.2969 Q1183.3938,445.1406 1183.8156,444.7031 Q1184.0813,444.4375 1184.2297,444.3594 Q1184.3781,444.2813 1184.5813,444.2813 Q1184.9094,444.2813 1185.1672,444.5391 Q1185.425,444.7969 1185.425,445.1406 Q1185.425,445.4844 1185.0813,445.8906 Q1184.5813,446.4688 1183.7844,446.7969 Q1182.7063,447.25 1181.4094,447.25 Q1179.8938,447.25 1178.6906,446.625 Q1177.7063,446.125 1177.0188,445.0547 Q1176.3313,443.9844 1176.3313,442.7031 L1176.3313,441.5469 Q1176.3313,440.2188 1176.9484,439.0703 Q1177.5656,437.9219 1178.6594,437.3047 Q1179.7531,436.6875 1180.9875,436.6875 Q1181.7219,436.6875 1182.3703,436.8516 Q1183.0188,437.0156 1183.5656,437.375 Z " fill="#000000"/><text fill="#000000" font-family="sans-serif" font-size="14" lengthAdjust="spacing" textLength="69" x="1198.2" y="447.2285">Notification</text><line style="stroke:#181818;stroke-width:0.5;" x1="1151.5" x2="1284.5" y1="457.5" y2="457.5"/><rect fill="none" height="6" style="stroke:#C82930;stroke-width:1.0;" width="6" x="1158.5" y="468.8047"/><text fill="#000000" font-family="sans-serif" font-size="14" lengthAdjust="spacing" textLength="34" x="1170.5" y="476.0332">id: int</text><rect fill="none" height="6" style="stroke:#C82930;stroke-width:1.0;" width="6" x="1158.5" y="486.4141"/><text fill="#000000" font-family="sans-serif" font-size="14" lengthAdjust="spacing" textLength="90" x="1170.5" y="493.6426">content: string</text><rect fill="none" height="6" style="stroke:#C82930;stroke-width:1.0;" width="6" x="1158.5" y="504.0234"/><text fill="#000000" font-family="sans-serif" font-size="14" lengthAdjust="spacing" textLength="109" x="1170.5" y="511.252">sentAt: DateTime</text><line style="stroke:#181818;stroke-width:0.5;" x1="1151.5" x2="1284.5" y1="518.3281" y2="518.3281"/></g><!--class AuthService--><g id="elem_AuthService"><rect codeLine="33" fill="#F1F1F1" height="118.4375" id="AuthService" rx="2.5" ry="2.5" style="stroke:#181818;stroke-width:0.5;" width="366" x="338" y="7"/><ellipse cx="478.75" cy="23" fill="#ADD1B2" rx="11" ry="11" style="stroke:#181818;stroke-width:1.0;"/><path d="M481.5156,18.875 Q481.6719,18.6563 481.8594,18.5469 Q482.0469,18.4375 482.2656,18.4375 Q482.6406,18.4375 482.875,18.6953 Q483.1094,18.9531 483.1094,19.5625 L483.1094,21.0156 Q483.1094,21.625 482.875,21.8906 Q482.6406,22.1563 482.2656,22.1563 Q481.9219,22.1563 481.7188,21.9531 Q481.5156,21.7656 481.4063,21.25 Q481.3594,20.8906 481.1719,20.7031 Q480.8438,20.3281 480.2344,20.1094 Q479.625,19.8906 479,19.8906 Q478.2344,19.8906 477.6016,20.2188 Q476.9688,20.5469 476.4766,21.2969 Q475.9844,22.0469 475.9844,23.0781 L475.9844,24.1719 Q475.9844,25.4063 476.875,26.2266 Q477.7656,27.0469 479.3594,27.0469 Q480.2969,27.0469 480.9531,26.7969 Q481.3438,26.6406 481.7656,26.2031 Q482.0313,25.9375 482.1797,25.8594 Q482.3281,25.7813 482.5313,25.7813 Q482.8594,25.7813 483.1172,26.0391 Q483.375,26.2969 483.375,26.6406 Q483.375,26.9844 483.0313,27.3906 Q482.5313,27.9688 481.7344,28.2969 Q480.6563,28.75 479.3594,28.75 Q477.8438,28.75 476.6406,28.125 Q475.6563,27.625 474.9688,26.5547 Q474.2813,25.4844 474.2813,24.2031 L474.2813,23.0469 Q474.2813,21.7188 474.8984,20.5703 Q475.5156,19.4219 476.6094,18.8047 Q477.7031,18.1875 478.9375,18.1875 Q479.6719,18.1875 480.3203,18.3516 Q480.9688,18.5156 481.5156,18.875 Z " fill="#000000"/><text fill="#000000" font-family="sans-serif" font-size="14" lengthAdjust="spacing" textLength="76" x="499.25" y="28.7285">AuthService</text><line style="stroke:#181818;stroke-width:0.5;" x1="339" x2="703" y1="39" y2="39"/><line style="stroke:#181818;stroke-width:0.5;" x1="339" x2="703" y1="47" y2="47"/><ellipse cx="349" cy="61.3047" fill="#84BE84" rx="3" ry="3" style="stroke:#038048;stroke-width:1.0;"/><text fill="#000000" font-family="sans-serif" font-size="14" lengthAdjust="spacing" textLength="340" x="358" y="65.5332">authenticate(username: string, password: string): bool</text><ellipse cx="349" cy="78.9141" fill="#84BE84" rx="3" ry="3" style="stroke:#038048;stroke-width:1.0;"/><text fill="#000000" font-family="sans-serif" font-size="14" lengthAdjust="spacing" textLength="215" x="358" y="83.1426">generateToken(user: User): string</text><ellipse cx="349" cy="96.5234" fill="#84BE84" rx="3" ry="3" style="stroke:#038048;stroke-width:1.0;"/><text fill="#000000" font-family="sans-serif" font-size="14" lengthAdjust="spacing" textLength="248" x="358" y="100.752">hashPassword(password: string): string</text><ellipse cx="349" cy="114.1328" fill="#84BE84" rx="3" ry="3" style="stroke:#038048;stroke-width:1.0;"/><text fill="#000000" font-family="sans-serif" font-size="14" lengthAdjust="spacing" textLength="325" x="358" y="118.3613">verifyPassword(password: string, hash: string): bool</text></g><!--class MessageService--><g id="elem_MessageService"><rect codeLine="40" fill="#F1F1F1" height="118.4375" id="MessageService" rx="2.5" ry="2.5" style="stroke:#181818;stroke-width:0.5;" width="364" x="83" y="417"/><ellipse cx="208.75" cy="433" fill="#ADD1B2" rx="11" ry="11" style="stroke:#181818;stroke-width:1.0;"/><path d="M211.5156,428.875 Q211.6719,428.6563 211.8594,428.5469 Q212.0469,428.4375 212.2656,428.4375 Q212.6406,428.4375 212.875,428.6953 Q213.1094,428.9531 213.1094,429.5625 L213.1094,431.0156 Q213.1094,431.625 212.875,431.8906 Q212.6406,432.1563 212.2656,432.1563 Q211.9219,432.1563 211.7188,431.9531 Q211.5156,431.7656 211.4063,431.25 Q211.3594,430.8906 211.1719,430.7031 Q210.8438,430.3281 210.2344,430.1094 Q209.625,429.8906 209,429.8906 Q208.2344,429.8906 207.6016,430.2188 Q206.9688,430.5469 206.4766,431.2969 Q205.9844,432.0469 205.9844,433.0781 L205.9844,434.1719 Q205.9844,435.4063 206.875,436.2266 Q207.7656,437.0469 209.3594,437.0469 Q210.2969,437.0469 210.9531,436.7969 Q211.3438,436.6406 211.7656,436.2031 Q212.0313,435.9375 212.1797,435.8594 Q212.3281,435.7813 212.5313,435.7813 Q212.8594,435.7813 213.1172,436.0391 Q213.375,436.2969 213.375,436.6406 Q213.375,436.9844 213.0313,437.3906 Q212.5313,437.9688 211.7344,438.2969 Q210.6563,438.75 209.3594,438.75 Q207.8438,438.75 206.6406,438.125 Q205.6563,437.625 204.9688,436.5547 Q204.2813,435.4844 204.2813,434.2031 L204.2813,433.0469 Q204.2813,431.7188 204.8984,430.5703 Q205.5156,429.4219 206.6094,428.8047 Q207.7031,428.1875 208.9375,428.1875 Q209.6719,428.1875 210.3203,428.3516 Q210.9688,428.5156 211.5156,428.875 Z " fill="#000000"/><text fill="#000000" font-family="sans-serif" font-size="14" lengthAdjust="spacing" textLength="104" x="229.25" y="438.7285">MessageService</text><line style="stroke:#181818;stroke-width:0.5;" x1="84" x2="446" y1="449" y2="449"/><line style="stroke:#181818;stroke-width:0.5;" x1="84" x2="446" y1="457" y2="457"/><ellipse cx="94" cy="471.3047" fill="#84BE84" rx="3" ry="3" style="stroke:#038048;stroke-width:1.0;"/><text fill="#000000" font-family="sans-serif" font-size="14" lengthAdjust="spacing" textLength="270" x="103" y="475.5332">createMessage(content: string, user: User)</text><ellipse cx="94" cy="488.9141" fill="#84BE84" rx="3" ry="3" style="stroke:#038048;stroke-width:1.0;"/><text fill="#000000" font-family="sans-serif" font-size="14" lengthAdjust="spacing" textLength="233" x="103" y="493.1426">getMessages(chatRoom: ChatRoom)</text><ellipse cx="94" cy="506.5234" fill="#84BE84" rx="3" ry="3" style="stroke:#038048;stroke-width:1.0;"/><text fill="#000000" font-family="sans-serif" font-size="14" lengthAdjust="spacing" textLength="338" x="103" y="510.752">editMessage(message: Message, newContent: string)</text><ellipse cx="94" cy="524.1328" fill="#84BE84" rx="3" ry="3" style="stroke:#038048;stroke-width:1.0;"/><text fill="#000000" font-family="sans-serif" font-size="14" lengthAdjust="spacing" textLength="228" x="103" y="528.3613">deleteMessage(message: Message)</text></g><!--class UserService--><g id="elem_UserService"><rect codeLine="47" fill="#F1F1F1" height="118.4375" id="UserService" rx="2.5" ry="2.5" style="stroke:#181818;stroke-width:0.5;" width="326" x="739" y="7"/><ellipse cx="859.75" cy="23" fill="#ADD1B2" rx="11" ry="11" style="stroke:#181818;stroke-width:1.0;"/><path d="M862.5156,18.875 Q862.6719,18.6563 862.8594,18.5469 Q863.0469,18.4375 863.2656,18.4375 Q863.6406,18.4375 863.875,18.6953 Q864.1094,18.9531 864.1094,19.5625 L864.1094,21.0156 Q864.1094,21.625 863.875,21.8906 Q863.6406,22.1563 863.2656,22.1563 Q862.9219,22.1563 862.7188,21.9531 Q862.5156,21.7656 862.4063,21.25 Q862.3594,20.8906 862.1719,20.7031 Q861.8438,20.3281 861.2344,20.1094 Q860.625,19.8906 860,19.8906 Q859.2344,19.8906 858.6016,20.2188 Q857.9688,20.5469 857.4766,21.2969 Q856.9844,22.0469 856.9844,23.0781 L856.9844,24.1719 Q856.9844,25.4063 857.875,26.2266 Q858.7656,27.0469 860.3594,27.0469 Q861.2969,27.0469 861.9531,26.7969 Q862.3438,26.6406 862.7656,26.2031 Q863.0313,25.9375 863.1797,25.8594 Q863.3281,25.7813 863.5313,25.7813 Q863.8594,25.7813 864.1172,26.0391 Q864.375,26.2969 864.375,26.6406 Q864.375,26.9844 864.0313,27.3906 Q863.5313,27.9688 862.7344,28.2969 Q861.6563,28.75 860.3594,28.75 Q858.8438,28.75 857.6406,28.125 Q856.6563,27.625 855.9688,26.5547 Q855.2813,25.4844 855.2813,24.2031 L855.2813,23.0469 Q855.2813,21.7188 855.8984,20.5703 Q856.5156,19.4219 857.6094,18.8047 Q858.7031,18.1875 859.9375,18.1875 Q860.6719,18.1875 861.3203,18.3516 Q861.9688,18.5156 862.5156,18.875 Z " fill="#000000"/><text fill="#000000" font-family="sans-serif" font-size="14" lengthAdjust="spacing" textLength="76" x="880.25" y="28.7285">UserService</text><line style="stroke:#181818;stroke-width:0.5;" x1="740" x2="1064" y1="39" y2="39"/><line style="stroke:#181818;stroke-width:0.5;" x1="740" x2="1064" y1="47" y2="47"/><ellipse cx="750" cy="61.3047" fill="#84BE84" rx="3" ry="3" style="stroke:#038048;stroke-width:1.0;"/><text fill="#000000" font-family="sans-serif" font-size="14" lengthAdjust="spacing" textLength="123" x="759" y="65.5332">register(user: User)</text><ellipse cx="750" cy="78.9141" fill="#84BE84" rx="3" ry="3" style="stroke:#038048;stroke-width:1.0;"/><text fill="#000000" font-family="sans-serif" font-size="14" lengthAdjust="spacing" textLength="300" x="759" y="83.1426">login(username: string, password: string): string</text><ellipse cx="750" cy="96.5234" fill="#84BE84" rx="3" ry="3" style="stroke:#038048;stroke-width:1.0;"/><text fill="#000000" font-family="sans-serif" font-size="14" lengthAdjust="spacing" textLength="159" x="759" y="100.752">updateProfile(user: User)</text><ellipse cx="750" cy="114.1328" fill="#84BE84" rx="3" ry="3" style="stroke:#038048;stroke-width:1.0;"/><text fill="#000000" font-family="sans-serif" font-size="14" lengthAdjust="spacing" textLength="189" x="759" y="118.3613">getUserByID(userID: int): User</text></g><!--class StorageService--><g id="elem_StorageService"><rect codeLine="54" fill="#F1F1F1" height="83.2188" id="StorageService" rx="2.5" ry="2.5" style="stroke:#181818;stroke-width:0.5;" width="197" x="92.5" y="622"/><ellipse cx="138.25" cy="638" fill="#ADD1B2" rx="11" ry="11" style="stroke:#181818;stroke-width:1.0;"/><path d="M141.0156,633.875 Q141.1719,633.6563 141.3594,633.5469 Q141.5469,633.4375 141.7656,633.4375 Q142.1406,633.4375 142.375,633.6953 Q142.6094,633.9531 142.6094,634.5625 L142.6094,636.0156 Q142.6094,636.625 142.375,636.8906 Q142.1406,637.1563 141.7656,637.1563 Q141.4219,637.1563 141.2188,636.9531 Q141.0156,636.7656 140.9063,636.25 Q140.8594,635.8906 140.6719,635.7031 Q140.3438,635.3281 139.7344,635.1094 Q139.125,634.8906 138.5,634.8906 Q137.7344,634.8906 137.1016,635.2188 Q136.4688,635.5469 135.9766,636.2969 Q135.4844,637.0469 135.4844,638.0781 L135.4844,639.1719 Q135.4844,640.4063 136.375,641.2266 Q137.2656,642.0469 138.8594,642.0469 Q139.7969,642.0469 140.4531,641.7969 Q140.8438,641.6406 141.2656,641.2031 Q141.5313,640.9375 141.6797,640.8594 Q141.8281,640.7813 142.0313,640.7813 Q142.3594,640.7813 142.6172,641.0391 Q142.875,641.2969 142.875,641.6406 Q142.875,641.9844 142.5313,642.3906 Q142.0313,642.9688 141.2344,643.2969 Q140.1563,643.75 138.8594,643.75 Q137.3438,643.75 136.1406,643.125 Q135.1563,642.625 134.4688,641.5547 Q133.7813,640.4844 133.7813,639.2031 L133.7813,638.0469 Q133.7813,636.7188 134.3984,635.5703 Q135.0156,634.4219 136.1094,633.8047 Q137.2031,633.1875 138.4375,633.1875 Q139.1719,633.1875 139.8203,633.3516 Q140.4688,633.5156 141.0156,633.875 Z " fill="#000000"/><text fill="#000000" font-family="sans-serif" font-size="14" lengthAdjust="spacing" textLength="97" x="158.75" y="643.7285">StorageService</text><line style="stroke:#181818;stroke-width:0.5;" x1="93.5" x2="288.5" y1="654" y2="654"/><line style="stroke:#181818;stroke-width:0.5;" x1="93.5" x2="288.5" y1="662" y2="662"/><ellipse cx="103.5" cy="676.3047" fill="#84BE84" rx="3" ry="3" style="stroke:#038048;stroke-width:1.0;"/><text fill="#000000" font-family="sans-serif" font-size="14" lengthAdjust="spacing" textLength="155" x="112.5" y="680.5332">storeFile(filePath: string)</text><ellipse cx="103.5" cy="693.9141" fill="#84BE84" rx="3" ry="3" style="stroke:#038048;stroke-width:1.0;"/><text fill="#000000" font-family="sans-serif" font-size="14" lengthAdjust="spacing" textLength="171" x="112.5" y="698.1426">retrieveFile(filePath: string)</text></g><!--class NotificationService--><g id="elem_NotificationService"><rect codeLine="59" fill="#F1F1F1" height="83.2188" id="NotificationService" rx="2.5" ry="2.5" style="stroke:#181818;stroke-width:0.5;" width="446" x="1100" y="24.5"/><ellipse cx="1260.75" cy="40.5" fill="#ADD1B2" rx="11" ry="11" style="stroke:#181818;stroke-width:1.0;"/><path d="M1263.5156,36.375 Q1263.6719,36.1563 1263.8594,36.0469 Q1264.0469,35.9375 1264.2656,35.9375 Q1264.6406,35.9375 1264.875,36.1953 Q1265.1094,36.4531 1265.1094,37.0625 L1265.1094,38.5156 Q1265.1094,39.125 1264.875,39.3906 Q1264.6406,39.6563 1264.2656,39.6563 Q1263.9219,39.6563 1263.7188,39.4531 Q1263.5156,39.2656 1263.4063,38.75 Q1263.3594,38.3906 1263.1719,38.2031 Q1262.8438,37.8281 1262.2344,37.6094 Q1261.625,37.3906 1261,37.3906 Q1260.2344,37.3906 1259.6016,37.7188 Q1258.9688,38.0469 1258.4766,38.7969 Q1257.9844,39.5469 1257.9844,40.5781 L1257.9844,41.6719 Q1257.9844,42.9063 1258.875,43.7266 Q1259.7656,44.5469 1261.3594,44.5469 Q1262.2969,44.5469 1262.9531,44.2969 Q1263.3438,44.1406 1263.7656,43.7031 Q1264.0313,43.4375 1264.1797,43.3594 Q1264.3281,43.2813 1264.5313,43.2813 Q1264.8594,43.2813 1265.1172,43.5391 Q1265.375,43.7969 1265.375,44.1406 Q1265.375,44.4844 1265.0313,44.8906 Q1264.5313,45.4688 1263.7344,45.7969 Q1262.6563,46.25 1261.3594,46.25 Q1259.8438,46.25 1258.6406,45.625 Q1257.6563,45.125 1256.9688,44.0547 Q1256.2813,42.9844 1256.2813,41.7031 L1256.2813,40.5469 Q1256.2813,39.2188 1256.8984,38.0703 Q1257.5156,36.9219 1258.6094,36.3047 Q1259.7031,35.6875 1260.9375,35.6875 Q1261.6719,35.6875 1262.3203,35.8516 Q1262.9688,36.0156 1263.5156,36.375 Z " fill="#000000"/><text fill="#000000" font-family="sans-serif" font-size="14" lengthAdjust="spacing" textLength="116" x="1281.25" y="46.2285">NotificationService</text><line style="stroke:#181818;stroke-width:0.5;" x1="1101" x2="1545" y1="56.5" y2="56.5"/><line style="stroke:#181818;stroke-width:0.5;" x1="1101" x2="1545" y1="64.5" y2="64.5"/><ellipse cx="1111" cy="78.8047" fill="#84BE84" rx="3" ry="3" style="stroke:#038048;stroke-width:1.0;"/><text fill="#000000" font-family="sans-serif" font-size="14" lengthAdjust="spacing" textLength="273" x="1120" y="83.0332">sendNotification(user: User, content: string)</text><ellipse cx="1111" cy="96.4141" fill="#84BE84" rx="3" ry="3" style="stroke:#038048;stroke-width:1.0;"/><text fill="#000000" font-family="sans-serif" font-size="14" lengthAdjust="spacing" textLength="420" x="1120" y="100.6426">scheduleNotification(user: User, content: string, sendAt: DateTime)</text></g><!--class Database--><g id="elem_Database"><rect codeLine="64" fill="#F1F1F1" height="100.8281" id="Database" rx="2.5" ry="2.5" style="stroke:#181818;stroke-width:0.5;" width="133" x="169.5" y="15.5"/><ellipse cx="202.5" cy="31.5" fill="#ADD1B2" rx="11" ry="11" style="stroke:#181818;stroke-width:1.0;"/><path d="M205.2656,27.375 Q205.4219,27.1563 205.6094,27.0469 Q205.7969,26.9375 206.0156,26.9375 Q206.3906,26.9375 206.625,27.1953 Q206.8594,27.4531 206.8594,28.0625 L206.8594,29.5156 Q206.8594,30.125 206.625,30.3906 Q206.3906,30.6563 206.0156,30.6563 Q205.6719,30.6563 205.4688,30.4531 Q205.2656,30.2656 205.1563,29.75 Q205.1094,29.3906 204.9219,29.2031 Q204.5938,28.8281 203.9844,28.6094 Q203.375,28.3906 202.75,28.3906 Q201.9844,28.3906 201.3516,28.7188 Q200.7188,29.0469 200.2266,29.7969 Q199.7344,30.5469 199.7344,31.5781 L199.7344,32.6719 Q199.7344,33.9063 200.625,34.7266 Q201.5156,35.5469 203.1094,35.5469 Q204.0469,35.5469 204.7031,35.2969 Q205.0938,35.1406 205.5156,34.7031 Q205.7813,34.4375 205.9297,34.3594 Q206.0781,34.2813 206.2813,34.2813 Q206.6094,34.2813 206.8672,34.5391 Q207.125,34.7969 207.125,35.1406 Q207.125,35.4844 206.7813,35.8906 Q206.2813,36.4688 205.4844,36.7969 Q204.4063,37.25 203.1094,37.25 Q201.5938,37.25 200.3906,36.625 Q199.4063,36.125 198.7188,35.0547 Q198.0313,33.9844 198.0313,32.7031 L198.0313,31.5469 Q198.0313,30.2188 198.6484,29.0703 Q199.2656,27.9219 200.3594,27.3047 Q201.4531,26.6875 202.6875,26.6875 Q203.4219,26.6875 204.0703,26.8516 Q204.7188,27.0156 205.2656,27.375 Z " fill="#000000"/><text fill="#000000" font-family="sans-serif" font-size="14" lengthAdjust="spacing" textLength="61" x="220.5" y="37.2285">Database</text><line style="stroke:#181818;stroke-width:0.5;" x1="170.5" x2="301.5" y1="47.5" y2="47.5"/><line style="stroke:#181818;stroke-width:0.5;" x1="170.5" x2="301.5" y1="55.5" y2="55.5"/><ellipse cx="180.5" cy="69.8047" fill="#84BE84" rx="3" ry="3" style="stroke:#038048;stroke-width:1.0;"/><text fill="#000000" font-family="sans-serif" font-size="14" lengthAdjust="spacing" textLength="60" x="189.5" y="74.0332">connect()</text><ellipse cx="180.5" cy="87.4141" fill="#84BE84" rx="3" ry="3" style="stroke:#038048;stroke-width:1.0;"/><text fill="#000000" font-family="sans-serif" font-size="14" lengthAdjust="spacing" textLength="107" x="189.5" y="91.6426">query(sql: string)</text><ellipse cx="180.5" cy="105.0234" fill="#84BE84" rx="3" ry="3" style="stroke:#038048;stroke-width:1.0;"/><text fill="#000000" font-family="sans-serif" font-size="14" lengthAdjust="spacing" textLength="43" x="189.5" y="109.252">close()</text></g><!--link UserService to User--><g id="link_UserService_User"><path codeLine="70" d="M858.44,125.17 C840.28,149.42 822.6754,172.9366 803.8654,198.0666 " fill="none" id="UserService-to-User" style="stroke:#181818;stroke-width:1.0;"/><polygon fill="#181818" points="800.27,202.87,808.8654,198.0618,803.2662,198.8671,802.4608,193.2679,800.27,202.87" style="stroke:#181818;stroke-width:1.0;"/><text fill="#000000" font-family="sans-serif" font-size="13" lengthAdjust="spacing" textLength="61" x="836" y="169.4951">&#1091;&#1087;&#1088;&#1072;&#1074;&#1083;&#1103;&#1077;&#1090;</text></g><!--link User to Message--><g id="link_User_Message"><path codeLine="71" d="M672.19,339.04 C648.54,362.08 623.85,389.13 605,417 C582.47,450.31 544.3953,545.6266 520.8153,607.2166 " fill="none" id="User-to-Message" style="stroke:#181818;stroke-width:1.0;"/><polygon fill="#181818" points="518.67,612.82,525.6235,605.8451,520.4577,608.1505,518.1523,602.9848,518.67,612.82" style="stroke:#181818;stroke-width:1.0;"/><text fill="#000000" font-family="sans-serif" font-size="13" lengthAdjust="spacing" textLength="47" x="606" y="481.4951">&#1089;&#1086;&#1079;&#1076;&#1072;&#1105;&#1090;</text></g><!--link Message to Attachment--><g id="link_Message_Attachment"><path codeLine="72" d="M439.77,714.06 C417.97,730.6 392.65,748.29 368,762 C330.57,782.82 291.3639,798.6117 256.1739,811.1117 " fill="none" id="Message-to-Attachment" style="stroke:#181818;stroke-width:1.0;"/><polygon fill="#181818" points="250.52,813.12,260.3397,813.8767,255.2316,811.4464,257.6619,806.3382,250.52,813.12" style="stroke:#181818;stroke-width:1.0;"/><text fill="#000000" font-family="sans-serif" font-size="13" lengthAdjust="spacing" textLength="57" x="396" y="758.4951">&#1089;&#1086;&#1076;&#1077;&#1088;&#1078;&#1080;&#1090;</text></g><!--link User to ChatRoom--><g id="link_User_ChatRoom"><path codeLine="73" d="M750,339.03 C750,367.21 750,393.41 750,419.4 " fill="none" id="User-to-ChatRoom" style="stroke:#181818;stroke-width:1.0;"/><polygon fill="#181818" points="750,425.4,754,416.4,750,420.4,746,416.4,750,425.4" style="stroke:#181818;stroke-width:1.0;"/><text fill="#000000" font-family="sans-serif" font-size="13" lengthAdjust="spacing" textLength="70" x="751" y="383.4951">&#1091;&#1095;&#1072;&#1089;&#1090;&#1074;&#1091;&#1077;&#1090; &#1074;</text></g><!--link ChatRoom to Message--><g id="link_ChatRoom_Message"><path codeLine="74" d="M687.9,526.52 C664.89,544.57 638.45,564.96 614,583 C600.7,592.81 591.2569,599.6071 577.3869,609.3671 " fill="none" id="ChatRoom-to-Message" style="stroke:#181818;stroke-width:1.0;"/><polygon fill="#181818" points="572.48,612.82,582.1423,610.912,576.5691,609.9426,577.5384,604.3694,572.48,612.82" style="stroke:#181818;stroke-width:1.0;"/><text fill="#000000" font-family="sans-serif" font-size="13" lengthAdjust="spacing" textLength="57" x="638" y="579.4951">&#1089;&#1086;&#1076;&#1077;&#1088;&#1078;&#1080;&#1090;</text></g><!--link User to Notification--><g id="link_User_Notification"><path codeLine="75" d="M830.72,307.01 C921.06,346.2 1060.3256,406.6022 1144.9256,443.3022 " fill="none" id="User-to-Notification" style="stroke:#181818;stroke-width:1.0;"/><polygon fill="#181818" points="1150.43,445.69,1143.7653,438.4387,1145.843,443.7001,1140.5815,445.7778,1150.43,445.69" style="stroke:#181818;stroke-width:1.0;"/><text fill="#000000" font-family="sans-serif" font-size="13" lengthAdjust="spacing" textLength="54" x="1013" y="383.4951">&#1087;&#1086;&#1083;&#1091;&#1095;&#1072;&#1077;&#1090;</text></g><!--link AuthService to User--><g id="link_AuthService_User"><path codeLine="76" d="M586.62,125.17 C613.98,149.42 641.43,173.76 669.78,198.89 " fill="none" id="AuthService-to-User" style="stroke:#181818;stroke-width:1.0;"/><polygon fill="#181818" points="674.27,202.87,670.1884,193.9067,670.5284,199.5533,664.8817,199.8933,674.27,202.87" style="stroke:#181818;stroke-width:1.0;"/><text fill="#000000" font-family="sans-serif" font-size="13" lengthAdjust="spacing" textLength="101" x="637" y="169.4951">&#1072;&#1091;&#1090;&#1077;&#1085;&#1090;&#1080;&#1092;&#1080;&#1094;&#1080;&#1088;&#1091;&#1077;&#1090;</text></g><!--link MessageService to Message--><g id="link_MessageService_Message"><path codeLine="77" d="M338.71,535.18 C370.34,560.15 402.2108,585.302 432.5208,609.232 " fill="none" id="MessageService-to-Message" style="stroke:#181818;stroke-width:1.0;"/><polygon fill="#181818" points="437.23,612.95,432.6448,604.2336,433.3057,609.8517,427.6875,610.5125,437.23,612.95" style="stroke:#181818;stroke-width:1.0;"/><text fill="#000000" font-family="sans-serif" font-size="13" lengthAdjust="spacing" textLength="61" x="398" y="579.4951">&#1091;&#1087;&#1088;&#1072;&#1074;&#1083;&#1103;&#1077;&#1090;</text></g><!--link StorageService to Attachment--><g id="link_StorageService_Attachment"><path codeLine="78" d="M191,705.17 C191,731.48 191,759.62 191,785.92 " fill="none" id="StorageService-to-Attachment" style="stroke:#181818;stroke-width:1.0;"/><polygon fill="#181818" points="191,791.92,195,782.92,191,786.92,187,782.92,191,791.92" style="stroke:#181818;stroke-width:1.0;"/><text fill="#000000" font-family="sans-serif" font-size="13" lengthAdjust="spacing" textLength="167" x="192" y="758.4951">&#1086;&#1073;&#1088;&#1072;&#1073;&#1072;&#1090;&#1099;&#1074;&#1072;&#1077;&#1090; &#1095;&#1077;&#1088;&#1077;&#1079; filePath</text></g><!--link NotificationService to Notification--><g id="link_NotificationService_Notification"><path codeLine="79" d="M1312.55,107.61 C1293.17,182.89 1253.2452,338.0393 1232.2552,419.6093 " fill="none" id="NotificationService-to-Notification" style="stroke:#181818;stroke-width:1.0;"/><polygon fill="#181818" points="1230.76,425.42,1236.8767,417.7008,1232.006,420.5777,1229.1291,415.7071,1230.76,425.42" style="stroke:#181818;stroke-width:1.0;"/><text fill="#000000" font-family="sans-serif" font-size="13" lengthAdjust="spacing" textLength="47" x="1288" y="276.4951">&#1089;&#1086;&#1079;&#1076;&#1072;&#1105;&#1090;</text></g><!--link NotificationService to User--><g id="link_NotificationService_User"><path codeLine="80" d="M1208.42,107.59 C1096.56,147.22 934.8756,204.5064 836.3356,239.4164 " fill="none" id="NotificationService-to-User" style="stroke:#181818;stroke-width:1.0;"/><polygon fill="#181818" points="830.68,241.42,840.4991,242.185,835.393,239.7503,837.8276,234.6442,830.68,241.42" style="stroke:#181818;stroke-width:1.0;"/><text fill="#000000" font-family="sans-serif" font-size="13" lengthAdjust="spacing" textLength="150" x="1071" y="169.4951">&#1086;&#1090;&#1087;&#1088;&#1072;&#1074;&#1083;&#1103;&#1077;&#1090; &#1091;&#1074;&#1077;&#1076;&#1086;&#1084;&#1083;&#1077;&#1085;&#1080;&#1103;</text></g><!--link Database to User--><g id="link_Database_User"><path codeLine="81" d="M302.34,116.68 C308.14,119.82 314.07,122.65 320,125 C403.16,157.92 433.71,128.07 519,155 C571.23,171.49 620.9875,195.568 664.2275,219.248 " fill="none" id="Database-to-User" style="stroke:#181818;stroke-width:1.0;stroke-dasharray:7.0,7.0;"/><polygon fill="#181818" points="669.49,222.13,663.5175,214.2987,665.1046,219.7284,659.6749,221.3154,669.49,222.13" style="stroke:#181818;stroke-width:1.0;"/><text fill="#000000" font-family="sans-serif" font-size="13" lengthAdjust="spacing" textLength="40" x="567" y="169.4951">&#1093;&#1088;&#1072;&#1085;&#1080;&#1090;</text></g><!--link Database to Message--><g id="link_Database_Message"><path codeLine="82" d="M278.37,116.51 C331.11,181.07 419.63,299.65 464,417 C488.53,481.87 496.1446,556.2573 498.6446,606.9773 " fill="none" id="Database-to-Message" style="stroke:#181818;stroke-width:1.0;stroke-dasharray:7.0,7.0;"/><polygon fill="#181818" points="498.94,612.97,502.4921,603.784,498.6938,607.9761,494.5018,604.1778,498.94,612.97" style="stroke:#181818;stroke-width:1.0;"/><text fill="#000000" font-family="sans-serif" font-size="13" lengthAdjust="spacing" textLength="40" x="452" y="383.4951">&#1093;&#1088;&#1072;&#1085;&#1080;&#1090;</text></g><!--link Database to Attachment--><g id="link_Database_Attachment"><path codeLine="83" d="M169.47,92.4 C101.55,123.19 6,182.12 6,270 C6,270 6,270 6,664.5 C6,733.48 71.9841,778.9358 126.0641,805.4858 " fill="none" id="Database-to-Attachment" style="stroke:#181818;stroke-width:1.0;stroke-dasharray:7.0,7.0;"/><polygon fill="#181818" points="131.45,808.13,125.1339,800.5731,126.9617,805.9265,121.6083,807.7544,131.45,808.13" style="stroke:#181818;stroke-width:1.0;"/><text fill="#000000" font-family="sans-serif" font-size="13" lengthAdjust="spacing" textLength="40" x="7" y="481.4951">&#1093;&#1088;&#1072;&#1085;&#1080;&#1090;</text></g><!--SRC=[bLJBJjj05DtxAqPPEIBm0LvKeg2gB5f5XNw0iI_ngFOCp4o2egeIZpuMNQ3-2KIX857W5yP_rEln8-E9NT582VZEkUUS-_14QIWb-IX1aCyUmSyceN50A5FLqnIFM9X1GAGIb4sgC6GXJPtOCLATSX6_3MNY754v5f3HQHQGGyvJxuldHKRv7KWPJg17FE9C0LCEMIGWL11lOtmN_pcW6Qm8Tv9GVU0yws7iAEMVTDjAXL6IeOaUmYEQmi7yU4NQfBxdYXxHA5IKi_-gJsAenyrK9ViWPZIgExP1GenXGY44lZkjKJEKEZAi9b0cJu21A6Ju9s0cEp3BC6nPsY09ZdHSCVaTb2tm30GzclV2HuRDzUDkX5jcEQNgq7SQDoAMzQOqLQ6b7rLB4JJhKQCWfZNCpyg_GMrXH1YSxhILwhmOKbZPSJE7gt8AIsuj0YPKAX3-kkkKJoXxsHXRFPyUnzYUiU35FlgTtIWUNy_tTitftgxPms69MjdTLrnqT5zY6DuKr0N_E5I9sn01-0YpFb3dMx6c0YospwqwHkwxKklAA85uci9ByqP6nNwzB7CO2Wz3QMqTPmmYvTTg9rCGSr-UfAwDAEKIV4DbJtnpyrLvkGPaa5_gv_nCN-k5ViYlz6r-CJ1O0whlmG9thf_qdLxgw_nNWQcF2fXr7TN89JATwT_wliNNN8D6EF-1PEVvXLwW2HGcUZ7m6aYNVZThwqf3g7v6w4F9NnPatr1syQX_YVgt-X5_x_El-FsEtxFIJrEadMfRwcYTiwdhtK5hDoRf1iKlyf-OR4mIT5iKTwllIBse0wzhBxjATgVJbzSK_eG5E-O9rhD0_ILI_T4FHLUm5rS3hzc_hIrhRxwPxCTo5Ys8tQ9-bBCqBU1V]--></g></svg>