<?xml version="1.0" encoding="us-ascii" standalone="no"?><svg xmlns="http://www.w3.org/2000/svg" xmlns:xlink="http://www.w3.org/1999/xlink" contentStyleType="text/css" height="560px" preserveAspectRatio="none" style="width:425px;height:560px;background:#FFFFFF;" version="1.1" viewBox="0 0 425 560" width="425px" zoomAndPan="magnify"><defs/><g><!--class User--><g id="elem_User"><rect codeLine="2" fill="#F1F1F1" height="153.6563" id="User" rx="2.5" ry="2.5" style="stroke:#181818;stroke-width:0.5;" width="171" x="126" y="7"/><ellipse cx="192.75" cy="23" fill="#ADD1B2" rx="11" ry="11" style="stroke:#181818;stroke-width:1.0;"/><path d="M195.5156,18.875 Q195.6719,18.6563 195.8594,18.5469 Q196.0469,18.4375 196.2656,18.4375 Q196.6406,18.4375 196.875,18.6953 Q197.1094,18.9531 197.1094,19.5625 L197.1094,21.0156 Q197.1094,21.625 196.875,21.8906 Q196.6406,22.1563 196.2656,22.1563 Q195.9219,22.1563 195.7188,21.9531 Q195.5156,21.7656 195.4063,21.25 Q195.3594,20.8906 195.1719,20.7031 Q194.8438,20.3281 194.2344,20.1094 Q193.625,19.8906 193,19.8906 Q192.2344,19.8906 191.6016,20.2188 Q190.9688,20.5469 190.4766,21.2969 Q189.9844,22.0469 189.9844,23.0781 L189.9844,24.1719 Q189.9844,25.4063 190.875,26.2266 Q191.7656,27.0469 193.3594,27.0469 Q194.2969,27.0469 194.9531,26.7969 Q195.3438,26.6406 195.7656,26.2031 Q196.0313,25.9375 196.1797,25.8594 Q196.3281,25.7813 196.5313,25.7813 Q196.8594,25.7813 197.1172,26.0391 Q197.375,26.2969 197.375,26.6406 Q197.375,26.9844 197.0313,27.3906 Q196.5313,27.9688 195.7344,28.2969 Q194.6563,28.75 193.3594,28.75 Q191.8438,28.75 190.6406,28.125 Q189.6563,27.625 188.9688,26.5547 Q188.2813,25.4844 188.2813,24.2031 L188.2813,23.0469 Q188.2813,21.7188 188.8984,20.5703 Q189.5156,19.4219 190.6094,18.8047 Q191.7031,18.1875 192.9375,18.1875 Q193.6719,18.1875 194.3203,18.3516 Q194.9688,18.5156 195.5156,18.875 Z " fill="#000000"/><text fill="#000000" font-family="sans-serif" font-size="14" lengthAdjust="spacing" textLength="29" x="213.25" y="28.7285">User</text><line style="stroke:#181818;stroke-width:0.5;" x1="127" x2="296" y1="39" y2="39"/><ellipse cx="137" cy="53.3047" fill="none" rx="3" ry="3" style="stroke:#038048;stroke-width:1.0;"/><text fill="#000000" font-family="sans-serif" font-size="14" lengthAdjust="spacing" textLength="63" x="146" y="57.5332">id: Integer</text><ellipse cx="137" cy="70.9141" fill="none" rx="3" ry="3" style="stroke:#038048;stroke-width:1.0;"/><text fill="#000000" font-family="sans-serif" font-size="14" lengthAdjust="spacing" textLength="108" x="146" y="75.1426">username: String</text><ellipse cx="137" cy="88.5234" fill="none" rx="3" ry="3" style="stroke:#038048;stroke-width:1.0;"/><text fill="#000000" font-family="sans-serif" font-size="14" lengthAdjust="spacing" textLength="78" x="146" y="92.752">email: String</text><ellipse cx="137" cy="106.1328" fill="none" rx="3" ry="3" style="stroke:#038048;stroke-width:1.0;"/><text fill="#000000" font-family="sans-serif" font-size="14" lengthAdjust="spacing" textLength="105" x="146" y="110.3613">password: String</text><ellipse cx="137" cy="123.7422" fill="none" rx="3" ry="3" style="stroke:#038048;stroke-width:1.0;"/><text fill="#000000" font-family="sans-serif" font-size="14" lengthAdjust="spacing" textLength="145" x="146" y="127.9707">created_at: Timestamp</text><ellipse cx="137" cy="141.3516" fill="none" rx="3" ry="3" style="stroke:#038048;stroke-width:1.0;"/><text fill="#000000" font-family="sans-serif" font-size="14" lengthAdjust="spacing" textLength="95" x="146" y="145.5801">role_id: Integer</text><line style="stroke:#181818;stroke-width:0.5;" x1="127" x2="296" y1="152.6563" y2="152.6563"/></g><!--class Message--><g id="elem_Message"><rect codeLine="11" fill="#F1F1F1" height="118.4375" id="Message" rx="2.5" ry="2.5" style="stroke:#181818;stroke-width:0.5;" width="171" x="126" y="239"/><ellipse cx="178.75" cy="255" fill="#ADD1B2" rx="11" ry="11" style="stroke:#181818;stroke-width:1.0;"/><path d="M181.5156,250.875 Q181.6719,250.6563 181.8594,250.5469 Q182.0469,250.4375 182.2656,250.4375 Q182.6406,250.4375 182.875,250.6953 Q183.1094,250.9531 183.1094,251.5625 L183.1094,253.0156 Q183.1094,253.625 182.875,253.8906 Q182.6406,254.1563 182.2656,254.1563 Q181.9219,254.1563 181.7188,253.9531 Q181.5156,253.7656 181.4063,253.25 Q181.3594,252.8906 181.1719,252.7031 Q180.8438,252.3281 180.2344,252.1094 Q179.625,251.8906 179,251.8906 Q178.2344,251.8906 177.6016,252.2188 Q176.9688,252.5469 176.4766,253.2969 Q175.9844,254.0469 175.9844,255.0781 L175.9844,256.1719 Q175.9844,257.4063 176.875,258.2266 Q177.7656,259.0469 179.3594,259.0469 Q180.2969,259.0469 180.9531,258.7969 Q181.3438,258.6406 181.7656,258.2031 Q182.0313,257.9375 182.1797,257.8594 Q182.3281,257.7813 182.5313,257.7813 Q182.8594,257.7813 183.1172,258.0391 Q183.375,258.2969 183.375,258.6406 Q183.375,258.9844 183.0313,259.3906 Q182.5313,259.9688 181.7344,260.2969 Q180.6563,260.75 179.3594,260.75 Q177.8438,260.75 176.6406,260.125 Q175.6563,259.625 174.9688,258.5547 Q174.2813,257.4844 174.2813,256.2031 L174.2813,255.0469 Q174.2813,253.7188 174.8984,252.5703 Q175.5156,251.4219 176.6094,250.8047 Q177.7031,250.1875 178.9375,250.1875 Q179.6719,250.1875 180.3203,250.3516 Q180.9688,250.5156 181.5156,250.875 Z " fill="#000000"/><text fill="#000000" font-family="sans-serif" font-size="14" lengthAdjust="spacing" textLength="57" x="199.25" y="260.7285">Message</text><line style="stroke:#181818;stroke-width:0.5;" x1="127" x2="296" y1="271" y2="271"/><ellipse cx="137" cy="285.3047" fill="none" rx="3" ry="3" style="stroke:#038048;stroke-width:1.0;"/><text fill="#000000" font-family="sans-serif" font-size="14" lengthAdjust="spacing" textLength="63" x="146" y="289.5332">id: Integer</text><ellipse cx="137" cy="302.9141" fill="none" rx="3" ry="3" style="stroke:#038048;stroke-width:1.0;"/><text fill="#000000" font-family="sans-serif" font-size="14" lengthAdjust="spacing" textLength="99" x="146" y="307.1426">user_id: Integer</text><ellipse cx="137" cy="320.5234" fill="none" rx="3" ry="3" style="stroke:#038048;stroke-width:1.0;"/><text fill="#000000" font-family="sans-serif" font-size="14" lengthAdjust="spacing" textLength="82" x="146" y="324.752">content: Text</text><ellipse cx="137" cy="338.1328" fill="none" rx="3" ry="3" style="stroke:#038048;stroke-width:1.0;"/><text fill="#000000" font-family="sans-serif" font-size="14" lengthAdjust="spacing" textLength="145" x="146" y="342.3613">created_at: Timestamp</text><line style="stroke:#181818;stroke-width:0.5;" x1="127" x2="296" y1="349.4375" y2="349.4375"/></g><!--class Like--><g id="elem_Like"><rect codeLine="18" fill="#F1F1F1" height="118.4375" id="Like" rx="2.5" ry="2.5" style="stroke:#181818;stroke-width:0.5;" width="171" x="7" y="435"/><ellipse cx="75.25" cy="451" fill="#ADD1B2" rx="11" ry="11" style="stroke:#181818;stroke-width:1.0;"/><path d="M78.0156,446.875 Q78.1719,446.6563 78.3594,446.5469 Q78.5469,446.4375 78.7656,446.4375 Q79.1406,446.4375 79.375,446.6953 Q79.6094,446.9531 79.6094,447.5625 L79.6094,449.0156 Q79.6094,449.625 79.375,449.8906 Q79.1406,450.1563 78.7656,450.1563 Q78.4219,450.1563 78.2188,449.9531 Q78.0156,449.7656 77.9063,449.25 Q77.8594,448.8906 77.6719,448.7031 Q77.3438,448.3281 76.7344,448.1094 Q76.125,447.8906 75.5,447.8906 Q74.7344,447.8906 74.1016,448.2188 Q73.4688,448.5469 72.9766,449.2969 Q72.4844,450.0469 72.4844,451.0781 L72.4844,452.1719 Q72.4844,453.4063 73.375,454.2266 Q74.2656,455.0469 75.8594,455.0469 Q76.7969,455.0469 77.4531,454.7969 Q77.8438,454.6406 78.2656,454.2031 Q78.5313,453.9375 78.6797,453.8594 Q78.8281,453.7813 79.0313,453.7813 Q79.3594,453.7813 79.6172,454.0391 Q79.875,454.2969 79.875,454.6406 Q79.875,454.9844 79.5313,455.3906 Q79.0313,455.9688 78.2344,456.2969 Q77.1563,456.75 75.8594,456.75 Q74.3438,456.75 73.1406,456.125 Q72.1563,455.625 71.4688,454.5547 Q70.7813,453.4844 70.7813,452.2031 L70.7813,451.0469 Q70.7813,449.7188 71.3984,448.5703 Q72.0156,447.4219 73.1094,446.8047 Q74.2031,446.1875 75.4375,446.1875 Q76.1719,446.1875 76.8203,446.3516 Q77.4688,446.5156 78.0156,446.875 Z " fill="#000000"/><text fill="#000000" font-family="sans-serif" font-size="14" lengthAdjust="spacing" textLength="26" x="95.75" y="456.7285">Like</text><line style="stroke:#181818;stroke-width:0.5;" x1="8" x2="177" y1="467" y2="467"/><ellipse cx="18" cy="481.3047" fill="none" rx="3" ry="3" style="stroke:#038048;stroke-width:1.0;"/><text fill="#000000" font-family="sans-serif" font-size="14" lengthAdjust="spacing" textLength="63" x="27" y="485.5332">id: Integer</text><ellipse cx="18" cy="498.9141" fill="none" rx="3" ry="3" style="stroke:#038048;stroke-width:1.0;"/><text fill="#000000" font-family="sans-serif" font-size="14" lengthAdjust="spacing" textLength="128" x="27" y="503.1426">message_id: Integer</text><ellipse cx="18" cy="516.5234" fill="none" rx="3" ry="3" style="stroke:#038048;stroke-width:1.0;"/><text fill="#000000" font-family="sans-serif" font-size="14" lengthAdjust="spacing" textLength="99" x="27" y="520.752">user_id: Integer</text><ellipse cx="18" cy="534.1328" fill="none" rx="3" ry="3" style="stroke:#038048;stroke-width:1.0;"/><text fill="#000000" font-family="sans-serif" font-size="14" lengthAdjust="spacing" textLength="145" x="27" y="538.3613">created_at: Timestamp</text><line style="stroke:#181818;stroke-width:0.5;" x1="8" x2="177" y1="545.4375" y2="545.4375"/></g><!--class SuperLike--><g id="elem_SuperLike"><rect codeLine="25" fill="#F1F1F1" height="118.4375" id="SuperLike" rx="2.5" ry="2.5" style="stroke:#181818;stroke-width:0.5;" width="171" x="247" y="435"/><ellipse cx="296.25" cy="451" fill="#ADD1B2" rx="11" ry="11" style="stroke:#181818;stroke-width:1.0;"/><path d="M299.0156,446.875 Q299.1719,446.6563 299.3594,446.5469 Q299.5469,446.4375 299.7656,446.4375 Q300.1406,446.4375 300.375,446.6953 Q300.6094,446.9531 300.6094,447.5625 L300.6094,449.0156 Q300.6094,449.625 300.375,449.8906 Q300.1406,450.1563 299.7656,450.1563 Q299.4219,450.1563 299.2188,449.9531 Q299.0156,449.7656 298.9063,449.25 Q298.8594,448.8906 298.6719,448.7031 Q298.3438,448.3281 297.7344,448.1094 Q297.125,447.8906 296.5,447.8906 Q295.7344,447.8906 295.1016,448.2188 Q294.4688,448.5469 293.9766,449.2969 Q293.4844,450.0469 293.4844,451.0781 L293.4844,452.1719 Q293.4844,453.4063 294.375,454.2266 Q295.2656,455.0469 296.8594,455.0469 Q297.7969,455.0469 298.4531,454.7969 Q298.8438,454.6406 299.2656,454.2031 Q299.5313,453.9375 299.6797,453.8594 Q299.8281,453.7813 300.0313,453.7813 Q300.3594,453.7813 300.6172,454.0391 Q300.875,454.2969 300.875,454.6406 Q300.875,454.9844 300.5313,455.3906 Q300.0313,455.9688 299.2344,456.2969 Q298.1563,456.75 296.8594,456.75 Q295.3438,456.75 294.1406,456.125 Q293.1563,455.625 292.4688,454.5547 Q291.7813,453.4844 291.7813,452.2031 L291.7813,451.0469 Q291.7813,449.7188 292.3984,448.5703 Q293.0156,447.4219 294.1094,446.8047 Q295.2031,446.1875 296.4375,446.1875 Q297.1719,446.1875 297.8203,446.3516 Q298.4688,446.5156 299.0156,446.875 Z " fill="#000000"/><text fill="#000000" font-family="sans-serif" font-size="14" lengthAdjust="spacing" textLength="64" x="316.75" y="456.7285">SuperLike</text><line style="stroke:#181818;stroke-width:0.5;" x1="248" x2="417" y1="467" y2="467"/><ellipse cx="258" cy="481.3047" fill="none" rx="3" ry="3" style="stroke:#038048;stroke-width:1.0;"/><text fill="#000000" font-family="sans-serif" font-size="14" lengthAdjust="spacing" textLength="63" x="267" y="485.5332">id: Integer</text><ellipse cx="258" cy="498.9141" fill="none" rx="3" ry="3" style="stroke:#038048;stroke-width:1.0;"/><text fill="#000000" font-family="sans-serif" font-size="14" lengthAdjust="spacing" textLength="128" x="267" y="503.1426">message_id: Integer</text><ellipse cx="258" cy="516.5234" fill="none" rx="3" ry="3" style="stroke:#038048;stroke-width:1.0;"/><text fill="#000000" font-family="sans-serif" font-size="14" lengthAdjust="spacing" textLength="99" x="267" y="520.752">user_id: Integer</text><ellipse cx="258" cy="534.1328" fill="none" rx="3" ry="3" style="stroke:#038048;stroke-width:1.0;"/><text fill="#000000" font-family="sans-serif" font-size="14" lengthAdjust="spacing" textLength="145" x="267" y="538.3613">created_at: Timestamp</text><line style="stroke:#181818;stroke-width:0.5;" x1="248" x2="417" y1="545.4375" y2="545.4375"/></g><!--link User to Message--><g id="link_User_Message"><path codeLine="32" d="M211.5,161.24 C211.5,186.76 211.5,214.79 211.5,238.71 " fill="none" id="User-Message" style="stroke:#181818;stroke-width:1.0;"/><text fill="#000000" font-family="sans-serif" font-size="13" lengthAdjust="spacing" textLength="43" x="212.5" y="205.4951">creates</text><text fill="#000000" font-family="sans-serif" font-size="13" lengthAdjust="spacing" textLength="7" x="204.1992" y="182.0903">1</text><text fill="#000000" font-family="sans-serif" font-size="13" lengthAdjust="spacing" textLength="20" x="190.2813" y="227.9989">0..*</text></g><!--link Message to Like--><g id="link_Message_Like"><path codeLine="33" d="M166.42,357.24 C159.47,366.99 152.59,377.14 146.5,387 C137.16,402.11 128,419.03 119.96,434.84 " fill="none" id="Message-Like" style="stroke:#181818;stroke-width:1.0;"/><text fill="#000000" font-family="sans-serif" font-size="13" lengthAdjust="spacing" textLength="45" x="147.5" y="401.4951">liked by</text><text fill="#000000" font-family="sans-serif" font-size="13" lengthAdjust="spacing" textLength="7" x="153.4993" y="378.9248">1</text><text fill="#000000" font-family="sans-serif" font-size="13" lengthAdjust="spacing" textLength="20" x="102.0879" y="424.1448">0..*</text></g><!--link Message to SuperLike--><g id="link_Message_SuperLike"><path codeLine="34" d="M233.78,357.17 C240.82,373.14 249.22,390.15 258.5,405 C264.74,414.99 272.03,425.05 279.56,434.61 " fill="none" id="Message-SuperLike" style="stroke:#181818;stroke-width:1.0;"/><text fill="#000000" font-family="sans-serif" font-size="13" lengthAdjust="spacing" textLength="81" x="259.5" y="401.4951">super liked by</text><text fill="#000000" font-family="sans-serif" font-size="13" lengthAdjust="spacing" textLength="7" x="229.0688" y="378.8462">1</text><text fill="#000000" font-family="sans-serif" font-size="13" lengthAdjust="spacing" textLength="20" x="252.2826" y="424.3082">0..*</text></g><!--link User to Like--><g id="link_User_Like"><path codeLine="35" d="M127.74,161.36 C108.14,184.21 89.95,210.76 79.5,239 C55.87,302.88 65.44,381.99 76.77,434.79 " fill="none" id="User-Like" style="stroke:#181818;stroke-width:1.0;"/><text fill="#000000" font-family="sans-serif" font-size="13" lengthAdjust="spacing" textLength="27" x="80.5" y="303.4951">likes</text><text fill="#000000" font-family="sans-serif" font-size="13" lengthAdjust="spacing" textLength="7" x="113.2411" y="182.2206">1</text><text fill="#000000" font-family="sans-serif" font-size="13" lengthAdjust="spacing" textLength="20" x="53.6342" y="424.0887">0..*</text></g><!--link User to SuperLike--><g id="link_User_SuperLike"><path codeLine="36" d="M270.84,161.22 C287.04,185.06 303.22,212.17 314.5,239 C343.59,308.19 351,330.15 345.5,405 C344.79,414.7 343.64,424.96 342.31,434.91 " fill="none" id="User-SuperLike" style="stroke:#181818;stroke-width:1.0;"/><text fill="#000000" font-family="sans-serif" font-size="13" lengthAdjust="spacing" textLength="63" x="348.5" y="303.4951">super likes</text><text fill="#000000" font-family="sans-serif" font-size="13" lengthAdjust="spacing" textLength="7" x="268.6387" y="182.0686">1</text><text fill="#000000" font-family="sans-serif" font-size="13" lengthAdjust="spacing" textLength="20" x="322.2868" y="424.2233">0..*</text></g><!--SRC=[lP7B3i8W44NtVCMaIqsDRla34rrLrmsMIKE4jc5er1Z_NLfY7x5jNCa6vixZN23JWWZEX1QU3FnQAybXNpZCqGQXzib26EIGEAkAFAXeXD9ZgVAZRgMLOpMpA1pAL3WE9sMGd31LIDbIOphalHZBMaD7918vBdfAlzIiz57HSF3kbkWTvw2kyn0JJAI_qfTHILsX_Gkl_Sre5q4SGxJTR5PHzvuSGXUnZpAkQ_rnq7wJS7dCLFLNuK3DkM-OO0zcqbH-UXgnDm00]--></g></svg>