<?xml version="1.0" encoding="us-ascii" standalone="no"?><svg xmlns="http://www.w3.org/2000/svg" xmlns:xlink="http://www.w3.org/1999/xlink" contentStyleType="text/css" height="468px" preserveAspectRatio="none" style="width:2305px;height:468px;background:#FFFFFF;" version="1.1" viewBox="0 0 2305 468" width="2305px" zoomAndPan="magnify"><defs/><g><!--entity Auth--><g id="elem_Auth"><rect fill="#F1F1F1" height="47.6094" rx="2.5" ry="2.5" style="stroke:#181818;stroke-width:0.5;" width="203" x="1739.65" y="289"/><rect fill="#F1F1F1" height="10" style="stroke:#181818;stroke-width:0.5;" width="15" x="1922.65" y="294"/><rect fill="#F1F1F1" height="2" style="stroke:#181818;stroke-width:0.5;" width="4" x="1920.65" y="296"/><rect fill="#F1F1F1" height="2" style="stroke:#181818;stroke-width:0.5;" width="4" x="1920.65" y="300"/><text fill="#000000" font-family="sans-serif" font-size="14" lengthAdjust="spacing" textLength="163" x="1754.65" y="323.5332">&#1057;&#1077;&#1088;&#1074;&#1080;&#1089; &#1072;&#1091;&#1090;&#1077;&#1085;&#1090;&#1080;&#1092;&#1080;&#1082;&#1072;&#1094;&#1080;&#1080;</text></g><!--entity Logging--><g id="elem_Logging"><rect fill="#F1F1F1" height="47.6094" rx="2.5" ry="2.5" style="stroke:#181818;stroke-width:0.5;" width="176" x="103.15" y="289"/><rect fill="#F1F1F1" height="10" style="stroke:#181818;stroke-width:0.5;" width="15" x="259.15" y="294"/><rect fill="#F1F1F1" height="2" style="stroke:#181818;stroke-width:0.5;" width="4" x="257.15" y="296"/><rect fill="#F1F1F1" height="2" style="stroke:#181818;stroke-width:0.5;" width="4" x="257.15" y="300"/><text fill="#000000" font-family="sans-serif" font-size="14" lengthAdjust="spacing" textLength="136" x="118.15" y="323.5332">&#1057;&#1077;&#1088;&#1074;&#1080;&#1089; &#1083;&#1086;&#1075;&#1080;&#1088;&#1086;&#1074;&#1072;&#1085;&#1080;&#1103;</text></g><!--entity Monitoring--><g id="elem_Monitoring"><rect fill="#F1F1F1" height="47.6094" rx="2.5" ry="2.5" style="stroke:#181818;stroke-width:0.5;" width="178" x="412.15" y="289"/><rect fill="#F1F1F1" height="10" style="stroke:#181818;stroke-width:0.5;" width="15" x="570.15" y="294"/><rect fill="#F1F1F1" height="2" style="stroke:#181818;stroke-width:0.5;" width="4" x="568.15" y="296"/><rect fill="#F1F1F1" height="2" style="stroke:#181818;stroke-width:0.5;" width="4" x="568.15" y="300"/><text fill="#000000" font-family="sans-serif" font-size="14" lengthAdjust="spacing" textLength="138" x="427.15" y="323.5332">&#1057;&#1077;&#1088;&#1074;&#1080;&#1089; &#1084;&#1086;&#1085;&#1080;&#1090;&#1086;&#1088;&#1080;&#1085;&#1075;&#1072;</text></g><!--entity Queue--><g id="elem_Queue"><rect fill="#F1F1F1" height="47.6094" rx="2.5" ry="2.5" style="stroke:#181818;stroke-width:0.5;" width="233" x="293.65" y="133"/><rect fill="#F1F1F1" height="10" style="stroke:#181818;stroke-width:0.5;" width="15" x="506.65" y="138"/><rect fill="#F1F1F1" height="2" style="stroke:#181818;stroke-width:0.5;" width="4" x="504.65" y="140"/><rect fill="#F1F1F1" height="2" style="stroke:#181818;stroke-width:0.5;" width="4" x="504.65" y="144"/><text fill="#000000" font-family="sans-serif" font-size="14" lengthAdjust="spacing" textLength="193" x="308.65" y="167.5332">&#1057;&#1077;&#1088;&#1074;&#1080;&#1089; &#1086;&#1095;&#1077;&#1088;&#1077;&#1076;&#1077;&#1081; &#1089;&#1086;&#1086;&#1073;&#1097;&#1077;&#1085;&#1080;&#1081;</text></g><!--entity Cache--><g id="elem_Cache"><rect fill="#F1F1F1" height="47.6094" rx="2.5" ry="2.5" style="stroke:#181818;stroke-width:0.5;" width="179" x="895.65" y="133"/><rect fill="#F1F1F1" height="10" style="stroke:#181818;stroke-width:0.5;" width="15" x="1054.65" y="138"/><rect fill="#F1F1F1" height="2" style="stroke:#181818;stroke-width:0.5;" width="4" x="1052.65" y="140"/><rect fill="#F1F1F1" height="2" style="stroke:#181818;stroke-width:0.5;" width="4" x="1052.65" y="144"/><text fill="#000000" font-family="sans-serif" font-size="14" lengthAdjust="spacing" textLength="139" x="910.65" y="167.5332">&#1057;&#1077;&#1088;&#1074;&#1080;&#1089; &#1082;&#1101;&#1096;&#1080;&#1088;&#1086;&#1074;&#1072;&#1085;&#1080;&#1103;</text></g><!--entity SQLDB--><g id="elem_SQLDB"><rect fill="#F1F1F1" height="47.6094" rx="2.5" ry="2.5" style="stroke:#181818;stroke-width:0.5;" width="154" x="1586.15" y="415"/><rect fill="#F1F1F1" height="10" style="stroke:#181818;stroke-width:0.5;" width="15" x="1720.15" y="420"/><rect fill="#F1F1F1" height="2" style="stroke:#181818;stroke-width:0.5;" width="4" x="1718.15" y="422"/><rect fill="#F1F1F1" height="2" style="stroke:#181818;stroke-width:0.5;" width="4" x="1718.15" y="426"/><text fill="#000000" font-family="sans-serif" font-size="14" lengthAdjust="spacing" textLength="114" x="1601.15" y="449.5332">SQL &#1073;&#1072;&#1079;&#1072; &#1076;&#1072;&#1085;&#1085;&#1099;&#1093;</text></g><!--entity NoSQLDB--><g id="elem_NoSQLDB"><rect fill="#F1F1F1" height="47.6094" rx="2.5" ry="2.5" style="stroke:#181818;stroke-width:0.5;" width="171" x="952.65" y="289"/><rect fill="#F1F1F1" height="10" style="stroke:#181818;stroke-width:0.5;" width="15" x="1103.65" y="294"/><rect fill="#F1F1F1" height="2" style="stroke:#181818;stroke-width:0.5;" width="4" x="1101.65" y="296"/><rect fill="#F1F1F1" height="2" style="stroke:#181818;stroke-width:0.5;" width="4" x="1101.65" y="300"/><text fill="#000000" font-family="sans-serif" font-size="14" lengthAdjust="spacing" textLength="131" x="967.65" y="323.5332">NoSQL &#1073;&#1072;&#1079;&#1072; &#1076;&#1072;&#1085;&#1085;&#1099;&#1093;</text></g><!--entity FileStorage--><g id="elem_FileStorage"><rect fill="#F1F1F1" height="47.6094" rx="2.5" ry="2.5" style="stroke:#181818;stroke-width:0.5;" width="208" x="679.15" y="415"/><rect fill="#F1F1F1" height="10" style="stroke:#181818;stroke-width:0.5;" width="15" x="867.15" y="420"/><rect fill="#F1F1F1" height="2" style="stroke:#181818;stroke-width:0.5;" width="4" x="865.15" y="422"/><rect fill="#F1F1F1" height="2" style="stroke:#181818;stroke-width:0.5;" width="4" x="865.15" y="426"/><text fill="#000000" font-family="sans-serif" font-size="14" lengthAdjust="spacing" textLength="168" x="694.15" y="449.5332">&#1057;&#1077;&#1088;&#1074;&#1080;&#1089; &#1093;&#1088;&#1072;&#1085;&#1077;&#1085;&#1080;&#1103; &#1092;&#1072;&#1081;&#1083;&#1086;&#1074;</text></g><!--entity Analytics--><g id="elem_Analytics"><rect fill="#F1F1F1" height="47.6094" rx="2.5" ry="2.5" style="stroke:#181818;stroke-width:0.5;" width="161" x="1255.65" y="211"/><rect fill="#F1F1F1" height="10" style="stroke:#181818;stroke-width:0.5;" width="15" x="1396.65" y="216"/><rect fill="#F1F1F1" height="2" style="stroke:#181818;stroke-width:0.5;" width="4" x="1394.65" y="218"/><rect fill="#F1F1F1" height="2" style="stroke:#181818;stroke-width:0.5;" width="4" x="1394.65" y="222"/><text fill="#000000" font-family="sans-serif" font-size="14" lengthAdjust="spacing" textLength="121" x="1270.65" y="245.5332">&#1057;&#1077;&#1088;&#1074;&#1080;&#1089; &#1072;&#1085;&#1072;&#1083;&#1080;&#1090;&#1080;&#1082;&#1080;</text></g><!--entity Payment--><g id="elem_Payment"><rect fill="#F1F1F1" height="47.6094" rx="2.5" ry="2.5" style="stroke:#181818;stroke-width:0.5;" width="156" x="1507.15" y="133"/><rect fill="#F1F1F1" height="10" style="stroke:#181818;stroke-width:0.5;" width="15" x="1643.15" y="138"/><rect fill="#F1F1F1" height="2" style="stroke:#181818;stroke-width:0.5;" width="4" x="1641.15" y="140"/><rect fill="#F1F1F1" height="2" style="stroke:#181818;stroke-width:0.5;" width="4" x="1641.15" y="144"/><text fill="#000000" font-family="sans-serif" font-size="14" lengthAdjust="spacing" textLength="116" x="1522.15" y="167.5332">&#1057;&#1077;&#1088;&#1074;&#1080;&#1089; &#1087;&#1083;&#1072;&#1090;&#1077;&#1078;&#1077;&#1081;</text></g><!--entity App--><g id="elem_App"><rect fill="#F1F1F1" height="47.6094" rx="2.5" ry="2.5" style="stroke:#181818;stroke-width:0.5;" width="190" x="958.15" y="7"/><rect fill="#F1F1F1" height="10" style="stroke:#181818;stroke-width:0.5;" width="15" x="1128.15" y="12"/><rect fill="#F1F1F1" height="2" style="stroke:#181818;stroke-width:0.5;" width="4" x="1126.15" y="14"/><rect fill="#F1F1F1" height="2" style="stroke:#181818;stroke-width:0.5;" width="4" x="1126.15" y="18"/><text fill="#000000" font-family="sans-serif" font-size="14" lengthAdjust="spacing" textLength="150" x="973.15" y="41.5332">&#1054;&#1089;&#1085;&#1086;&#1074;&#1085;&#1086;&#1077; &#1087;&#1088;&#1080;&#1083;&#1086;&#1078;&#1077;&#1085;&#1080;&#1077;</text></g><!--link App to Auth--><g id="link_App_Auth"><path d="M1148.31,34 C1328.32,38.52 1705.15,51.87 1754.15,85 C1823.03,131.57 1837.0476,234.9016 1840.0276,282.8216 " fill="none" id="App-to-Auth" style="stroke:#181818;stroke-width:1.0;"/><polygon fill="#181818" points="1840.4,288.81,1843.8337,279.5791,1840.0897,283.8196,1835.8491,280.0756,1840.4,288.81" style="stroke:#181818;stroke-width:1.0;"/><text fill="#000000" font-family="sans-serif" font-size="13" lengthAdjust="spacing" textLength="182" x="1821.15" y="162.4951">&#1040;&#1091;&#1090;&#1077;&#1085;&#1090;&#1080;&#1092;&#1080;&#1082;&#1072;&#1094;&#1080;&#1103; &#1087;&#1086;&#1083;&#1100;&#1079;&#1086;&#1074;&#1072;&#1090;&#1077;&#1083;&#1103;</text></g><!--link App to Logging--><g id="link_App_Logging"><path d="M957.83,34.42 C719.47,41.47 112.43,65.89 53.15,133 C6,186.38 89.9908,250.862 145.8308,285.732 " fill="none" id="App-to-Logging" style="stroke:#181818;stroke-width:1.0;"/><polygon fill="#181818" points="150.92,288.91,145.4049,280.7501,146.679,286.2616,141.1675,287.5358,150.92,288.91" style="stroke:#181818;stroke-width:1.0;"/><text fill="#000000" font-family="sans-serif" font-size="13" lengthAdjust="spacing" textLength="221" x="54.15" y="162.4951">&#1051;&#1086;&#1075;&#1080;&#1088;&#1086;&#1074;&#1072;&#1085;&#1080;&#1077; &#1076;&#1077;&#1081;&#1089;&#1090;&#1074;&#1080;&#1081; &#1087;&#1086;&#1083;&#1100;&#1079;&#1086;&#1074;&#1072;&#1090;&#1077;&#1083;&#1103;</text></g><!--link App to Monitoring--><g id="link_App_Monitoring"><path d="M957.94,43.84 C847.14,59.39 673.09,89.87 624.15,133 C579.08,172.73 612,211.54 575.15,259 C566.24,270.48 559.1091,277.1389 547.3091,285.3289 " fill="none" id="App-to-Monitoring" style="stroke:#181818;stroke-width:1.0;"/><polygon fill="#181818" points="542.38,288.75,552.0544,286.9044,546.4876,285.8991,547.4929,280.3323,542.38,288.75" style="stroke:#181818;stroke-width:1.0;"/><text fill="#000000" font-family="sans-serif" font-size="13" lengthAdjust="spacing" textLength="190" x="625.15" y="162.4951">&#1052;&#1086;&#1085;&#1080;&#1090;&#1086;&#1088;&#1080;&#1085;&#1075; &#1089;&#1086;&#1089;&#1090;&#1086;&#1103;&#1085;&#1080;&#1103; &#1089;&#1080;&#1089;&#1090;&#1077;&#1084;&#1099;</text></g><!--link App to Queue--><g id="link_App_Queue"><path d="M957.98,31.79 C814.45,32.95 550.63,41.21 468.15,85 C448.05,95.67 435.4333,111.457 425.4533,127.827 " fill="none" id="App-to-Queue" style="stroke:#181818;stroke-width:1.0;"/><polygon fill="#181818" points="422.33,132.95,430.4302,127.3476,424.9327,128.6808,423.5995,123.1833,422.33,132.95" style="stroke:#181818;stroke-width:1.0;"/><text fill="#000000" font-family="sans-serif" font-size="13" lengthAdjust="spacing" textLength="101" x="469.15" y="99.4951">&#1060;&#1086;&#1085;&#1086;&#1074;&#1099;&#1077; &#1079;&#1072;&#1076;&#1072;&#1095;&#1080;</text></g><!--link App to Cache--><g id="link_App_Cache"><path d="M989.57,55.11 C977.05,62.67 965.52,72.46 958.15,85 C949.34,100.01 953.5229,113.3875 962.8129,127.6975 " fill="none" id="App-to-Cache" style="stroke:#181818;stroke-width:1.0;"/><polygon fill="#181818" points="966.08,132.73,964.5344,123.0032,963.3574,128.5362,957.8244,127.3593,966.08,132.73" style="stroke:#181818;stroke-width:1.0;"/><text fill="#000000" font-family="sans-serif" font-size="13" lengthAdjust="spacing" textLength="159" x="959.15" y="99.4951">&#1041;&#1099;&#1089;&#1090;&#1088;&#1099;&#1081; &#1076;&#1086;&#1089;&#1090;&#1091;&#1087; &#1082; &#1076;&#1072;&#1085;&#1085;&#1099;&#1084;</text></g><!--link App to SQLDB--><g id="link_App_SQLDB"><path d="M1148.54,34.72 C1380.11,42.32 1957.07,67.7 2012.15,133 C2084.43,218.68 2095.4,300.15 2022.15,385 C1986.49,426.31 1840.6787,435.8567 1746.2587,437.7967 " fill="none" id="App-to-SQLDB" style="stroke:#181818;stroke-width:1.0;"/><polygon fill="#181818" points="1740.26,437.92,1749.3403,441.7343,1745.2589,437.8173,1749.1759,433.736,1740.26,437.92" style="stroke:#181818;stroke-width:1.0;"/><text fill="#000000" font-family="sans-serif" font-size="13" lengthAdjust="spacing" textLength="225" x="2072.15" y="240.4951">&#1061;&#1088;&#1072;&#1085;&#1077;&#1085;&#1080;&#1077; &#1089;&#1090;&#1088;&#1091;&#1082;&#1090;&#1091;&#1088;&#1080;&#1088;&#1086;&#1074;&#1072;&#1085;&#1085;&#1099;&#1093; &#1076;&#1072;&#1085;&#1085;&#1099;&#1093;</text></g><!--link App to NoSQLDB--><g id="link_App_NoSQLDB"><path d="M1096.68,55.27 C1107.28,63.2 1117.25,73.12 1123.15,85 C1140.37,119.62 1141.92,225.19 1123.15,259 C1116.32,271.32 1110.3375,277.8907 1098.4675,285.5707 " fill="none" id="App-to-NoSQLDB" style="stroke:#181818;stroke-width:1.0;"/><polygon fill="#181818" points="1093.43,288.83,1103.1592,287.2994,1097.6279,286.1139,1098.8134,280.5826,1093.43,288.83" style="stroke:#181818;stroke-width:1.0;"/><text fill="#000000" font-family="sans-serif" font-size="13" lengthAdjust="spacing" textLength="239" x="1138.15" y="162.4951">&#1061;&#1088;&#1072;&#1085;&#1077;&#1085;&#1080;&#1077; &#1085;&#1077;&#1089;&#1090;&#1088;&#1091;&#1082;&#1090;&#1091;&#1088;&#1080;&#1088;&#1086;&#1074;&#1072;&#1085;&#1085;&#1099;&#1093; &#1076;&#1072;&#1085;&#1085;&#1099;&#1093;</text></g><!--link App to FileStorage--><g id="link_App_FileStorage"><path d="M986,55.15 C948.79,71.34 904.8,96.64 878.15,133 C812.09,223.14 791.8189,354.3752 785.9089,408.7052 " fill="none" id="App-to-FileStorage" style="stroke:#181818;stroke-width:1.0;"/><polygon fill="#181818" points="785.26,414.67,790.2098,406.1553,785.8007,409.6993,782.2567,405.2902,785.26,414.67" style="stroke:#181818;stroke-width:1.0;"/><text fill="#000000" font-family="sans-serif" font-size="13" lengthAdjust="spacing" textLength="104" x="836.15" y="240.4951">&#1061;&#1088;&#1072;&#1085;&#1077;&#1085;&#1080;&#1077; &#1092;&#1072;&#1081;&#1083;&#1086;&#1074;</text></g><!--link App to Analytics--><g id="link_App_Analytics"><path d="M1148.16,47.18 C1238.39,63.77 1364.55,93.36 1394.15,133 C1406.92,150.09 1402.76,161.48 1394.15,181 C1389.09,192.48 1384.6934,198.6066 1375.3434,206.7966 " fill="none" id="App-to-Analytics" style="stroke:#181818;stroke-width:1.0;"/><polygon fill="#181818" points="1370.83,210.75,1380.2357,207.8288,1374.5911,207.4555,1374.9644,201.811,1370.83,210.75" style="stroke:#181818;stroke-width:1.0;"/><text fill="#000000" font-family="sans-serif" font-size="13" lengthAdjust="spacing" textLength="174" x="1352.15" y="99.4951">&#1054;&#1090;&#1087;&#1088;&#1072;&#1074;&#1082;&#1072; &#1076;&#1072;&#1085;&#1085;&#1099;&#1093; &#1072;&#1082;&#1090;&#1080;&#1074;&#1085;&#1086;&#1089;&#1090;&#1080;</text></g><!--link App to Payment--><g id="link_App_Payment"><path d="M1148.3,34.11 C1300.62,38.49 1585.34,51.15 1616.15,85 C1628.47,98.53 1622.6234,112.9759 1610.9934,127.9959 " fill="none" id="App-to-Payment" style="stroke:#181818;stroke-width:1.0;"/><polygon fill="#181818" points="1607.32,132.74,1615.9928,128.0728,1610.3811,128.7866,1609.6673,123.175,1607.32,132.74" style="stroke:#181818;stroke-width:1.0;"/><text fill="#000000" font-family="sans-serif" font-size="13" lengthAdjust="spacing" textLength="123" x="1622.15" y="99.4951">&#1054;&#1073;&#1088;&#1072;&#1073;&#1086;&#1090;&#1082;&#1072; &#1087;&#1083;&#1072;&#1090;&#1077;&#1078;&#1077;&#1081;</text></g><!--link Queue to Logging--><g id="link_Queue_Logging"><path d="M293.6,178.46 C257.76,186.99 224.47,197.97 212.15,211 C192.47,231.83 189.1083,260.0706 189.4183,282.8306 " fill="none" id="Queue-to-Logging" style="stroke:#181818;stroke-width:1.0;"/><polygon fill="#181818" points="189.5,288.83,193.3771,279.7764,189.4319,283.8305,185.3778,279.8853,189.5,288.83" style="stroke:#181818;stroke-width:1.0;"/><text fill="#000000" font-family="sans-serif" font-size="13" lengthAdjust="spacing" textLength="173" x="213.15" y="240.4951">&#1051;&#1086;&#1075;&#1080;&#1088;&#1086;&#1074;&#1072;&#1085;&#1080;&#1077; &#1092;&#1086;&#1085;&#1086;&#1074;&#1099;&#1093; &#1079;&#1072;&#1076;&#1072;&#1095;</text></g><!--link Queue to Monitoring--><g id="link_Queue_Monitoring"><path d="M401.36,181.41 C394.79,203.09 389.12,235.45 403.15,259 C410.68,271.63 417.2186,278.3705 429.9386,285.9105 " fill="none" id="Queue-to-Monitoring" style="stroke:#181818;stroke-width:1.0;"/><polygon fill="#181818" points="435.1,288.97,429.3976,280.9399,430.7989,286.4204,425.3183,287.8217,435.1,288.97" style="stroke:#181818;stroke-width:1.0;"/><text fill="#000000" font-family="sans-serif" font-size="13" lengthAdjust="spacing" textLength="166" x="404.15" y="240.4951">&#1052;&#1086;&#1085;&#1080;&#1090;&#1086;&#1088;&#1080;&#1085;&#1075; &#1092;&#1086;&#1085;&#1086;&#1074;&#1099;&#1093; &#1079;&#1072;&#1076;&#1072;&#1095;</text></g><!--link Auth to SQLDB--><g id="link_Auth_SQLDB"><path d="M1808.09,337.03 C1776.22,359.24 1733.1836,389.221 1701.2636,411.451 " fill="none" id="Auth-to-SQLDB" style="stroke:#181818;stroke-width:1.0;"/><polygon fill="#181818" points="1696.34,414.88,1706.0114,413.019,1700.443,412.0225,1701.4395,406.4541,1696.34,414.88" style="stroke:#181818;stroke-width:1.0;"/><text fill="#000000" font-family="sans-serif" font-size="13" lengthAdjust="spacing" textLength="250" x="1763.15" y="381.4951">&#1044;&#1086;&#1089;&#1090;&#1091;&#1087; &#1082; &#1091;&#1095;&#1077;&#1090;&#1085;&#1099;&#1084; &#1076;&#1072;&#1085;&#1085;&#1099;&#1084; &#1087;&#1086;&#1083;&#1100;&#1079;&#1086;&#1074;&#1072;&#1090;&#1077;&#1083;&#1077;&#1081;</text></g><!--link Cache to NoSQLDB--><g id="link_Cache_NoSQLDB"><path d="M980.64,181.03 C977.58,202.16 975.75,233.89 986.15,259 C990.84,270.31 994.8909,276.3652 1003.5709,284.7352 " fill="none" id="Cache-to-NoSQLDB" style="stroke:#181818;stroke-width:1.0;"/><polygon fill="#181818" points="1007.89,288.9,1004.1879,279.7734,1004.2908,285.4293,998.6349,285.5322,1007.89,288.9" style="stroke:#181818;stroke-width:1.0;"/><text fill="#000000" font-family="sans-serif" font-size="13" lengthAdjust="spacing" textLength="131" x="987.15" y="240.4951">&#1050;&#1101;&#1096;&#1080;&#1088;&#1086;&#1074;&#1072;&#1085;&#1080;&#1077; &#1076;&#1072;&#1085;&#1085;&#1099;&#1093;</text></g><!--link Logging to FileStorage--><g id="link_Logging_FileStorage"><path d="M279.46,332.5 C386.23,354.86 559.8074,391.22 673.1974,414.97 " fill="none" id="Logging-to-FileStorage" style="stroke:#181818;stroke-width:1.0;"/><polygon fill="#181818" points="679.07,416.2,671.0812,410.4399,674.1762,415.175,669.4411,418.27,679.07,416.2" style="stroke:#181818;stroke-width:1.0;"/><text fill="#000000" font-family="sans-serif" font-size="13" lengthAdjust="spacing" textLength="93" x="524.15" y="381.4951">&#1061;&#1088;&#1072;&#1085;&#1077;&#1085;&#1080;&#1077; &#1083;&#1086;&#1075;&#1086;&#1074;</text></g><!--link Analytics to SQLDB--><g id="link_Analytics_SQLDB"><path d="M1295.76,259.18 C1285.51,267.21 1275.81,277.21 1270.15,289 C1260.93,308.24 1257.08,320.14 1270.15,337 C1308.47,386.41 1476.64,415.0867 1579.82,428.4967 " fill="none" id="Analytics-to-SQLDB" style="stroke:#181818;stroke-width:1.0;"/><polygon fill="#181818" points="1585.77,429.27,1577.3606,424.1434,1580.8117,428.6256,1576.3295,432.0767,1585.77,429.27" style="stroke:#181818;stroke-width:1.0;"/><text fill="#000000" font-family="sans-serif" font-size="13" lengthAdjust="spacing" textLength="212" x="1271.15" y="318.4951">&#1040;&#1085;&#1072;&#1083;&#1080;&#1079; &#1089;&#1090;&#1088;&#1091;&#1082;&#1090;&#1091;&#1088;&#1080;&#1088;&#1086;&#1074;&#1072;&#1085;&#1085;&#1099;&#1093; &#1076;&#1072;&#1085;&#1085;&#1099;&#1093;</text></g><!--link Payment to SQLDB--><g id="link_Payment_SQLDB"><path d="M1570.99,181.03 C1551.36,216.09 1520.92,284.36 1545.15,337 C1560.72,370.8 1588.7402,394.2698 1615.9202,411.7098 " fill="none" id="Payment-to-SQLDB" style="stroke:#181818;stroke-width:1.0;"/><polygon fill="#181818" points="1620.97,414.95,1615.5554,406.7231,1616.7618,412.2498,1611.2351,413.4562,1620.97,414.95" style="stroke:#181818;stroke-width:1.0;"/><text fill="#000000" font-family="sans-serif" font-size="13" lengthAdjust="spacing" textLength="175" x="1546.15" y="318.4951">&#1061;&#1088;&#1072;&#1085;&#1077;&#1085;&#1080;&#1077; &#1076;&#1072;&#1085;&#1085;&#1099;&#1093; &#1090;&#1088;&#1072;&#1085;&#1079;&#1072;&#1082;&#1094;&#1080;&#1081;</text></g><!--link Payment to Auth--><g id="link_Payment_Auth"><path d="M1576.59,181.21 C1569.95,203.66 1564.52,237.39 1582.15,259 C1584.79,262.23 1662.209,277.7717 1733.629,291.5717 " fill="none" id="Payment-to-Auth" style="stroke:#181818;stroke-width:1.0;"/><polygon fill="#181818" points="1739.52,292.71,1731.4423,287.0752,1734.6108,291.7614,1729.9246,294.9299,1739.52,292.71" style="stroke:#181818;stroke-width:1.0;"/><text fill="#000000" font-family="sans-serif" font-size="13" lengthAdjust="spacing" textLength="228" x="1583.15" y="240.4951">&#1055;&#1088;&#1086;&#1074;&#1077;&#1088;&#1082;&#1072; &#1087;&#1086;&#1083;&#1100;&#1079;&#1086;&#1074;&#1072;&#1090;&#1077;&#1083;&#1103; &#1076;&#1083;&#1103; &#1087;&#1083;&#1072;&#1090;&#1077;&#1078;&#1077;&#1081;</text></g><!--SRC=[dPNBRjDG48RtVegZxli2B92uY5L1L7q2AuhII6qSqMJHNIwKYm9AaLW1AaA2lUFYnhavhp3pHlmplfuc3e5572UP_pzpvlzyKlFEsrwhtkgO0_f18VSee8ZxXdmUye12Mk4QyMkAQ8xltk0zEZ3kXNdKxPmwjIhrWcAwnMqFxm7vjCBzM7L7NgFHR3MgfKj8f7n0CRwCS7zBlagVUwrcntkrKntpM_qOqc-yPeRxi8jfmkzbBx2RgTLnjzwjLxlC-IE_szh-4xTsQWbFZeyCJL0p9TzWKIbUyOYlj1o_FdrSBd_XxHRexxR4QeslS2kIC6dA81gVPZhmG1sUDS_g9nYJszYnGN7m8P8nIx9ffYttxBBJh5rK2zSG-Gh6dSnNPI_TotEKMg8R37wbqvDh2A66AMtUfKc4oPhjjkFWOWuF7ofKve6Xwohui66q4DE2Fs1-6euMBdYScwI4YS_NJGob5qM3-r06GiJVBGlonFNR9g7AcJh6FCwIwSl8r6l9eznBqHERdsg31NaaJG47eG7yHdcjqYQrdm08hBY7sfbiG1VZ8Qq1QuaYMkPQvKYqlyh4OANKQ0ZAuI0xACr7IRImp0rJDBTPokt_sfPutTfjYU-2amnKKTnWn6jL1OA9jOgGFbV65KIDenXl2gwQu8WGYmcA1edDFTGT9qbkByJGTHwkT967MpBP0wfA5qUV52lcppOJY41Ema52XOL81U_99XFaxkNzPVCyJ9wZ8audcyaUcQP_3vAeKqHfxUOwEw1e-i_0EbckEny32nDPG3zE5HZvcvjPDjd9z3rTMex4b9AjHuVOBvBJogRe3m00]--></g></svg>