<?xml version="1.0" encoding="us-ascii" standalone="no"?><svg xmlns="http://www.w3.org/2000/svg" xmlns:xlink="http://www.w3.org/1999/xlink" contentStyleType="text/css" height="971px" preserveAspectRatio="none" style="width:1360px;height:971px;background:#FFFFFF;" version="1.1" viewBox="0 0 1360 971" width="1360px" zoomAndPan="magnify"><defs/><g><line style="stroke:#181818;stroke-width:0.5;stroke-dasharray:5.0,5.0;" x1="22" x2="22" y1="82.6094" y2="889.3984"/><line style="stroke:#181818;stroke-width:0.5;stroke-dasharray:5.0,5.0;" x1="333.5" x2="333.5" y1="82.6094" y2="889.3984"/><line style="stroke:#181818;stroke-width:0.5;stroke-dasharray:5.0,5.0;" x1="569" x2="569" y1="82.6094" y2="889.3984"/><line style="stroke:#181818;stroke-width:0.5;stroke-dasharray:5.0,5.0;" x1="787" x2="787" y1="82.6094" y2="889.3984"/><line style="stroke:#181818;stroke-width:0.5;stroke-dasharray:5.0,5.0;" x1="1028" x2="1028" y1="82.6094" y2="889.3984"/><line style="stroke:#181818;stroke-width:0.5;stroke-dasharray:5.0,5.0;" x1="1148" x2="1148" y1="82.6094" y2="889.3984"/><line style="stroke:#181818;stroke-width:0.5;stroke-dasharray:5.0,5.0;" x1="1281" x2="1281" y1="82.6094" y2="889.3984"/><text fill="#000000" font-family="sans-serif" font-size="14" lengthAdjust="spacing" textLength="29" x="5" y="79.5332">User</text><ellipse cx="22.5" cy="13.5" fill="#E2E2F0" rx="8" ry="8" style="stroke:#181818;stroke-width:0.5;"/><path d="M22.5,21.5 L22.5,48.5 M9.5,29.5 L35.5,29.5 M22.5,48.5 L9.5,63.5 M22.5,48.5 L35.5,63.5 " fill="none" style="stroke:#181818;stroke-width:0.5;"/><text fill="#000000" font-family="sans-serif" font-size="14" lengthAdjust="spacing" textLength="29" x="5" y="902.9316">User</text><ellipse cx="22.5" cy="914.5078" fill="#E2E2F0" rx="8" ry="8" style="stroke:#181818;stroke-width:0.5;"/><path d="M22.5,922.5078 L22.5,949.5078 M9.5,930.5078 L35.5,930.5078 M22.5,949.5078 L9.5,964.5078 M22.5,949.5078 L35.5,964.5078 " fill="none" style="stroke:#181818;stroke-width:0.5;"/><rect fill="#E2E2F0" height="31.6094" rx="2.5" ry="2.5" style="stroke:#181818;stroke-width:0.5;" width="72" x="297.5" y="50"/><text fill="#000000" font-family="sans-serif" font-size="14" lengthAdjust="spacing" textLength="58" x="304.5" y="71.5332">Frontend</text><rect fill="#E2E2F0" height="31.6094" rx="2.5" ry="2.5" style="stroke:#181818;stroke-width:0.5;" width="72" x="297.5" y="888.3984"/><text fill="#000000" font-family="sans-serif" font-size="14" lengthAdjust="spacing" textLength="58" x="304.5" y="909.9316">Frontend</text><rect fill="#E2E2F0" height="31.6094" rx="2.5" ry="2.5" style="stroke:#181818;stroke-width:0.5;" width="69" x="535" y="50"/><text fill="#000000" font-family="sans-serif" font-size="14" lengthAdjust="spacing" textLength="55" x="542" y="71.5332">Backend</text><rect fill="#E2E2F0" height="31.6094" rx="2.5" ry="2.5" style="stroke:#181818;stroke-width:0.5;" width="69" x="535" y="888.3984"/><text fill="#000000" font-family="sans-serif" font-size="14" lengthAdjust="spacing" textLength="55" x="542" y="909.9316">Backend</text><rect fill="#E2E2F0" height="31.6094" rx="2.5" ry="2.5" style="stroke:#181818;stroke-width:0.5;" width="155" x="710" y="50"/><text fill="#000000" font-family="sans-serif" font-size="14" lengthAdjust="spacing" textLength="141" x="717" y="71.5332">Authentication Service</text><rect fill="#E2E2F0" height="31.6094" rx="2.5" ry="2.5" style="stroke:#181818;stroke-width:0.5;" width="155" x="710" y="888.3984"/><text fill="#000000" font-family="sans-serif" font-size="14" lengthAdjust="spacing" textLength="141" x="717" y="909.9316">Authentication Service</text><rect fill="#E2E2F0" height="31.6094" rx="2.5" ry="2.5" style="stroke:#181818;stroke-width:0.5;" width="107" x="975" y="50"/><text fill="#000000" font-family="sans-serif" font-size="14" lengthAdjust="spacing" textLength="93" x="982" y="71.5332">SQL Database</text><rect fill="#E2E2F0" height="31.6094" rx="2.5" ry="2.5" style="stroke:#181818;stroke-width:0.5;" width="107" x="975" y="888.3984"/><text fill="#000000" font-family="sans-serif" font-size="14" lengthAdjust="spacing" textLength="93" x="982" y="909.9316">SQL Database</text><rect fill="#E2E2F0" height="31.6094" rx="2.5" ry="2.5" style="stroke:#181818;stroke-width:0.5;" width="112" x="1092" y="50"/><text fill="#000000" font-family="sans-serif" font-size="14" lengthAdjust="spacing" textLength="98" x="1099" y="71.5332">S3 File Storage</text><rect fill="#E2E2F0" height="31.6094" rx="2.5" ry="2.5" style="stroke:#181818;stroke-width:0.5;" width="112" x="1092" y="888.3984"/><text fill="#000000" font-family="sans-serif" font-size="14" lengthAdjust="spacing" textLength="98" x="1099" y="909.9316">S3 File Storage</text><rect fill="#E2E2F0" height="31.6094" rx="2.5" ry="2.5" style="stroke:#181818;stroke-width:0.5;" width="134" x="1214" y="50"/><text fill="#000000" font-family="sans-serif" font-size="14" lengthAdjust="spacing" textLength="120" x="1221" y="71.5332">Notification Service</text><rect fill="#E2E2F0" height="31.6094" rx="2.5" ry="2.5" style="stroke:#181818;stroke-width:0.5;" width="134" x="1214" y="888.3984"/><text fill="#000000" font-family="sans-serif" font-size="14" lengthAdjust="spacing" textLength="120" x="1221" y="909.9316">Notification Service</text><polygon fill="#181818" points="321.5,110.9609,331.5,114.9609,321.5,118.9609,325.5,114.9609" style="stroke:#181818;stroke-width:1.0;"/><line style="stroke:#181818;stroke-width:1.0;" x1="22.5" x2="327.5" y1="114.9609" y2="114.9609"/><text fill="#000000" font-family="sans-serif" font-size="13" lengthAdjust="spacing" textLength="287" x="29.5" y="110.1045">&#1042;&#1093;&#1086;&#1076; &#1074; &#1089;&#1080;&#1089;&#1090;&#1077;&#1084;&#1091; (&#1086;&#1090;&#1087;&#1088;&#1072;&#1074;&#1082;&#1072; &#1076;&#1072;&#1085;&#1085;&#1099;&#1093; &#1072;&#1074;&#1090;&#1086;&#1088;&#1080;&#1079;&#1072;&#1094;&#1080;&#1080;)</text><polygon fill="#181818" points="775.5,141.3125,785.5,145.3125,775.5,149.3125,779.5,145.3125" style="stroke:#181818;stroke-width:1.0;"/><line style="stroke:#181818;stroke-width:1.0;" x1="333.5" x2="781.5" y1="145.3125" y2="145.3125"/><text fill="#000000" font-family="sans-serif" font-size="13" lengthAdjust="spacing" textLength="70" x="340.5" y="140.4561">POST /login</text><polygon fill="#181818" points="1016.5,171.6641,1026.5,175.6641,1016.5,179.6641,1020.5,175.6641" style="stroke:#181818;stroke-width:1.0;"/><line style="stroke:#181818;stroke-width:1.0;" x1="787.5" x2="1022.5" y1="175.6641" y2="175.6641"/><text fill="#000000" font-family="sans-serif" font-size="13" lengthAdjust="spacing" textLength="159" x="794.5" y="170.8076">&#1055;&#1088;&#1086;&#1074;&#1077;&#1088;&#1082;&#1072; &#1091;&#1095;&#1077;&#1090;&#1085;&#1099;&#1093; &#1076;&#1072;&#1085;&#1085;&#1099;&#1093;</text><polygon fill="#181818" points="798.5,202.0156,788.5,206.0156,798.5,210.0156,794.5,206.0156" style="stroke:#181818;stroke-width:1.0;"/><line style="stroke:#181818;stroke-width:1.0;stroke-dasharray:2.0,2.0;" x1="792.5" x2="1027.5" y1="206.0156" y2="206.0156"/><text fill="#000000" font-family="sans-serif" font-size="13" lengthAdjust="spacing" textLength="217" x="804.5" y="201.1592">&#1042;&#1086;&#1079;&#1074;&#1088;&#1072;&#1097;&#1077;&#1085;&#1080;&#1077; &#1076;&#1072;&#1085;&#1085;&#1099;&#1093; &#1087;&#1086;&#1083;&#1100;&#1079;&#1086;&#1074;&#1072;&#1090;&#1077;&#1083;&#1103;</text><polygon fill="#181818" points="344.5,232.3672,334.5,236.3672,344.5,240.3672,340.5,236.3672" style="stroke:#181818;stroke-width:1.0;"/><line style="stroke:#181818;stroke-width:1.0;stroke-dasharray:2.0,2.0;" x1="338.5" x2="786.5" y1="236.3672" y2="236.3672"/><text fill="#000000" font-family="sans-serif" font-size="13" lengthAdjust="spacing" textLength="156" x="350.5" y="231.5107">&#1042;&#1086;&#1079;&#1074;&#1088;&#1072;&#1097;&#1077;&#1085;&#1080;&#1077; JWT &#1090;&#1086;&#1082;&#1077;&#1085;&#1072;</text><rect fill="#EEEEEE" height="3" style="stroke:#EEEEEE;stroke-width:1.0;" width="1353" x="0" y="265.543"/><line style="stroke:#000000;stroke-width:1.0;" x1="0" x2="1353" y1="265.543" y2="265.543"/><line style="stroke:#000000;stroke-width:1.0;" x1="0" x2="1353" y1="268.543" y2="268.543"/><rect fill="#EEEEEE" height="24.3516" style="stroke:#000000;stroke-width:2.0;" width="158" x="597.5" y="254.3672"/><text fill="#000000" font-family="sans-serif" font-size="13" font-weight="bold" lengthAdjust="spacing" textLength="140" x="603.5" y="271.8623">&#1054;&#1090;&#1087;&#1088;&#1072;&#1074;&#1082;&#1072; &#1089;&#1086;&#1086;&#1073;&#1097;&#1077;&#1085;&#1080;&#1103;</text><polygon fill="#181818" points="321.5,307.0703,331.5,311.0703,321.5,315.0703,325.5,311.0703" style="stroke:#181818;stroke-width:1.0;"/><line style="stroke:#181818;stroke-width:1.0;" x1="22.5" x2="327.5" y1="311.0703" y2="311.0703"/><text fill="#000000" font-family="sans-serif" font-size="13" lengthAdjust="spacing" textLength="134" x="29.5" y="306.2139">&#1054;&#1090;&#1087;&#1088;&#1072;&#1074;&#1080;&#1090;&#1100; &#1089;&#1086;&#1086;&#1073;&#1097;&#1077;&#1085;&#1080;&#1077;</text><polygon fill="#181818" points="557.5,337.4219,567.5,341.4219,557.5,345.4219,561.5,341.4219" style="stroke:#181818;stroke-width:1.0;"/><line style="stroke:#181818;stroke-width:1.0;" x1="333.5" x2="563.5" y1="341.4219" y2="341.4219"/><text fill="#000000" font-family="sans-serif" font-size="13" lengthAdjust="spacing" textLength="204" x="340.5" y="336.5654">POST /messages (&#1089; JWT &#1090;&#1086;&#1082;&#1077;&#1085;&#1086;&#1084;)</text><polygon fill="#181818" points="775.5,367.7734,785.5,371.7734,775.5,375.7734,779.5,371.7734" style="stroke:#181818;stroke-width:1.0;"/><line style="stroke:#181818;stroke-width:1.0;" x1="569.5" x2="781.5" y1="371.7734" y2="371.7734"/><text fill="#000000" font-family="sans-serif" font-size="13" lengthAdjust="spacing" textLength="130" x="576.5" y="366.917">&#1055;&#1088;&#1086;&#1074;&#1077;&#1088;&#1082;&#1072; JWT &#1090;&#1086;&#1082;&#1077;&#1085;&#1072;</text><polygon fill="#181818" points="580.5,398.125,570.5,402.125,580.5,406.125,576.5,402.125" style="stroke:#181818;stroke-width:1.0;"/><line style="stroke:#181818;stroke-width:1.0;stroke-dasharray:2.0,2.0;" x1="574.5" x2="786.5" y1="402.125" y2="402.125"/><text fill="#000000" font-family="sans-serif" font-size="13" lengthAdjust="spacing" textLength="194" x="586.5" y="397.2686">&#1055;&#1086;&#1076;&#1090;&#1074;&#1077;&#1088;&#1078;&#1076;&#1077;&#1085;&#1080;&#1077; &#1072;&#1091;&#1090;&#1077;&#1085;&#1090;&#1080;&#1092;&#1080;&#1082;&#1072;&#1094;&#1080;&#1080;</text><polygon fill="#181818" points="1016.5,428.4766,1026.5,432.4766,1016.5,436.4766,1020.5,432.4766" style="stroke:#181818;stroke-width:1.0;"/><line style="stroke:#181818;stroke-width:1.0;" x1="569.5" x2="1022.5" y1="432.4766" y2="432.4766"/><text fill="#000000" font-family="sans-serif" font-size="13" lengthAdjust="spacing" textLength="144" x="576.5" y="427.6201">&#1057;&#1086;&#1093;&#1088;&#1072;&#1085;&#1077;&#1085;&#1080;&#1077; &#1089;&#1086;&#1086;&#1073;&#1097;&#1077;&#1085;&#1080;&#1103;</text><polygon fill="#181818" points="580.5,458.8281,570.5,462.8281,580.5,466.8281,576.5,462.8281" style="stroke:#181818;stroke-width:1.0;"/><line style="stroke:#181818;stroke-width:1.0;stroke-dasharray:2.0,2.0;" x1="574.5" x2="1027.5" y1="462.8281" y2="462.8281"/><text fill="#000000" font-family="sans-serif" font-size="13" lengthAdjust="spacing" textLength="135" x="586.5" y="457.9717">&#1059;&#1089;&#1087;&#1077;&#1096;&#1085;&#1086;&#1077; &#1089;&#1086;&#1093;&#1088;&#1072;&#1085;&#1077;&#1085;&#1080;&#1077;</text><polygon fill="#181818" points="1136,489.1797,1146,493.1797,1136,497.1797,1140,493.1797" style="stroke:#181818;stroke-width:1.0;"/><line style="stroke:#181818;stroke-width:1.0;" x1="569.5" x2="1142" y1="493.1797" y2="493.1797"/><text fill="#000000" font-family="sans-serif" font-size="13" lengthAdjust="spacing" textLength="204" x="576.5" y="488.3232">&#1057;&#1086;&#1093;&#1088;&#1072;&#1085;&#1077;&#1085;&#1080;&#1077; &#1074;&#1083;&#1086;&#1078;&#1077;&#1085;&#1080;&#1103; (&#1077;&#1089;&#1083;&#1080; &#1077;&#1089;&#1090;&#1100;)</text><polygon fill="#181818" points="580.5,519.5313,570.5,523.5313,580.5,527.5313,576.5,523.5313" style="stroke:#181818;stroke-width:1.0;"/><line style="stroke:#181818;stroke-width:1.0;stroke-dasharray:2.0,2.0;" x1="574.5" x2="1147" y1="523.5313" y2="523.5313"/><text fill="#000000" font-family="sans-serif" font-size="13" lengthAdjust="spacing" textLength="169" x="586.5" y="518.6748">&#1055;&#1086;&#1076;&#1090;&#1074;&#1077;&#1088;&#1078;&#1076;&#1077;&#1085;&#1080;&#1077; &#1089;&#1086;&#1093;&#1088;&#1072;&#1085;&#1077;&#1085;&#1080;&#1103;</text><polygon fill="#181818" points="1269,549.8828,1279,553.8828,1269,557.8828,1273,553.8828" style="stroke:#181818;stroke-width:1.0;"/><line style="stroke:#181818;stroke-width:1.0;" x1="569.5" x2="1275" y1="553.8828" y2="553.8828"/><text fill="#000000" font-family="sans-serif" font-size="13" lengthAdjust="spacing" textLength="261" x="576.5" y="549.0264">&#1059;&#1074;&#1077;&#1076;&#1086;&#1084;&#1080;&#1090;&#1100; &#1087;&#1086;&#1083;&#1091;&#1095;&#1072;&#1090;&#1077;&#1083;&#1103; &#1086; &#1085;&#1086;&#1074;&#1086;&#1084; &#1089;&#1086;&#1086;&#1073;&#1097;&#1077;&#1085;&#1080;&#1080;</text><polygon fill="#181818" points="580.5,580.2344,570.5,584.2344,580.5,588.2344,576.5,584.2344" style="stroke:#181818;stroke-width:1.0;"/><line style="stroke:#181818;stroke-width:1.0;stroke-dasharray:2.0,2.0;" x1="574.5" x2="1280" y1="584.2344" y2="584.2344"/><text fill="#000000" font-family="sans-serif" font-size="13" lengthAdjust="spacing" textLength="236" x="586.5" y="579.3779">&#1055;&#1086;&#1076;&#1090;&#1074;&#1077;&#1088;&#1078;&#1076;&#1077;&#1085;&#1080;&#1077; &#1086;&#1090;&#1087;&#1088;&#1072;&#1074;&#1082;&#1080; &#1091;&#1074;&#1077;&#1076;&#1086;&#1084;&#1083;&#1077;&#1085;&#1080;&#1103;</text><polygon fill="#181818" points="344.5,610.5859,334.5,614.5859,344.5,618.5859,340.5,614.5859" style="stroke:#181818;stroke-width:1.0;"/><line style="stroke:#181818;stroke-width:1.0;stroke-dasharray:2.0,2.0;" x1="338.5" x2="568.5" y1="614.5859" y2="614.5859"/><text fill="#000000" font-family="sans-serif" font-size="13" lengthAdjust="spacing" textLength="212" x="350.5" y="609.7295">&#1059;&#1089;&#1087;&#1077;&#1096;&#1085;&#1086;&#1077; &#1086;&#1090;&#1087;&#1088;&#1072;&#1074;&#1083;&#1077;&#1085;&#1080;&#1077; &#1089;&#1086;&#1086;&#1073;&#1097;&#1077;&#1085;&#1080;&#1103;</text><rect fill="#EEEEEE" height="3" style="stroke:#EEEEEE;stroke-width:1.0;" width="1353" x="0" y="643.7617"/><line style="stroke:#000000;stroke-width:1.0;" x1="0" x2="1353" y1="643.7617" y2="643.7617"/><line style="stroke:#000000;stroke-width:1.0;" x1="0" x2="1353" y1="646.7617" y2="646.7617"/><rect fill="#EEEEEE" height="24.3516" style="stroke:#000000;stroke-width:2.0;" width="216" x="568.5" y="632.5859"/><text fill="#000000" font-family="sans-serif" font-size="13" font-weight="bold" lengthAdjust="spacing" textLength="198" x="574.5" y="650.0811">&#1055;&#1086;&#1083;&#1091;&#1095;&#1077;&#1085;&#1080;&#1077; &#1089;&#1087;&#1080;&#1089;&#1082;&#1072; &#1089;&#1086;&#1086;&#1073;&#1097;&#1077;&#1085;&#1080;&#1081;</text><polygon fill="#181818" points="321.5,685.2891,331.5,689.2891,321.5,693.2891,325.5,689.2891" style="stroke:#181818;stroke-width:1.0;"/><line style="stroke:#181818;stroke-width:1.0;" x1="22.5" x2="327.5" y1="689.2891" y2="689.2891"/><text fill="#000000" font-family="sans-serif" font-size="13" lengthAdjust="spacing" textLength="128" x="29.5" y="684.4326">&#1055;&#1086;&#1083;&#1091;&#1095;&#1080;&#1090;&#1100; &#1089;&#1086;&#1086;&#1073;&#1097;&#1077;&#1085;&#1080;&#1103;</text><polygon fill="#181818" points="557.5,715.6406,567.5,719.6406,557.5,723.6406,561.5,719.6406" style="stroke:#181818;stroke-width:1.0;"/><line style="stroke:#181818;stroke-width:1.0;" x1="333.5" x2="563.5" y1="719.6406" y2="719.6406"/><text fill="#000000" font-family="sans-serif" font-size="13" lengthAdjust="spacing" textLength="195" x="340.5" y="714.7842">GET /messages (&#1089; JWT &#1090;&#1086;&#1082;&#1077;&#1085;&#1086;&#1084;)</text><polygon fill="#181818" points="775.5,745.9922,785.5,749.9922,775.5,753.9922,779.5,749.9922" style="stroke:#181818;stroke-width:1.0;"/><line style="stroke:#181818;stroke-width:1.0;" x1="569.5" x2="781.5" y1="749.9922" y2="749.9922"/><text fill="#000000" font-family="sans-serif" font-size="13" lengthAdjust="spacing" textLength="130" x="576.5" y="745.1357">&#1055;&#1088;&#1086;&#1074;&#1077;&#1088;&#1082;&#1072; JWT &#1090;&#1086;&#1082;&#1077;&#1085;&#1072;</text><polygon fill="#181818" points="580.5,776.3438,570.5,780.3438,580.5,784.3438,576.5,780.3438" style="stroke:#181818;stroke-width:1.0;"/><line style="stroke:#181818;stroke-width:1.0;stroke-dasharray:2.0,2.0;" x1="574.5" x2="786.5" y1="780.3438" y2="780.3438"/><text fill="#000000" font-family="sans-serif" font-size="13" lengthAdjust="spacing" textLength="194" x="586.5" y="775.4873">&#1055;&#1086;&#1076;&#1090;&#1074;&#1077;&#1088;&#1078;&#1076;&#1077;&#1085;&#1080;&#1077; &#1072;&#1091;&#1090;&#1077;&#1085;&#1090;&#1080;&#1092;&#1080;&#1082;&#1072;&#1094;&#1080;&#1080;</text><polygon fill="#181818" points="1016.5,806.6953,1026.5,810.6953,1016.5,814.6953,1020.5,810.6953" style="stroke:#181818;stroke-width:1.0;"/><line style="stroke:#181818;stroke-width:1.0;" x1="569.5" x2="1022.5" y1="810.6953" y2="810.6953"/><text fill="#000000" font-family="sans-serif" font-size="13" lengthAdjust="spacing" textLength="222" x="576.5" y="805.8389">&#1055;&#1086;&#1083;&#1091;&#1095;&#1077;&#1085;&#1080;&#1077; &#1089;&#1086;&#1086;&#1073;&#1097;&#1077;&#1085;&#1080;&#1081; &#1087;&#1086;&#1083;&#1100;&#1079;&#1086;&#1074;&#1072;&#1090;&#1077;&#1083;&#1103;</text><polygon fill="#181818" points="580.5,837.0469,570.5,841.0469,580.5,845.0469,576.5,841.0469" style="stroke:#181818;stroke-width:1.0;"/><line style="stroke:#181818;stroke-width:1.0;stroke-dasharray:2.0,2.0;" x1="574.5" x2="1027.5" y1="841.0469" y2="841.0469"/><text fill="#000000" font-family="sans-serif" font-size="13" lengthAdjust="spacing" textLength="200" x="586.5" y="836.1904">&#1042;&#1086;&#1079;&#1074;&#1088;&#1072;&#1097;&#1077;&#1085;&#1080;&#1077; &#1089;&#1087;&#1080;&#1089;&#1082;&#1072; &#1089;&#1086;&#1086;&#1073;&#1097;&#1077;&#1085;&#1080;&#1081;</text><polygon fill="#181818" points="344.5,867.3984,334.5,871.3984,344.5,875.3984,340.5,871.3984" style="stroke:#181818;stroke-width:1.0;"/><line style="stroke:#181818;stroke-width:1.0;stroke-dasharray:2.0,2.0;" x1="338.5" x2="568.5" y1="871.3984" y2="871.3984"/><text fill="#000000" font-family="sans-serif" font-size="13" lengthAdjust="spacing" textLength="115" x="350.5" y="866.542">&#1057;&#1087;&#1080;&#1089;&#1086;&#1082; &#1089;&#1086;&#1086;&#1073;&#1097;&#1077;&#1085;&#1080;&#1081;</text><!--SRC=[rLJBQjjG4DtVhnYoiXUX2-y2BjJKBfJI1qxfMdNLL2ILWwKMkgkTkWyQ2EG3Qa9-G3LneaIn_0jp_wXdzBYn7ccpBGPBkdDcpfap8ra3VpYYbvuzKchV6ldEmDctN9ysUgEXwzlkcmsoFEfrYy6EDTZDOvrIxC47_vtjujdodQ5BVNlqqHdO2LH2HN3_nHDwQFdMQyjB8JWe8LhKS_PiwaEdjPE1MaNCqw7llAqZJ0AVb9B-QFC- -jWYFjPJZlcCU4vwpA4Uwmal-5eVK8DZtA_qPmvupbSS49_XTibB_LDFIKuHZn4F-O83_HNNiAbwNQajpMtHysVzRRgtDznnN2Kd4a5Fe9qXBKRP1QvIMX_eRtYOvCNNc9JOicbgyZ4IBy0DNVe7j2x1koXfMm4JwKFWX2H8UehqKIR2z5vRwV6hRPB6e4kE0gNQRU9V9IzWLepVxpnH7r6xNV9sFIVK4trOoU95vbUdcxlrtlOyZDQZXXwNjSHytLITDOChFbR4cuw5WMSoQyJJX7EOPlmBC0AnQOd_K7_1uLK-L9LnfgCxmSodILTBarrrmqmjuJq5O0NExqaJARvSnB2qRY61wWZPvyRm1YgESHQIt8Z1JOKtv0xTLlcXEEDFNnCHBOb8WklP-BAzabqrEqKSKzBLN83L2OSgBNYd8HJVk12lnPg6o2WLeVcIbQqjr8Z-Dg5ahsUcepNaIZu4jMlEbzKrlobHl-IWkbdoHzt_OSThNIaRSUjNfh3wzH-PVvXScF191aN3TT0_]--></g></svg>